G04 #@! TF.GenerationSoftware,KiCad,Pcbnew,(5.1.8-0-10_14)*
G04 #@! TF.CreationDate,2020-11-14T19:44:57+01:00*
G04 #@! TF.ProjectId,fet-amplifier,6665742d-616d-4706-9c69-666965722e6b,rev?*
G04 #@! TF.SameCoordinates,Original*
G04 #@! TF.FileFunction,Legend,Bot*
G04 #@! TF.FilePolarity,Positive*
%FSLAX46Y46*%
G04 Gerber Fmt 4.6, Leading zero omitted, Abs format (unit mm)*
G04 Created by KiCad (PCBNEW (5.1.8-0-10_14)) date 2020-11-14 19:44:57*
%MOMM*%
%LPD*%
G01*
G04 APERTURE LIST*
%ADD10C,0.127000*%
%ADD11C,0.152400*%
G04 APERTURE END LIST*
D10*
X106934000Y-131064000D02*
X106934000Y-129794000D01*
X103886000Y-131064000D02*
X103886000Y-129794000D01*
X106934000Y-131064000D02*
X106934000Y-129794000D01*
X102870000Y-130175000D02*
X102870000Y-131064000D01*
X102870000Y-129794000D02*
X102870000Y-130175000D01*
X103886000Y-129794000D02*
X102870000Y-129794000D01*
X106934000Y-129794000D02*
X103886000Y-129794000D01*
X107950000Y-129794000D02*
X106934000Y-129794000D01*
X107950000Y-131064000D02*
X107950000Y-129794000D01*
X105410000Y-133604000D02*
X102870000Y-133604000D01*
X105410000Y-131064000D02*
X105410000Y-133604000D01*
X107950000Y-133604000D02*
X107950000Y-131064000D01*
X105410000Y-133604000D02*
X107950000Y-133604000D01*
X102870000Y-131064000D02*
X102870000Y-133604000D01*
X103886000Y-131064000D02*
X102870000Y-131064000D01*
X105410000Y-131064000D02*
X103886000Y-131064000D01*
X106934000Y-131064000D02*
X105410000Y-131064000D01*
X107950000Y-131064000D02*
X106934000Y-131064000D01*
X106045000Y-132334000D02*
X104775000Y-132334000D01*
X105410000Y-132969000D02*
X105410000Y-131699000D01*
X106045000Y-132334000D02*
G75*
G03*
X106045000Y-132334000I-635000J0D01*
G01*
X71501000Y-93091000D02*
G75*
G03*
X71501000Y-93091000I-635000J0D01*
G01*
D11*
X69215000Y-86106000D02*
X69215000Y-86741000D01*
X72517000Y-86106000D02*
X69215000Y-86106000D01*
X72517000Y-86741000D02*
X72517000Y-86106000D01*
X73152000Y-86741000D02*
X72517000Y-86741000D01*
X73152000Y-99441000D02*
X73152000Y-86741000D01*
X72517000Y-99441000D02*
X73152000Y-99441000D01*
X72517000Y-100076000D02*
X72517000Y-99441000D01*
X69215000Y-100076000D02*
X72517000Y-100076000D01*
X69215000Y-99441000D02*
X69215000Y-100076000D01*
X68580000Y-99441000D02*
X69215000Y-99441000D01*
X68580000Y-86741000D02*
X68580000Y-99441000D01*
X69215000Y-86741000D02*
X68580000Y-86741000D01*
D10*
X70231000Y-93091000D02*
X71501000Y-93091000D01*
X70866000Y-92456000D02*
X70866000Y-93726000D01*
X109601000Y-93091000D02*
G75*
G03*
X109601000Y-93091000I-635000J0D01*
G01*
D11*
X110617000Y-100076000D02*
X110617000Y-99441000D01*
X107315000Y-100076000D02*
X110617000Y-100076000D01*
X107315000Y-99441000D02*
X107315000Y-100076000D01*
X106680000Y-99441000D02*
X107315000Y-99441000D01*
X106680000Y-86741000D02*
X106680000Y-99441000D01*
X107315000Y-86741000D02*
X106680000Y-86741000D01*
X107315000Y-86106000D02*
X107315000Y-86741000D01*
X110617000Y-86106000D02*
X107315000Y-86106000D01*
X110617000Y-86741000D02*
X110617000Y-86106000D01*
X111252000Y-86741000D02*
X110617000Y-86741000D01*
X111252000Y-99441000D02*
X111252000Y-86741000D01*
X110617000Y-99441000D02*
X111252000Y-99441000D01*
D10*
X109601000Y-93091000D02*
X108331000Y-93091000D01*
X108966000Y-93726000D02*
X108966000Y-92456000D01*
X90551000Y-132588000D02*
G75*
G03*
X90551000Y-132588000I-635000J0D01*
G01*
X89281000Y-132588000D02*
X90551000Y-132588000D01*
X89916000Y-131953000D02*
X89916000Y-133223000D01*
D11*
X97536000Y-140208000D02*
X97536000Y-124968000D01*
X82296000Y-140208000D02*
X97536000Y-140208000D01*
X82296000Y-124968000D02*
X82296000Y-140208000D01*
X97536000Y-124968000D02*
X82296000Y-124968000D01*
D10*
X82550000Y-82042000D02*
X82550000Y-78994000D01*
X79502000Y-82042000D02*
X82550000Y-82042000D01*
X79502000Y-78994000D02*
X79502000Y-82042000D01*
X77470000Y-82042000D02*
X77470000Y-78994000D01*
X74422000Y-82042000D02*
X77470000Y-82042000D01*
X74422000Y-78994000D02*
X74422000Y-82042000D01*
X72390000Y-82042000D02*
X72390000Y-78994000D01*
X69342000Y-82042000D02*
X72390000Y-82042000D01*
X69342000Y-78994000D02*
X69342000Y-82042000D01*
X79502000Y-78994000D02*
X82550000Y-78994000D01*
X74422000Y-78994000D02*
X77470000Y-78994000D01*
X69342000Y-78994000D02*
X72390000Y-78994000D01*
X68326000Y-78867000D02*
X83566000Y-78867000D01*
X67056000Y-65913000D02*
X84836000Y-65913000D01*
X75946000Y-74803000D02*
X75946000Y-57023000D01*
X83566000Y-78867000D02*
X83566000Y-70358000D01*
X68326000Y-70358000D02*
X68326000Y-78867000D01*
X76844000Y-65913000D02*
G75*
G03*
X76844000Y-65913000I-898000J0D01*
G01*
X67056000Y-65913000D02*
G75*
G03*
X75946000Y-74803000I8890000J0D01*
G01*
X75946000Y-74803000D02*
G75*
G03*
X84836000Y-65913000I0J8890000D01*
G01*
X84836000Y-65913002D02*
G75*
G03*
X75946000Y-57023000I-8889901J101D01*
G01*
X75946002Y-57023000D02*
G75*
G03*
X67056000Y-65913000I-101J-8889901D01*
G01*
X110490000Y-82042000D02*
X110490000Y-78994000D01*
X107442000Y-82042000D02*
X110490000Y-82042000D01*
X107442000Y-78994000D02*
X107442000Y-82042000D01*
X105410000Y-82042000D02*
X105410000Y-78994000D01*
X102362000Y-82042000D02*
X105410000Y-82042000D01*
X102362000Y-78994000D02*
X102362000Y-82042000D01*
X100330000Y-82042000D02*
X100330000Y-78994000D01*
X97282000Y-82042000D02*
X100330000Y-82042000D01*
X97282000Y-78994000D02*
X97282000Y-82042000D01*
X107442000Y-78994000D02*
X110490000Y-78994000D01*
X102362000Y-78994000D02*
X105410000Y-78994000D01*
X97282000Y-78994000D02*
X100330000Y-78994000D01*
X96266000Y-78867000D02*
X111506000Y-78867000D01*
X94996000Y-65913000D02*
X112776000Y-65913000D01*
X103886000Y-74803000D02*
X103886000Y-57023000D01*
X111506000Y-78867000D02*
X111506000Y-70358000D01*
X96266000Y-70358000D02*
X96266000Y-78867000D01*
X104784000Y-65913000D02*
G75*
G03*
X104784000Y-65913000I-898000J0D01*
G01*
X94996000Y-65913000D02*
G75*
G03*
X103886000Y-74803000I8890000J0D01*
G01*
X103886000Y-74803000D02*
G75*
G03*
X112776000Y-65913000I0J8890000D01*
G01*
X112776000Y-65913002D02*
G75*
G03*
X103886000Y-57023000I-8889901J101D01*
G01*
X103886002Y-57023000D02*
G75*
G03*
X94996000Y-65913000I-101J-8889901D01*
G01*
X96520000Y-109220000D02*
X96520000Y-106172000D01*
X93472000Y-109220000D02*
X96520000Y-109220000D01*
X93472000Y-106172000D02*
X93472000Y-109220000D01*
X91440000Y-109220000D02*
X91440000Y-106172000D01*
X88392000Y-109220000D02*
X91440000Y-109220000D01*
X88392000Y-106172000D02*
X88392000Y-109220000D01*
X86360000Y-109220000D02*
X86360000Y-106172000D01*
X83312000Y-109220000D02*
X86360000Y-109220000D01*
X83312000Y-106172000D02*
X83312000Y-109220000D01*
X93472000Y-106172000D02*
X96520000Y-106172000D01*
X88392000Y-106172000D02*
X91440000Y-106172000D01*
X83312000Y-106172000D02*
X86360000Y-106172000D01*
X82296000Y-106045000D02*
X97536000Y-106045000D01*
X81026000Y-93091000D02*
X98806000Y-93091000D01*
X89916000Y-101981000D02*
X89916000Y-84201000D01*
X97536000Y-106045000D02*
X97536000Y-97536000D01*
X82296000Y-97536000D02*
X82296000Y-106045000D01*
X90814000Y-93091000D02*
G75*
G03*
X90814000Y-93091000I-898000J0D01*
G01*
X81026000Y-93091000D02*
G75*
G03*
X89916000Y-101981000I8890000J0D01*
G01*
X89916000Y-101981000D02*
G75*
G03*
X98806000Y-93091000I0J8890000D01*
G01*
X98806000Y-93091002D02*
G75*
G03*
X89916000Y-84201000I-8889901J101D01*
G01*
X89916002Y-84201000D02*
G75*
G03*
X81026000Y-93091000I-101J-8889901D01*
G01*
D11*
X97028000Y-124714000D02*
X97028000Y-123444000D01*
X99568000Y-124714000D02*
X97028000Y-124714000D01*
X99568000Y-123444000D02*
X99568000Y-124714000D01*
X99568000Y-123444000D02*
X99568000Y-120904000D01*
X97028000Y-123444000D02*
X99568000Y-123444000D01*
X97028000Y-120904000D02*
X97028000Y-123444000D01*
X99568000Y-120904000D02*
X97028000Y-120904000D01*
X93726000Y-124714000D02*
X93726000Y-123444000D01*
X96266000Y-124714000D02*
X93726000Y-124714000D01*
X96266000Y-123444000D02*
X96266000Y-124714000D01*
X96266000Y-123444000D02*
X96266000Y-120904000D01*
X93726000Y-123444000D02*
X96266000Y-123444000D01*
X93726000Y-120904000D02*
X93726000Y-123444000D01*
X96266000Y-120904000D02*
X93726000Y-120904000D01*
X114300000Y-77978000D02*
X114300000Y-79248000D01*
X111760000Y-77978000D02*
X114300000Y-77978000D01*
X111760000Y-79248000D02*
X111760000Y-77978000D01*
X111760000Y-79248000D02*
X111760000Y-81788000D01*
X114300000Y-79248000D02*
X111760000Y-79248000D01*
X114300000Y-81788000D02*
X114300000Y-79248000D01*
X111760000Y-81788000D02*
X114300000Y-81788000D01*
X90424000Y-124714000D02*
X90424000Y-123444000D01*
X92964000Y-124714000D02*
X90424000Y-124714000D01*
X92964000Y-123444000D02*
X92964000Y-124714000D01*
X92964000Y-123444000D02*
X92964000Y-120904000D01*
X90424000Y-123444000D02*
X92964000Y-123444000D01*
X90424000Y-120904000D02*
X90424000Y-123444000D01*
X92964000Y-120904000D02*
X90424000Y-120904000D01*
X86868000Y-124714000D02*
X86868000Y-123444000D01*
X89408000Y-124714000D02*
X86868000Y-124714000D01*
X89408000Y-123444000D02*
X89408000Y-124714000D01*
X89408000Y-123444000D02*
X89408000Y-120904000D01*
X86868000Y-123444000D02*
X89408000Y-123444000D01*
X86868000Y-120904000D02*
X86868000Y-123444000D01*
X89408000Y-120904000D02*
X86868000Y-120904000D01*
X92964000Y-77978000D02*
X92964000Y-79248000D01*
X90424000Y-77978000D02*
X92964000Y-77978000D01*
X90424000Y-79248000D02*
X90424000Y-77978000D01*
X90424000Y-79248000D02*
X90424000Y-81788000D01*
X92964000Y-79248000D02*
X90424000Y-79248000D01*
X92964000Y-81788000D02*
X92964000Y-79248000D01*
X90424000Y-81788000D02*
X92964000Y-81788000D01*
X83566000Y-124714000D02*
X83566000Y-123444000D01*
X86106000Y-124714000D02*
X83566000Y-124714000D01*
X86106000Y-123444000D02*
X86106000Y-124714000D01*
X86106000Y-123444000D02*
X86106000Y-120904000D01*
X83566000Y-123444000D02*
X86106000Y-123444000D01*
X83566000Y-120904000D02*
X83566000Y-123444000D01*
X86106000Y-120904000D02*
X83566000Y-120904000D01*
X80264000Y-124714000D02*
X80264000Y-123444000D01*
X82804000Y-124714000D02*
X80264000Y-124714000D01*
X82804000Y-123444000D02*
X82804000Y-124714000D01*
X82804000Y-123444000D02*
X82804000Y-120904000D01*
X80264000Y-123444000D02*
X82804000Y-123444000D01*
X80264000Y-120904000D02*
X80264000Y-123444000D01*
X82804000Y-120904000D02*
X80264000Y-120904000D01*
X89408000Y-112776000D02*
X89408000Y-114046000D01*
X86868000Y-112776000D02*
X89408000Y-112776000D01*
X86868000Y-114046000D02*
X86868000Y-112776000D01*
X86868000Y-114046000D02*
X86868000Y-116586000D01*
X89408000Y-114046000D02*
X86868000Y-114046000D01*
X89408000Y-116586000D02*
X89408000Y-114046000D01*
X86868000Y-116586000D02*
X89408000Y-116586000D01*
X89408000Y-77978000D02*
X89408000Y-79248000D01*
X86868000Y-77978000D02*
X89408000Y-77978000D01*
X86868000Y-79248000D02*
X86868000Y-77978000D01*
X86868000Y-79248000D02*
X86868000Y-81788000D01*
X89408000Y-79248000D02*
X86868000Y-79248000D01*
X89408000Y-81788000D02*
X89408000Y-79248000D01*
X86868000Y-81788000D02*
X89408000Y-81788000D01*
X96266000Y-112776000D02*
X96266000Y-114046000D01*
X93726000Y-112776000D02*
X96266000Y-112776000D01*
X93726000Y-114046000D02*
X93726000Y-112776000D01*
X93726000Y-114046000D02*
X93726000Y-116586000D01*
X96266000Y-114046000D02*
X93726000Y-114046000D01*
X96266000Y-116586000D02*
X96266000Y-114046000D01*
X93726000Y-116586000D02*
X96266000Y-116586000D01*
X68072000Y-77978000D02*
X68072000Y-79248000D01*
X65532000Y-77978000D02*
X68072000Y-77978000D01*
X65532000Y-79248000D02*
X65532000Y-77978000D01*
X65532000Y-79248000D02*
X65532000Y-81788000D01*
X68072000Y-79248000D02*
X65532000Y-79248000D01*
X68072000Y-81788000D02*
X68072000Y-79248000D01*
X65532000Y-81788000D02*
X68072000Y-81788000D01*
X92964000Y-112776000D02*
X92964000Y-114046000D01*
X90424000Y-112776000D02*
X92964000Y-112776000D01*
X90424000Y-114046000D02*
X90424000Y-112776000D01*
X90424000Y-114046000D02*
X90424000Y-116586000D01*
X92964000Y-114046000D02*
X90424000Y-114046000D01*
X92964000Y-116586000D02*
X92964000Y-114046000D01*
X90424000Y-116586000D02*
X92964000Y-116586000D01*
X86106000Y-112776000D02*
X86106000Y-114046000D01*
X83566000Y-112776000D02*
X86106000Y-112776000D01*
X83566000Y-114046000D02*
X83566000Y-112776000D01*
X83566000Y-114046000D02*
X83566000Y-116586000D01*
X86106000Y-114046000D02*
X83566000Y-114046000D01*
X86106000Y-116586000D02*
X86106000Y-114046000D01*
X83566000Y-116586000D02*
X86106000Y-116586000D01*
D10*
X100203000Y-87630000D02*
X100203000Y-88646000D01*
X101092000Y-89408000D02*
X104394000Y-89408000D01*
X101092000Y-86868000D02*
X104394000Y-86868000D01*
X104775000Y-89789000D02*
X105410000Y-89789000D01*
X105410000Y-89789000D02*
X105410000Y-86487000D01*
X105410000Y-86487000D02*
X104775000Y-86487000D01*
X102870000Y-87503000D02*
X102870000Y-88773000D01*
X102235000Y-88138000D02*
X103505000Y-88138000D01*
X104775000Y-86487000D02*
G75*
G02*
X104394000Y-86868000I-381000J0D01*
G01*
X104775000Y-89789000D02*
G75*
G03*
X104394000Y-89408000I-381000J0D01*
G01*
X101092001Y-89407999D02*
G75*
G02*
X100203000Y-88646000I-63501J825500D01*
G01*
X100202999Y-87630001D02*
G75*
G02*
X101092000Y-86868000I825501J-63500D01*
G01*
X105537000Y-92964000D02*
X105537000Y-91948000D01*
X104648000Y-91186000D02*
X101346000Y-91186000D01*
X104648000Y-93726000D02*
X101346000Y-93726000D01*
X100965000Y-90805000D02*
X100330000Y-90805000D01*
X100330000Y-90805000D02*
X100330000Y-94107000D01*
X100330000Y-94107000D02*
X100965000Y-94107000D01*
X102870000Y-93091000D02*
X102870000Y-91821000D01*
X103505000Y-92456000D02*
X102235000Y-92456000D01*
X100965000Y-94107000D02*
G75*
G02*
X101346000Y-93726000I381000J0D01*
G01*
X100965000Y-90805000D02*
G75*
G03*
X101346000Y-91186000I381000J0D01*
G01*
X104647999Y-91186001D02*
G75*
G02*
X105537000Y-91948000I63501J-825500D01*
G01*
X105537001Y-92963999D02*
G75*
G02*
X104648000Y-93726000I-825501J63500D01*
G01*
X97028000Y-92075000D02*
X98044000Y-92075000D01*
X98806000Y-91186000D02*
X98806000Y-87884000D01*
X96266000Y-91186000D02*
X96266000Y-87884000D01*
X99187000Y-87503000D02*
X99187000Y-86868000D01*
X99187000Y-86868000D02*
X95885000Y-86868000D01*
X95885000Y-86868000D02*
X95885000Y-87503000D01*
X96901000Y-89408000D02*
X98171000Y-89408000D01*
X97536000Y-90043000D02*
X97536000Y-88773000D01*
X95885000Y-87503000D02*
G75*
G02*
X96266000Y-87884000I0J-381000D01*
G01*
X99187000Y-87503000D02*
G75*
G03*
X98806000Y-87884000I0J-381000D01*
G01*
X98805999Y-91185999D02*
G75*
G02*
X98044000Y-92075000I-825500J-63501D01*
G01*
X97028001Y-92075001D02*
G75*
G02*
X96266000Y-91186000I63500J825501D01*
G01*
M02*
