G04 #@! TF.GenerationSoftware,KiCad,Pcbnew,(5.1.8-0-10_14)*
G04 #@! TF.CreationDate,2020-11-14T19:44:57+01:00*
G04 #@! TF.ProjectId,fet-amplifier,6665742d-616d-4706-9c69-666965722e6b,rev?*
G04 #@! TF.SameCoordinates,Original*
G04 #@! TF.FileFunction,Soldermask,Top*
G04 #@! TF.FilePolarity,Negative*
%FSLAX46Y46*%
G04 Gerber Fmt 4.6, Leading zero omitted, Abs format (unit mm)*
G04 Created by KiCad (PCBNEW (5.1.8-0-10_14)) date 2020-11-14 19:44:57*
%MOMM*%
%LPD*%
G01*
G04 APERTURE LIST*
%ADD10C,0.150000*%
%ADD11R,2.000000X2.000000*%
%ADD12C,2.000000*%
%ADD13C,0.500000*%
%ADD14O,2.000000X2.000000*%
%ADD15O,3.416000X3.416000*%
%ADD16R,3.416000X3.416000*%
%ADD17R,3.816000X3.816000*%
%ADD18O,3.816000X3.816000*%
%ADD19O,1.930400X1.930400*%
%ADD20O,2.540000X2.540000*%
%ADD21R,2.540000X2.540000*%
%ADD22R,1.930400X1.930400*%
%ADD23O,2.032000X2.032000*%
%ADD24O,1.508000X1.508000*%
%ADD25R,1.508000X1.508000*%
G04 APERTURE END LIST*
D10*
X72261333Y-138373770D02*
X70861333Y-138198770D01*
X70861333Y-137865437D01*
X70928000Y-137673770D01*
X71061333Y-137557104D01*
X71194666Y-137507104D01*
X71461333Y-137473770D01*
X71661333Y-137498770D01*
X71928000Y-137598770D01*
X72061333Y-137682104D01*
X72194666Y-137832104D01*
X72261333Y-138040437D01*
X72261333Y-138373770D01*
X72261333Y-136973770D02*
X71328000Y-136857104D01*
X71594666Y-136890437D02*
X71461333Y-136807104D01*
X71394666Y-136732104D01*
X71328000Y-136590437D01*
X71328000Y-136457104D01*
X71328000Y-135390437D02*
X72261333Y-135507104D01*
X71328000Y-135990437D02*
X72061333Y-136082104D01*
X72194666Y-136032104D01*
X72261333Y-135907104D01*
X72261333Y-135707104D01*
X72194666Y-135565437D01*
X72128000Y-135490437D01*
X71328000Y-134723770D02*
X72261333Y-134840437D01*
X71461333Y-134740437D02*
X71394666Y-134665437D01*
X71328000Y-134523770D01*
X71328000Y-134323770D01*
X71394666Y-134198770D01*
X71528000Y-134148770D01*
X72261333Y-134240437D01*
X72261333Y-133573770D02*
X70861333Y-133398770D01*
X71728000Y-133373770D02*
X72261333Y-133040437D01*
X71328000Y-132923770D02*
X71861333Y-133523770D01*
X71528000Y-130815437D02*
X71594666Y-130623770D01*
X71661333Y-130565437D01*
X71794666Y-130515437D01*
X71994666Y-130540437D01*
X72128000Y-130623770D01*
X72194666Y-130698770D01*
X72261333Y-130840437D01*
X72261333Y-131373770D01*
X70861333Y-131198770D01*
X70861333Y-130732104D01*
X70928000Y-130607104D01*
X70994666Y-130548770D01*
X71128000Y-130498770D01*
X71261333Y-130515437D01*
X71394666Y-130598770D01*
X71461333Y-130673770D01*
X71528000Y-130815437D01*
X71528000Y-131282104D01*
X72194666Y-129432104D02*
X72261333Y-129573770D01*
X72261333Y-129840437D01*
X72194666Y-129965437D01*
X72061333Y-130015437D01*
X71528000Y-129948770D01*
X71394666Y-129865437D01*
X71328000Y-129723770D01*
X71328000Y-129457104D01*
X71394666Y-129332104D01*
X71528000Y-129282104D01*
X71661333Y-129298770D01*
X71794666Y-129982104D01*
X72261333Y-128173770D02*
X71528000Y-128082104D01*
X71394666Y-128132104D01*
X71328000Y-128257104D01*
X71328000Y-128523770D01*
X71394666Y-128665437D01*
X72194666Y-128165437D02*
X72261333Y-128307104D01*
X72261333Y-128640437D01*
X72194666Y-128765437D01*
X72061333Y-128815437D01*
X71928000Y-128798770D01*
X71794666Y-128715437D01*
X71728000Y-128573770D01*
X71728000Y-128240437D01*
X71661333Y-128098770D01*
X71328000Y-127523770D02*
X72261333Y-127307104D01*
X71328000Y-126857104D01*
X72194666Y-125898770D02*
X72261333Y-126040437D01*
X72261333Y-126307104D01*
X72194666Y-126432104D01*
X72061333Y-126482104D01*
X71528000Y-126415437D01*
X71394666Y-126332104D01*
X71328000Y-126190437D01*
X71328000Y-125923770D01*
X71394666Y-125798770D01*
X71528000Y-125748770D01*
X71661333Y-125765437D01*
X71794666Y-126448770D01*
X72261333Y-125240437D02*
X71328000Y-125123770D01*
X71594666Y-125157104D02*
X71461333Y-125073770D01*
X71394666Y-124998770D01*
X71328000Y-124857104D01*
X71328000Y-124723770D01*
X86479428Y-110926571D02*
X86622285Y-110974190D01*
X86669904Y-111021809D01*
X86717523Y-111117047D01*
X86717523Y-111259904D01*
X86669904Y-111355142D01*
X86622285Y-111402761D01*
X86527047Y-111450380D01*
X86146095Y-111450380D01*
X86146095Y-110450380D01*
X86479428Y-110450380D01*
X86574666Y-110498000D01*
X86622285Y-110545619D01*
X86669904Y-110640857D01*
X86669904Y-110736095D01*
X86622285Y-110831333D01*
X86574666Y-110878952D01*
X86479428Y-110926571D01*
X86146095Y-110926571D01*
X87288952Y-111450380D02*
X87193714Y-111402761D01*
X87146095Y-111355142D01*
X87098476Y-111259904D01*
X87098476Y-110974190D01*
X87146095Y-110878952D01*
X87193714Y-110831333D01*
X87288952Y-110783714D01*
X87431809Y-110783714D01*
X87527047Y-110831333D01*
X87574666Y-110878952D01*
X87622285Y-110974190D01*
X87622285Y-111259904D01*
X87574666Y-111355142D01*
X87527047Y-111402761D01*
X87431809Y-111450380D01*
X87288952Y-111450380D01*
X88050857Y-111450380D02*
X88050857Y-110450380D01*
X88050857Y-110831333D02*
X88146095Y-110783714D01*
X88336571Y-110783714D01*
X88431809Y-110831333D01*
X88479428Y-110878952D01*
X88527047Y-110974190D01*
X88527047Y-111259904D01*
X88479428Y-111355142D01*
X88431809Y-111402761D01*
X88336571Y-111450380D01*
X88146095Y-111450380D01*
X88050857Y-111402761D01*
X89384190Y-111450380D02*
X89384190Y-110926571D01*
X89336571Y-110831333D01*
X89241333Y-110783714D01*
X89050857Y-110783714D01*
X88955619Y-110831333D01*
X89384190Y-111402761D02*
X89288952Y-111450380D01*
X89050857Y-111450380D01*
X88955619Y-111402761D01*
X88908000Y-111307523D01*
X88908000Y-111212285D01*
X88955619Y-111117047D01*
X89050857Y-111069428D01*
X89288952Y-111069428D01*
X89384190Y-111021809D01*
X90955619Y-110926571D02*
X90622285Y-110926571D01*
X90622285Y-111450380D02*
X90622285Y-110450380D01*
X91098476Y-110450380D01*
X91479428Y-110926571D02*
X91812761Y-110926571D01*
X91955619Y-111450380D02*
X91479428Y-111450380D01*
X91479428Y-110450380D01*
X91955619Y-110450380D01*
X92241333Y-110450380D02*
X92812761Y-110450380D01*
X92527047Y-111450380D02*
X92527047Y-110450380D01*
D11*
X104140000Y-132334000D03*
D12*
X106680000Y-132334000D03*
D13*
X99352000Y-119718000D03*
X97752000Y-119718000D03*
X97752000Y-117518000D03*
X99352000Y-117518000D03*
X98552000Y-119718000D03*
X98552000Y-117518000D03*
X82080000Y-119718000D03*
X80480000Y-119718000D03*
X80480000Y-117518000D03*
X82080000Y-117518000D03*
X81280000Y-119718000D03*
X81280000Y-117518000D03*
D14*
X86106000Y-89154000D03*
X88646000Y-89154000D03*
X91186000Y-89154000D03*
X93726000Y-89154000D03*
X93726000Y-96774000D03*
X91186000Y-96774000D03*
X88646000Y-96774000D03*
D11*
X86106000Y-96774000D03*
D15*
X70866000Y-97790000D03*
X70866000Y-93091000D03*
D16*
X70866000Y-88392000D03*
D15*
X108966000Y-88392000D03*
X108966000Y-93091000D03*
D16*
X108966000Y-97790000D03*
D17*
X84836000Y-127508000D03*
D18*
X84836000Y-132588000D03*
X84836000Y-137668000D03*
X89916000Y-127508000D03*
X89916000Y-132588000D03*
X89916000Y-137668000D03*
X94996000Y-127508000D03*
X94996000Y-132588000D03*
X94996000Y-137668000D03*
D19*
X108204000Y-137922000D03*
X105664000Y-135382000D03*
X103124000Y-137922000D03*
D20*
X70866000Y-80518000D03*
X75946000Y-80518000D03*
D21*
X81026000Y-80518000D03*
D20*
X98806000Y-80518000D03*
X103886000Y-80518000D03*
D21*
X108966000Y-80518000D03*
D20*
X84836000Y-107696000D03*
X89916000Y-107696000D03*
D21*
X94996000Y-107696000D03*
D14*
X108966000Y-125984000D03*
X101346000Y-125984000D03*
X66294000Y-90932000D03*
X66294000Y-98552000D03*
X73406000Y-115316000D03*
X65786000Y-115316000D03*
X101600000Y-115316000D03*
X101600000Y-107696000D03*
X114046000Y-112522000D03*
X106426000Y-112522000D03*
X74930000Y-85598000D03*
X74930000Y-93218000D03*
X98806000Y-107696000D03*
X98806000Y-115316000D03*
X93726000Y-86360000D03*
X86106000Y-86360000D03*
X104648000Y-96774000D03*
X97028000Y-96774000D03*
X65786000Y-109728000D03*
X73406000Y-109728000D03*
X109220000Y-83566000D03*
X101600000Y-83566000D03*
X91186000Y-83566000D03*
X98806000Y-83566000D03*
X74930000Y-96012000D03*
X82550000Y-96012000D03*
X74930000Y-98806000D03*
X82550000Y-98806000D03*
X76200000Y-115316000D03*
X81280000Y-115316000D03*
X85852000Y-101600000D03*
X93472000Y-101600000D03*
X73406000Y-112522000D03*
X65786000Y-112522000D03*
X82550000Y-101600000D03*
X74930000Y-101600000D03*
D22*
X71374000Y-105410000D03*
D19*
X73914000Y-105410000D03*
X76454000Y-105410000D03*
D23*
X98298000Y-122174000D03*
X94996000Y-122174000D03*
X113030000Y-80518000D03*
X91694000Y-122174000D03*
X88138000Y-122174000D03*
X91694000Y-80518000D03*
X84836000Y-122174000D03*
X81534000Y-122174000D03*
X88138000Y-115316000D03*
X88138000Y-80518000D03*
X94996000Y-115316000D03*
X66802000Y-80518000D03*
X91694000Y-115316000D03*
X84836000Y-115316000D03*
D11*
X114046000Y-115316000D03*
D14*
X106426000Y-115316000D03*
X104140000Y-88138000D03*
D11*
X101600000Y-88138000D03*
D14*
X101600000Y-92456000D03*
D11*
X104140000Y-92456000D03*
D14*
X97536000Y-88138000D03*
D11*
X97536000Y-90678000D03*
D19*
X67056000Y-104394000D03*
D22*
X67056000Y-106934000D03*
D19*
X104648000Y-101600000D03*
D22*
X102108000Y-101600000D03*
D24*
X111506000Y-105410000D03*
D25*
X108966000Y-105410000D03*
D14*
X112776000Y-109728000D03*
X107696000Y-109728000D03*
X82804000Y-87376000D03*
X82804000Y-92456000D03*
X72136000Y-84074000D03*
X67056000Y-84074000D03*
D24*
X97536000Y-102600000D03*
D25*
X97536000Y-100600000D03*
D14*
X113284000Y-88646000D03*
X113284000Y-83566000D03*
X83312000Y-83566000D03*
X88392000Y-83566000D03*
D19*
X80010000Y-91694000D03*
D22*
X77470000Y-91694000D03*
D14*
X71882000Y-101600000D03*
X66802000Y-101600000D03*
X81280000Y-112522000D03*
X76200000Y-112522000D03*
D24*
X80740000Y-108712000D03*
D25*
X78740000Y-108712000D03*
D14*
X80518000Y-104394000D03*
X85598000Y-104394000D03*
M02*
