G04 #@! TF.GenerationSoftware,KiCad,Pcbnew,(5.1.8-0-10_14)*
G04 #@! TF.CreationDate,2020-11-14T19:44:57+01:00*
G04 #@! TF.ProjectId,fet-amplifier,6665742d-616d-4706-9c69-666965722e6b,rev?*
G04 #@! TF.SameCoordinates,Original*
G04 #@! TF.FileFunction,Profile,NP*
%FSLAX46Y46*%
G04 Gerber Fmt 4.6, Leading zero omitted, Abs format (unit mm)*
G04 Created by KiCad (PCBNEW (5.1.8-0-10_14)) date 2020-11-14 19:44:57*
%MOMM*%
%LPD*%
G01*
G04 APERTURE LIST*
G04 #@! TA.AperFunction,Profile*
%ADD10C,0.050000*%
G04 #@! TD*
G04 APERTURE END LIST*
D10*
X116078000Y-77978000D02*
X116078000Y-116078000D01*
X65024000Y-76454000D02*
X114808000Y-76708000D01*
X63754000Y-116078000D02*
X63754000Y-77724000D01*
X68834000Y-121158000D02*
X68834000Y-141478000D01*
X110490000Y-142494000D02*
X70104000Y-142748000D01*
X111760000Y-121158000D02*
X111760000Y-141224000D01*
X100838000Y-119888000D02*
X110490000Y-119888000D01*
X78994000Y-119888000D02*
X70104000Y-119888000D01*
X78994000Y-117348000D02*
X65024000Y-117348000D01*
X100838000Y-117348000D02*
X114808000Y-117348000D01*
X111760000Y-141224000D02*
G75*
G02*
X110490000Y-142494000I-1270000J0D01*
G01*
X70104000Y-142748000D02*
G75*
G02*
X68834000Y-141478000I0J1270000D01*
G01*
X68834000Y-121158000D02*
G75*
G02*
X70104000Y-119888000I1270000J0D01*
G01*
X110490000Y-119888000D02*
G75*
G02*
X111760000Y-121158000I0J-1270000D01*
G01*
X96266000Y-119888000D02*
X83566000Y-119888000D01*
X83566000Y-117348000D02*
X96266000Y-117348000D01*
X78994000Y-117348000D02*
G75*
G02*
X78994000Y-119888000I0J-1270000D01*
G01*
X83566000Y-119888000D02*
G75*
G02*
X83566000Y-117348000I0J1270000D01*
G01*
X96266000Y-117348000D02*
G75*
G02*
X96266000Y-119888000I0J-1270000D01*
G01*
X100838000Y-119888000D02*
G75*
G02*
X100838000Y-117348000I0J1270000D01*
G01*
X116078000Y-116078000D02*
G75*
G02*
X114808000Y-117348000I-1270000J0D01*
G01*
X65024000Y-117348000D02*
G75*
G02*
X63754000Y-116078000I0J1270000D01*
G01*
X63754000Y-77724000D02*
G75*
G02*
X65024000Y-76454000I1270000J0D01*
G01*
X114808000Y-76708000D02*
G75*
G02*
X116078000Y-77978000I0J-1270000D01*
G01*
M02*
