M48
; DRILL file {KiCad (5.1.8-0-10_14)} date Saturday, November 14, 2020 at 07:45:05 PM
; FORMAT={-:-/ absolute / inch / decimal}
; #@! TF.CreationDate,2020-11-14T19:45:05+01:00
; #@! TF.GenerationSoftware,Kicad,Pcbnew,(5.1.8-0-10_14)
; #@! TF.FileFunction,Plated,1,2,PTH
FMAT,2
INCH
T1C0.0394
T2C0.0472
T3C0.0551
T4C0.0945
T5C0.1102
%
G90
G05
T1
X4.29Y-4.15
X4.39Y-4.15
X4.19Y-4.54
X4.49Y-4.54
X4.06Y-5.43
X4.16Y-5.33
X4.26Y-5.43
X3.84Y-3.9606
X3.84Y-4.0394
X3.89Y-4.24
X3.89Y-4.54
X4.02Y-4.0
X4.12Y-4.0
X2.95Y-4.0
X3.25Y-4.0
X3.17Y-4.11
X3.37Y-4.11
X4.0Y-3.29
X4.3Y-3.29
X4.46Y-3.29
X4.46Y-3.49
X2.59Y-4.54
X2.89Y-4.54
X3.39Y-3.51
X3.39Y-3.81
X3.49Y-3.51
X3.49Y-3.81
X3.59Y-3.51
X3.59Y-3.81
X3.69Y-3.51
X3.69Y-3.81
X2.61Y-3.58
X2.61Y-3.88
X2.64Y-3.31
X2.84Y-3.31
X3.05Y-3.61
X3.15Y-3.61
X3.84Y-3.47
X3.84Y-3.57
X2.59Y-4.32
X2.89Y-4.32
X3.99Y-4.96
X4.29Y-4.96
X2.95Y-3.89
X3.25Y-3.89
X3.28Y-3.29
X3.48Y-3.29
X2.59Y-4.43
X2.89Y-4.43
X2.95Y-3.37
X2.95Y-3.67
X3.1Y-4.28
X3.1787Y-4.28
X3.26Y-3.44
X3.26Y-3.64
X4.0Y-3.64
X4.1Y-3.64
X2.95Y-3.78
X3.25Y-3.78
X3.82Y-3.81
X4.12Y-3.81
X3.38Y-4.0
X3.68Y-4.0
X4.19Y-4.43
X4.49Y-4.43
X3.0Y-4.43
X3.2Y-4.43
X3.59Y-3.29
X3.89Y-3.29
X2.64Y-4.11
X2.64Y-4.21
X3.39Y-3.4
X3.69Y-3.4
X3.0Y-4.54
X3.2Y-4.54
X4.0Y-3.47
X4.1Y-3.47
X4.24Y-4.32
X4.44Y-4.32
X4.1Y-5.21
X4.2Y-5.21
X2.63Y-4.0
X2.83Y-4.0
X4.0Y-4.24
X4.0Y-4.54
X2.81Y-4.15
X2.91Y-4.15
X3.01Y-4.15
T2
X4.45Y-3.17
X2.63Y-3.17
X3.21Y-4.81
X3.61Y-4.81
X3.61Y-4.54
X3.34Y-4.54
X3.47Y-4.54
X3.47Y-3.17
X3.47Y-4.81
X3.87Y-4.81
X3.74Y-4.81
X3.74Y-4.54
X3.61Y-3.17
X3.34Y-4.81
T3
X2.79Y-3.17
X2.99Y-3.17
X3.19Y-3.17
X3.89Y-3.17
X4.09Y-3.17
X4.29Y-3.17
X3.34Y-4.24
X3.54Y-4.24
X3.74Y-4.24
T4
X4.29Y-3.48
X4.29Y-3.665
X4.29Y-3.85
X2.79Y-3.48
X2.79Y-3.665
X2.79Y-3.85
T5
X3.34Y-5.02
X3.34Y-5.22
X3.34Y-5.42
X3.54Y-5.02
X3.54Y-5.22
X3.54Y-5.42
X3.74Y-5.02
X3.74Y-5.22
X3.74Y-5.42
T0
M30
