G04 #@! TF.GenerationSoftware,KiCad,Pcbnew,(5.1.8-0-10_14)*
G04 #@! TF.CreationDate,2020-11-14T19:44:57+01:00*
G04 #@! TF.ProjectId,fet-amplifier,6665742d-616d-4706-9c69-666965722e6b,rev?*
G04 #@! TF.SameCoordinates,Original*
G04 #@! TF.FileFunction,Legend,Top*
G04 #@! TF.FilePolarity,Positive*
%FSLAX46Y46*%
G04 Gerber Fmt 4.6, Leading zero omitted, Abs format (unit mm)*
G04 Created by KiCad (PCBNEW (5.1.8-0-10_14)) date 2020-11-14 19:44:57*
%MOMM*%
%LPD*%
G01*
G04 APERTURE LIST*
%ADD10C,0.127000*%
%ADD11C,0.010000*%
%ADD12C,0.100000*%
%ADD13C,0.152400*%
%ADD14C,0.304800*%
%ADD15C,0.150000*%
%ADD16C,0.101600*%
%ADD17C,0.073152*%
%ADD18C,0.081280*%
%ADD19C,0.097536*%
%ADD20C,0.121920*%
G04 APERTURE END LIST*
D10*
X103886000Y-131064000D02*
X103886000Y-129794000D01*
X106934000Y-131064000D02*
X106934000Y-129794000D01*
X107696000Y-130429000D02*
X107188000Y-130429000D01*
X103632000Y-130429000D02*
X103124000Y-130429000D01*
X103378000Y-130683000D02*
X103378000Y-130175000D01*
X107950000Y-129794000D02*
X107950000Y-131064000D01*
X106934000Y-129794000D02*
X107950000Y-129794000D01*
X103886000Y-129794000D02*
X106934000Y-129794000D01*
X102870000Y-129794000D02*
X103886000Y-129794000D01*
X102870000Y-130175000D02*
X102870000Y-129794000D01*
X102870000Y-130302000D02*
X102870000Y-130175000D01*
X102870000Y-130556000D02*
X102870000Y-130302000D01*
X102870000Y-131064000D02*
X102870000Y-130556000D01*
X102870000Y-133604000D02*
X105410000Y-133604000D01*
X105410000Y-131064000D02*
X105410000Y-133604000D01*
X102870000Y-133604000D02*
X102870000Y-131064000D01*
X107950000Y-133604000D02*
X105410000Y-133604000D01*
X107950000Y-131064000D02*
X107950000Y-133604000D01*
X106934000Y-131064000D02*
X107950000Y-131064000D01*
X105410000Y-131064000D02*
X106934000Y-131064000D01*
X103886000Y-131064000D02*
X105410000Y-131064000D01*
X102870000Y-131064000D02*
X103886000Y-131064000D01*
D11*
G36*
X79997392Y-130537811D02*
G01*
X80074493Y-130611254D01*
X80095760Y-130721260D01*
X80089487Y-130748842D01*
X80016834Y-130858501D01*
X79908944Y-130878354D01*
X79830912Y-130840740D01*
X79774218Y-130747123D01*
X79789430Y-130634595D01*
X79867760Y-130545986D01*
X79893952Y-130533426D01*
X79997392Y-130537811D01*
G37*
X79997392Y-130537811D02*
X80074493Y-130611254D01*
X80095760Y-130721260D01*
X80089487Y-130748842D01*
X80016834Y-130858501D01*
X79908944Y-130878354D01*
X79830912Y-130840740D01*
X79774218Y-130747123D01*
X79789430Y-130634595D01*
X79867760Y-130545986D01*
X79893952Y-130533426D01*
X79997392Y-130537811D01*
G36*
X80405272Y-130743296D02*
G01*
X80434855Y-130833485D01*
X80384287Y-130956568D01*
X80283060Y-131048831D01*
X80184966Y-131047508D01*
X80118010Y-130974377D01*
X80105172Y-130860414D01*
X80167362Y-130760448D01*
X80280234Y-130709625D01*
X80302265Y-130708400D01*
X80405272Y-130743296D01*
G37*
X80405272Y-130743296D02*
X80434855Y-130833485D01*
X80384287Y-130956568D01*
X80283060Y-131048831D01*
X80184966Y-131047508D01*
X80118010Y-130974377D01*
X80105172Y-130860414D01*
X80167362Y-130760448D01*
X80280234Y-130709625D01*
X80302265Y-130708400D01*
X80405272Y-130743296D01*
G36*
X80233830Y-130397423D02*
G01*
X80429100Y-130565504D01*
X80534129Y-130733010D01*
X80563630Y-130909906D01*
X80524764Y-131072809D01*
X80424691Y-131198338D01*
X80270571Y-131263110D01*
X80214219Y-131267200D01*
X80097641Y-131283061D01*
X80035400Y-131318000D01*
X79967076Y-131361906D01*
X79843316Y-131343520D01*
X79768700Y-131316416D01*
X79680293Y-131252241D01*
X79654400Y-131192636D01*
X79632935Y-131123914D01*
X79614043Y-131114800D01*
X79591061Y-131068783D01*
X79587472Y-131044308D01*
X79621441Y-131044308D01*
X79668517Y-131063173D01*
X79705200Y-131064000D01*
X79782326Y-131075139D01*
X79772176Y-131119908D01*
X79759753Y-131135677D01*
X79729979Y-131212024D01*
X79750411Y-131238345D01*
X79812109Y-131226590D01*
X79852933Y-131179368D01*
X79891421Y-131125999D01*
X79905941Y-131160580D01*
X79908470Y-131216400D01*
X79916771Y-131301359D01*
X79946046Y-131295464D01*
X79975467Y-131259489D01*
X80082424Y-131197630D01*
X80169797Y-131200525D01*
X80285833Y-131194507D01*
X80388032Y-131112832D01*
X80409145Y-131087084D01*
X80498427Y-130934310D01*
X80500766Y-130796836D01*
X80413157Y-130653450D01*
X80336582Y-130574698D01*
X80146088Y-130440741D01*
X79962606Y-130395614D01*
X79800343Y-130438934D01*
X79673507Y-130570319D01*
X79660843Y-130592929D01*
X79627084Y-130709019D01*
X79662882Y-130804704D01*
X79698397Y-130901577D01*
X79657823Y-130983674D01*
X79621441Y-131044308D01*
X79587472Y-131044308D01*
X79573620Y-130949858D01*
X79567002Y-130829331D01*
X79570744Y-130649515D01*
X79599515Y-130532577D01*
X79663911Y-130440828D01*
X79681250Y-130422931D01*
X79847011Y-130318572D01*
X80033589Y-130310523D01*
X80233830Y-130397423D01*
G37*
X80233830Y-130397423D02*
X80429100Y-130565504D01*
X80534129Y-130733010D01*
X80563630Y-130909906D01*
X80524764Y-131072809D01*
X80424691Y-131198338D01*
X80270571Y-131263110D01*
X80214219Y-131267200D01*
X80097641Y-131283061D01*
X80035400Y-131318000D01*
X79967076Y-131361906D01*
X79843316Y-131343520D01*
X79768700Y-131316416D01*
X79680293Y-131252241D01*
X79654400Y-131192636D01*
X79632935Y-131123914D01*
X79614043Y-131114800D01*
X79591061Y-131068783D01*
X79587472Y-131044308D01*
X79621441Y-131044308D01*
X79668517Y-131063173D01*
X79705200Y-131064000D01*
X79782326Y-131075139D01*
X79772176Y-131119908D01*
X79759753Y-131135677D01*
X79729979Y-131212024D01*
X79750411Y-131238345D01*
X79812109Y-131226590D01*
X79852933Y-131179368D01*
X79891421Y-131125999D01*
X79905941Y-131160580D01*
X79908470Y-131216400D01*
X79916771Y-131301359D01*
X79946046Y-131295464D01*
X79975467Y-131259489D01*
X80082424Y-131197630D01*
X80169797Y-131200525D01*
X80285833Y-131194507D01*
X80388032Y-131112832D01*
X80409145Y-131087084D01*
X80498427Y-130934310D01*
X80500766Y-130796836D01*
X80413157Y-130653450D01*
X80336582Y-130574698D01*
X80146088Y-130440741D01*
X79962606Y-130395614D01*
X79800343Y-130438934D01*
X79673507Y-130570319D01*
X79660843Y-130592929D01*
X79627084Y-130709019D01*
X79662882Y-130804704D01*
X79698397Y-130901577D01*
X79657823Y-130983674D01*
X79621441Y-131044308D01*
X79587472Y-131044308D01*
X79573620Y-130949858D01*
X79567002Y-130829331D01*
X79570744Y-130649515D01*
X79599515Y-130532577D01*
X79663911Y-130440828D01*
X79681250Y-130422931D01*
X79847011Y-130318572D01*
X80033589Y-130310523D01*
X80233830Y-130397423D01*
G36*
X74218800Y-133375400D02*
G01*
X74193400Y-133400800D01*
X74168000Y-133375400D01*
X74193400Y-133350000D01*
X74218800Y-133375400D01*
G37*
X74218800Y-133375400D02*
X74193400Y-133400800D01*
X74168000Y-133375400D01*
X74193400Y-133350000D01*
X74218800Y-133375400D01*
G36*
X75031600Y-133578600D02*
G01*
X75006200Y-133604000D01*
X74980800Y-133578600D01*
X75006200Y-133553200D01*
X75031600Y-133578600D01*
G37*
X75031600Y-133578600D02*
X75006200Y-133604000D01*
X74980800Y-133578600D01*
X75006200Y-133553200D01*
X75031600Y-133578600D01*
G36*
X75438000Y-133731000D02*
G01*
X75412600Y-133756400D01*
X75387200Y-133731000D01*
X75412600Y-133705600D01*
X75438000Y-133731000D01*
G37*
X75438000Y-133731000D02*
X75412600Y-133756400D01*
X75387200Y-133731000D01*
X75412600Y-133705600D01*
X75438000Y-133731000D01*
G36*
X75582550Y-134183349D02*
G01*
X75637087Y-134234499D01*
X75625899Y-134263905D01*
X75618798Y-134264400D01*
X75575830Y-134228317D01*
X75560149Y-134205750D01*
X75554161Y-134170988D01*
X75582550Y-134183349D01*
G37*
X75582550Y-134183349D02*
X75637087Y-134234499D01*
X75625899Y-134263905D01*
X75618798Y-134264400D01*
X75575830Y-134228317D01*
X75560149Y-134205750D01*
X75554161Y-134170988D01*
X75582550Y-134183349D01*
G36*
X76990153Y-132420134D02*
G01*
X77233057Y-132495225D01*
X77264068Y-132510387D01*
X77385907Y-132586965D01*
X77415965Y-132633915D01*
X77362129Y-132641344D01*
X77232283Y-132599358D01*
X77203300Y-132586631D01*
X76941500Y-132509471D01*
X76655709Y-132491938D01*
X76391708Y-132535566D01*
X76331569Y-132557416D01*
X76203234Y-132622195D01*
X76130392Y-132679714D01*
X76122841Y-132716303D01*
X76190375Y-132718291D01*
X76221143Y-132711529D01*
X76324585Y-132700288D01*
X76348649Y-132727125D01*
X76298521Y-132773800D01*
X76190637Y-132818794D01*
X76056625Y-132876725D01*
X76004124Y-132935149D01*
X76035484Y-132977844D01*
X76153055Y-132988591D01*
X76166180Y-132987591D01*
X76308757Y-132985711D01*
X76374153Y-133005052D01*
X76354169Y-133036972D01*
X76245906Y-133071674D01*
X76142614Y-133100194D01*
X76128093Y-133128035D01*
X76169753Y-133157292D01*
X76286010Y-133183809D01*
X76385799Y-133174731D01*
X76512111Y-133161552D01*
X76621503Y-133178801D01*
X76682243Y-133218147D01*
X76680339Y-133252057D01*
X76700266Y-133286981D01*
X76776968Y-133299200D01*
X76879047Y-133317626D01*
X76920025Y-133351076D01*
X76977419Y-133389999D01*
X77093159Y-133413884D01*
X77101946Y-133414576D01*
X77221048Y-133440226D01*
X77242278Y-133486589D01*
X77164019Y-133543267D01*
X77124483Y-133559411D01*
X77033393Y-133574074D01*
X77012800Y-133546055D01*
X76970896Y-133514128D01*
X76884684Y-133523540D01*
X76772363Y-133527165D01*
X76726849Y-133478247D01*
X76657140Y-133412934D01*
X76600964Y-133400800D01*
X76521523Y-133372468D01*
X76504800Y-133336145D01*
X76456899Y-133290016D01*
X76318321Y-133271705D01*
X76296176Y-133271490D01*
X76102128Y-133232413D01*
X75971360Y-133128598D01*
X75911287Y-132980167D01*
X75929325Y-132807245D01*
X76032887Y-132629954D01*
X76051981Y-132608736D01*
X76221956Y-132493072D01*
X76454826Y-132421474D01*
X76720817Y-132396355D01*
X76990153Y-132420134D01*
G37*
X76990153Y-132420134D02*
X77233057Y-132495225D01*
X77264068Y-132510387D01*
X77385907Y-132586965D01*
X77415965Y-132633915D01*
X77362129Y-132641344D01*
X77232283Y-132599358D01*
X77203300Y-132586631D01*
X76941500Y-132509471D01*
X76655709Y-132491938D01*
X76391708Y-132535566D01*
X76331569Y-132557416D01*
X76203234Y-132622195D01*
X76130392Y-132679714D01*
X76122841Y-132716303D01*
X76190375Y-132718291D01*
X76221143Y-132711529D01*
X76324585Y-132700288D01*
X76348649Y-132727125D01*
X76298521Y-132773800D01*
X76190637Y-132818794D01*
X76056625Y-132876725D01*
X76004124Y-132935149D01*
X76035484Y-132977844D01*
X76153055Y-132988591D01*
X76166180Y-132987591D01*
X76308757Y-132985711D01*
X76374153Y-133005052D01*
X76354169Y-133036972D01*
X76245906Y-133071674D01*
X76142614Y-133100194D01*
X76128093Y-133128035D01*
X76169753Y-133157292D01*
X76286010Y-133183809D01*
X76385799Y-133174731D01*
X76512111Y-133161552D01*
X76621503Y-133178801D01*
X76682243Y-133218147D01*
X76680339Y-133252057D01*
X76700266Y-133286981D01*
X76776968Y-133299200D01*
X76879047Y-133317626D01*
X76920025Y-133351076D01*
X76977419Y-133389999D01*
X77093159Y-133413884D01*
X77101946Y-133414576D01*
X77221048Y-133440226D01*
X77242278Y-133486589D01*
X77164019Y-133543267D01*
X77124483Y-133559411D01*
X77033393Y-133574074D01*
X77012800Y-133546055D01*
X76970896Y-133514128D01*
X76884684Y-133523540D01*
X76772363Y-133527165D01*
X76726849Y-133478247D01*
X76657140Y-133412934D01*
X76600964Y-133400800D01*
X76521523Y-133372468D01*
X76504800Y-133336145D01*
X76456899Y-133290016D01*
X76318321Y-133271705D01*
X76296176Y-133271490D01*
X76102128Y-133232413D01*
X75971360Y-133128598D01*
X75911287Y-132980167D01*
X75929325Y-132807245D01*
X76032887Y-132629954D01*
X76051981Y-132608736D01*
X76221956Y-132493072D01*
X76454826Y-132421474D01*
X76720817Y-132396355D01*
X76990153Y-132420134D01*
G36*
X78701543Y-133086630D02*
G01*
X78739292Y-133198426D01*
X78761679Y-133317493D01*
X78795081Y-133540237D01*
X79034240Y-133520422D01*
X79168057Y-133513332D01*
X79208969Y-133523371D01*
X79171800Y-133548680D01*
X79042061Y-133596843D01*
X78931567Y-133626475D01*
X78847372Y-133651886D01*
X78812380Y-133700187D01*
X78813734Y-133802219D01*
X78824172Y-133884099D01*
X78834772Y-134042234D01*
X78810013Y-134109069D01*
X78797704Y-134112000D01*
X78760068Y-134065890D01*
X78741019Y-133945051D01*
X78740000Y-133902336D01*
X78740000Y-133692673D01*
X78484479Y-133717225D01*
X78309537Y-133724019D01*
X78219741Y-133708660D01*
X78219392Y-133679828D01*
X78312791Y-133646205D01*
X78438382Y-133624182D01*
X78699107Y-133589596D01*
X78664386Y-133311701D01*
X78653893Y-133142660D01*
X78669677Y-133067839D01*
X78701543Y-133086630D01*
G37*
X78701543Y-133086630D02*
X78739292Y-133198426D01*
X78761679Y-133317493D01*
X78795081Y-133540237D01*
X79034240Y-133520422D01*
X79168057Y-133513332D01*
X79208969Y-133523371D01*
X79171800Y-133548680D01*
X79042061Y-133596843D01*
X78931567Y-133626475D01*
X78847372Y-133651886D01*
X78812380Y-133700187D01*
X78813734Y-133802219D01*
X78824172Y-133884099D01*
X78834772Y-134042234D01*
X78810013Y-134109069D01*
X78797704Y-134112000D01*
X78760068Y-134065890D01*
X78741019Y-133945051D01*
X78740000Y-133902336D01*
X78740000Y-133692673D01*
X78484479Y-133717225D01*
X78309537Y-133724019D01*
X78219741Y-133708660D01*
X78219392Y-133679828D01*
X78312791Y-133646205D01*
X78438382Y-133624182D01*
X78699107Y-133589596D01*
X78664386Y-133311701D01*
X78653893Y-133142660D01*
X78669677Y-133067839D01*
X78701543Y-133086630D01*
G36*
X78666881Y-134269000D02*
G01*
X78682241Y-134351902D01*
X78667614Y-134445087D01*
X78618931Y-134547090D01*
X78555872Y-134564183D01*
X78514667Y-134523687D01*
X78515772Y-134450581D01*
X78557133Y-134342103D01*
X78620474Y-134261349D01*
X78666881Y-134269000D01*
G37*
X78666881Y-134269000D02*
X78682241Y-134351902D01*
X78667614Y-134445087D01*
X78618931Y-134547090D01*
X78555872Y-134564183D01*
X78514667Y-134523687D01*
X78515772Y-134450581D01*
X78557133Y-134342103D01*
X78620474Y-134261349D01*
X78666881Y-134269000D01*
G36*
X75226950Y-134386549D02*
G01*
X75281487Y-134437699D01*
X75270299Y-134467105D01*
X75263198Y-134467600D01*
X75220230Y-134431517D01*
X75204549Y-134408950D01*
X75198561Y-134374188D01*
X75226950Y-134386549D01*
G37*
X75226950Y-134386549D02*
X75281487Y-134437699D01*
X75270299Y-134467105D01*
X75263198Y-134467600D01*
X75220230Y-134431517D01*
X75204549Y-134408950D01*
X75198561Y-134374188D01*
X75226950Y-134386549D01*
G36*
X77894365Y-129711513D02*
G01*
X77948179Y-129748798D01*
X78035608Y-129830567D01*
X78042336Y-129882606D01*
X78020382Y-129901877D01*
X77890115Y-129944283D01*
X77786939Y-129905007D01*
X77750843Y-129844800D01*
X77927200Y-129844800D01*
X77945786Y-129886614D01*
X77961066Y-129878666D01*
X77967146Y-129818378D01*
X77961066Y-129810933D01*
X77930866Y-129817906D01*
X77927200Y-129844800D01*
X77750843Y-129844800D01*
X77747776Y-129839686D01*
X77740440Y-129760133D01*
X77791733Y-129760133D01*
X77798706Y-129790333D01*
X77825600Y-129794000D01*
X77867414Y-129775413D01*
X77859466Y-129760133D01*
X77799178Y-129754053D01*
X77791733Y-129760133D01*
X77740440Y-129760133D01*
X77737074Y-129723632D01*
X77790591Y-129678797D01*
X77894365Y-129711513D01*
G37*
X77894365Y-129711513D02*
X77948179Y-129748798D01*
X78035608Y-129830567D01*
X78042336Y-129882606D01*
X78020382Y-129901877D01*
X77890115Y-129944283D01*
X77786939Y-129905007D01*
X77750843Y-129844800D01*
X77927200Y-129844800D01*
X77945786Y-129886614D01*
X77961066Y-129878666D01*
X77967146Y-129818378D01*
X77961066Y-129810933D01*
X77930866Y-129817906D01*
X77927200Y-129844800D01*
X77750843Y-129844800D01*
X77747776Y-129839686D01*
X77740440Y-129760133D01*
X77791733Y-129760133D01*
X77798706Y-129790333D01*
X77825600Y-129794000D01*
X77867414Y-129775413D01*
X77859466Y-129760133D01*
X77799178Y-129754053D01*
X77791733Y-129760133D01*
X77740440Y-129760133D01*
X77737074Y-129723632D01*
X77790591Y-129678797D01*
X77894365Y-129711513D01*
G36*
X78507074Y-130636207D02*
G01*
X78570218Y-130713395D01*
X78576064Y-130754189D01*
X78521340Y-130814534D01*
X78420842Y-130846842D01*
X78329560Y-130836068D01*
X78315269Y-130825535D01*
X78284612Y-130741332D01*
X78295447Y-130638161D01*
X78353981Y-130638161D01*
X78384400Y-130683000D01*
X78459570Y-130746961D01*
X78495848Y-130759200D01*
X78504856Y-130730664D01*
X78467857Y-130683000D01*
X78391234Y-130621119D01*
X78356408Y-130606800D01*
X78353981Y-130638161D01*
X78295447Y-130638161D01*
X78295543Y-130637255D01*
X78331533Y-130582677D01*
X78412976Y-130582438D01*
X78507074Y-130636207D01*
G37*
X78507074Y-130636207D02*
X78570218Y-130713395D01*
X78576064Y-130754189D01*
X78521340Y-130814534D01*
X78420842Y-130846842D01*
X78329560Y-130836068D01*
X78315269Y-130825535D01*
X78284612Y-130741332D01*
X78295447Y-130638161D01*
X78353981Y-130638161D01*
X78384400Y-130683000D01*
X78459570Y-130746961D01*
X78495848Y-130759200D01*
X78504856Y-130730664D01*
X78467857Y-130683000D01*
X78391234Y-130621119D01*
X78356408Y-130606800D01*
X78353981Y-130638161D01*
X78295447Y-130638161D01*
X78295543Y-130637255D01*
X78331533Y-130582677D01*
X78412976Y-130582438D01*
X78507074Y-130636207D01*
G36*
X80252250Y-132318542D02*
G01*
X80264000Y-132356875D01*
X80303749Y-132441029D01*
X80350500Y-132478959D01*
X80408049Y-132530022D01*
X80379306Y-132596604D01*
X80369680Y-132608483D01*
X80309374Y-132669694D01*
X80246696Y-132679457D01*
X80138343Y-132642843D01*
X80124300Y-132637216D01*
X80060996Y-132588000D01*
X80213200Y-132588000D01*
X80230532Y-132637479D01*
X80235601Y-132638800D01*
X80278973Y-132603202D01*
X80289400Y-132588000D01*
X80285372Y-132541188D01*
X80266998Y-132537200D01*
X80215267Y-132574076D01*
X80213200Y-132588000D01*
X80060996Y-132588000D01*
X80028576Y-132562795D01*
X80017007Y-132442792D01*
X80017366Y-132441596D01*
X80111600Y-132441596D01*
X80142899Y-132469138D01*
X80162400Y-132461000D01*
X80211303Y-132393704D01*
X80213200Y-132378803D01*
X80181900Y-132351261D01*
X80162400Y-132359400D01*
X80113496Y-132426695D01*
X80111600Y-132441596D01*
X80017366Y-132441596D01*
X80040835Y-132363554D01*
X80101039Y-132301205D01*
X80186389Y-132285756D01*
X80252250Y-132318542D01*
G37*
X80252250Y-132318542D02*
X80264000Y-132356875D01*
X80303749Y-132441029D01*
X80350500Y-132478959D01*
X80408049Y-132530022D01*
X80379306Y-132596604D01*
X80369680Y-132608483D01*
X80309374Y-132669694D01*
X80246696Y-132679457D01*
X80138343Y-132642843D01*
X80124300Y-132637216D01*
X80060996Y-132588000D01*
X80213200Y-132588000D01*
X80230532Y-132637479D01*
X80235601Y-132638800D01*
X80278973Y-132603202D01*
X80289400Y-132588000D01*
X80285372Y-132541188D01*
X80266998Y-132537200D01*
X80215267Y-132574076D01*
X80213200Y-132588000D01*
X80060996Y-132588000D01*
X80028576Y-132562795D01*
X80017007Y-132442792D01*
X80017366Y-132441596D01*
X80111600Y-132441596D01*
X80142899Y-132469138D01*
X80162400Y-132461000D01*
X80211303Y-132393704D01*
X80213200Y-132378803D01*
X80181900Y-132351261D01*
X80162400Y-132359400D01*
X80113496Y-132426695D01*
X80111600Y-132441596D01*
X80017366Y-132441596D01*
X80040835Y-132363554D01*
X80101039Y-132301205D01*
X80186389Y-132285756D01*
X80252250Y-132318542D01*
G36*
X80293595Y-133250601D02*
G01*
X80334769Y-133274913D01*
X80426121Y-133358047D01*
X80466961Y-133440441D01*
X80447771Y-133494553D01*
X80413401Y-133502400D01*
X80383062Y-133471278D01*
X80391000Y-133451600D01*
X80390078Y-133404653D01*
X80374033Y-133400800D01*
X80315801Y-133441300D01*
X80296429Y-133477000D01*
X80243182Y-133547609D01*
X80185332Y-133524257D01*
X80139695Y-133418852D01*
X80133848Y-133330321D01*
X80179862Y-133330321D01*
X80187800Y-133350000D01*
X80233449Y-133398462D01*
X80241598Y-133400800D01*
X80263417Y-133361496D01*
X80264000Y-133350000D01*
X80224947Y-133301152D01*
X80210201Y-133299200D01*
X80179862Y-133330321D01*
X80133848Y-133330321D01*
X80130735Y-133283208D01*
X80184813Y-133225075D01*
X80293595Y-133250601D01*
G37*
X80293595Y-133250601D02*
X80334769Y-133274913D01*
X80426121Y-133358047D01*
X80466961Y-133440441D01*
X80447771Y-133494553D01*
X80413401Y-133502400D01*
X80383062Y-133471278D01*
X80391000Y-133451600D01*
X80390078Y-133404653D01*
X80374033Y-133400800D01*
X80315801Y-133441300D01*
X80296429Y-133477000D01*
X80243182Y-133547609D01*
X80185332Y-133524257D01*
X80139695Y-133418852D01*
X80133848Y-133330321D01*
X80179862Y-133330321D01*
X80187800Y-133350000D01*
X80233449Y-133398462D01*
X80241598Y-133400800D01*
X80263417Y-133361496D01*
X80264000Y-133350000D01*
X80224947Y-133301152D01*
X80210201Y-133299200D01*
X80179862Y-133330321D01*
X80133848Y-133330321D01*
X80130735Y-133283208D01*
X80184813Y-133225075D01*
X80293595Y-133250601D01*
G36*
X76726068Y-129889163D02*
G01*
X76901616Y-130022036D01*
X77027256Y-130243089D01*
X77091331Y-130481555D01*
X77127625Y-130637601D01*
X77170330Y-130763781D01*
X77178021Y-130780023D01*
X77221584Y-130845994D01*
X77257761Y-130822647D01*
X77275458Y-130792723D01*
X77367364Y-130726791D01*
X77499555Y-130708399D01*
X77780452Y-130754186D01*
X78014735Y-130884878D01*
X78192058Y-131090471D01*
X78302072Y-131360962D01*
X78327718Y-131508920D01*
X78354723Y-131685559D01*
X78392924Y-131781322D01*
X78448858Y-131816595D01*
X78530357Y-131791380D01*
X78604557Y-131675459D01*
X78614132Y-131653323D01*
X78707142Y-131507225D01*
X78830706Y-131400014D01*
X78838552Y-131395775D01*
X78973887Y-131311436D01*
X79017601Y-131230915D01*
X78975427Y-131128968D01*
X78916398Y-131053070D01*
X78821931Y-130890968D01*
X78809431Y-130715928D01*
X78880611Y-130513967D01*
X79007325Y-130311892D01*
X79164077Y-130119973D01*
X79312421Y-130009051D01*
X79480047Y-129965151D01*
X79679800Y-129972491D01*
X79931619Y-130023740D01*
X80166498Y-130122807D01*
X80407864Y-130282453D01*
X80679143Y-130515443D01*
X80683100Y-130519132D01*
X80844070Y-130671521D01*
X80944637Y-130779240D01*
X80999006Y-130866584D01*
X81021381Y-130957846D01*
X81025967Y-131077322D01*
X81026000Y-131105596D01*
X80990180Y-131418230D01*
X80885261Y-131668646D01*
X80773535Y-131800600D01*
X80683248Y-131859438D01*
X80560472Y-131890329D01*
X80374445Y-131900045D01*
X80322023Y-131900014D01*
X80018882Y-131870660D01*
X79732251Y-131779332D01*
X79428561Y-131614861D01*
X79389433Y-131589715D01*
X79289908Y-131532102D01*
X79227716Y-131533082D01*
X79160833Y-131589020D01*
X79044450Y-131690959D01*
X78970247Y-131746835D01*
X78915120Y-131792374D01*
X78923998Y-131828019D01*
X79009622Y-131872877D01*
X79071847Y-131899190D01*
X79272251Y-132016944D01*
X79487181Y-132198288D01*
X79688587Y-132414562D01*
X79848420Y-132637107D01*
X79910137Y-132755698D01*
X79959779Y-132882999D01*
X79988761Y-133001176D01*
X79999816Y-133139210D01*
X79995674Y-133326083D01*
X79983205Y-133530952D01*
X79964896Y-133767932D01*
X79946397Y-133919151D01*
X79924049Y-134000390D01*
X79894195Y-134027426D01*
X79869026Y-134023408D01*
X79814739Y-134021036D01*
X79816167Y-134090711D01*
X79820327Y-134107444D01*
X79828842Y-134188758D01*
X79783057Y-134195571D01*
X79772037Y-134191636D01*
X79717371Y-134189663D01*
X79725698Y-134244546D01*
X79730671Y-134302752D01*
X79664066Y-134302781D01*
X79647371Y-134298642D01*
X79523174Y-134300444D01*
X79397949Y-134341867D01*
X79251742Y-134398715D01*
X79078421Y-134442475D01*
X79057992Y-134445982D01*
X78891959Y-134497954D01*
X78783770Y-134603714D01*
X78770387Y-134625235D01*
X78666479Y-134742666D01*
X78543703Y-134763545D01*
X78390687Y-134689806D01*
X78390638Y-134689772D01*
X78303905Y-134595567D01*
X78299389Y-134473552D01*
X78304560Y-134395513D01*
X78271003Y-134332226D01*
X78180450Y-134263257D01*
X78037753Y-134180888D01*
X77823106Y-134081053D01*
X77582840Y-133996179D01*
X77444600Y-133960791D01*
X77245818Y-133915752D01*
X76984161Y-133849234D01*
X76693614Y-133770428D01*
X76408162Y-133688526D01*
X76184298Y-133619953D01*
X76104324Y-133625974D01*
X76060899Y-133711030D01*
X76004664Y-133861727D01*
X75910289Y-134056692D01*
X75798210Y-134258435D01*
X75688863Y-134429468D01*
X75624893Y-134510840D01*
X75498658Y-134612837D01*
X75309191Y-134727735D01*
X75090384Y-134838613D01*
X74876130Y-134928549D01*
X74700321Y-134980624D01*
X74676000Y-134984587D01*
X74517955Y-134991551D01*
X74321209Y-134982000D01*
X74230949Y-134972048D01*
X74052250Y-134935945D01*
X73897970Y-134884880D01*
X73843129Y-134856763D01*
X73822658Y-134836082D01*
X74229723Y-134836082D01*
X74271799Y-134863768D01*
X74295000Y-134874000D01*
X74390938Y-134913333D01*
X74416467Y-134912111D01*
X74396600Y-134874000D01*
X74324384Y-134831325D01*
X74279301Y-134826770D01*
X74229723Y-134836082D01*
X73822658Y-134836082D01*
X73708687Y-134720945D01*
X73614493Y-134557316D01*
X73742953Y-134557316D01*
X73788939Y-134653209D01*
X73815826Y-134689018D01*
X73924459Y-134796424D01*
X74025295Y-134815731D01*
X74111008Y-134777301D01*
X74112329Y-134775672D01*
X74462145Y-134775672D01*
X74480158Y-134806666D01*
X74574764Y-134855889D01*
X74718045Y-134871501D01*
X74862241Y-134851866D01*
X74930000Y-134822048D01*
X74971244Y-134777289D01*
X74939767Y-134723554D01*
X74882429Y-134675764D01*
X74791115Y-134615673D01*
X74712280Y-134610492D01*
X74595998Y-134657446D01*
X74591467Y-134659604D01*
X74484591Y-134722270D01*
X74462145Y-134775672D01*
X74112329Y-134775672D01*
X74151124Y-134727853D01*
X74130193Y-134653031D01*
X74041564Y-134533100D01*
X74020223Y-134507900D01*
X73911719Y-134425560D01*
X73811507Y-134443908D01*
X73767560Y-134485818D01*
X73742953Y-134557316D01*
X73614493Y-134557316D01*
X73590607Y-134515823D01*
X73502805Y-134273667D01*
X73476414Y-134124234D01*
X73563706Y-134124234D01*
X73580098Y-134237136D01*
X73608906Y-134353289D01*
X73648075Y-134388229D01*
X73714779Y-134363870D01*
X73743006Y-134345981D01*
X74054279Y-134345981D01*
X74106943Y-134463224D01*
X74147405Y-134514846D01*
X74238020Y-134610738D01*
X74302568Y-134657906D01*
X74314008Y-134658600D01*
X74378190Y-134626056D01*
X74485500Y-134572115D01*
X74580921Y-134515626D01*
X74906314Y-134515626D01*
X74924557Y-134569650D01*
X75009831Y-134634315D01*
X75017030Y-134638172D01*
X75180475Y-134676762D01*
X75326300Y-134626539D01*
X75395199Y-134553501D01*
X75407938Y-134455620D01*
X75344953Y-134367226D01*
X75303854Y-134344887D01*
X75208749Y-134348530D01*
X75078882Y-134394221D01*
X74960161Y-134462243D01*
X74906314Y-134515626D01*
X74580921Y-134515626D01*
X74582940Y-134514431D01*
X74623716Y-134472669D01*
X74623710Y-134472145D01*
X74591582Y-134419661D01*
X74512377Y-134322527D01*
X74470714Y-134275631D01*
X74363653Y-134172445D01*
X74285443Y-134141170D01*
X74226726Y-134158558D01*
X74092718Y-134251114D01*
X74054279Y-134345981D01*
X73743006Y-134345981D01*
X73777862Y-134323892D01*
X73784547Y-134278785D01*
X73733544Y-134194926D01*
X73706841Y-134157240D01*
X73619776Y-134053036D01*
X73572360Y-134041848D01*
X73563706Y-134124234D01*
X73476414Y-134124234D01*
X73459195Y-134026742D01*
X73456799Y-133960929D01*
X73461213Y-133918696D01*
X73660128Y-133918696D01*
X73766895Y-134068637D01*
X73844749Y-134162550D01*
X73900348Y-134202581D01*
X73906531Y-134201759D01*
X73971558Y-134168920D01*
X74079100Y-134114915D01*
X74114089Y-134095065D01*
X74451272Y-134095065D01*
X74505904Y-134166961D01*
X74578944Y-134243688D01*
X74691057Y-134355890D01*
X74763241Y-134404032D01*
X74826785Y-134396510D01*
X74912982Y-134341723D01*
X74921643Y-134335655D01*
X74999549Y-134273038D01*
X74999107Y-134261256D01*
X75442375Y-134261256D01*
X75494435Y-134351278D01*
X75497681Y-134354561D01*
X75550971Y-134373414D01*
X75618183Y-134318199D01*
X75675481Y-134240416D01*
X75749200Y-134125927D01*
X75790438Y-134050229D01*
X75793600Y-134039317D01*
X75753454Y-134041248D01*
X75653383Y-134079525D01*
X75615800Y-134096830D01*
X75481175Y-134180049D01*
X75442375Y-134261256D01*
X74999107Y-134261256D01*
X74997844Y-134227652D01*
X74945647Y-134180452D01*
X74888536Y-134131505D01*
X74911356Y-134135177D01*
X74972450Y-134164113D01*
X75082454Y-134201865D01*
X75118327Y-134177755D01*
X75079447Y-134100061D01*
X74985103Y-133996071D01*
X74867732Y-133898432D01*
X74802422Y-133883144D01*
X74792974Y-133896100D01*
X74727893Y-133953616D01*
X74693827Y-133959600D01*
X74589757Y-133982649D01*
X74514839Y-134015088D01*
X74456617Y-134052882D01*
X74451272Y-134095065D01*
X74114089Y-134095065D01*
X74179768Y-134057804D01*
X74207041Y-134004516D01*
X74163615Y-133924207D01*
X74102493Y-133847468D01*
X73989841Y-133709936D01*
X73824984Y-133814316D01*
X73660128Y-133918696D01*
X73461213Y-133918696D01*
X73479832Y-133740578D01*
X73558400Y-133740578D01*
X73569676Y-133795478D01*
X73617449Y-133795447D01*
X73722635Y-133738355D01*
X73750687Y-133720975D01*
X73809063Y-133684573D01*
X74111438Y-133684573D01*
X74219097Y-133821440D01*
X74294143Y-133907317D01*
X74359854Y-133931358D01*
X74459685Y-133902433D01*
X74511469Y-133881129D01*
X74634640Y-133826665D01*
X74657778Y-133814731D01*
X74986726Y-133814731D01*
X75119160Y-133963365D01*
X75206106Y-134057653D01*
X75259075Y-134108903D01*
X75264442Y-134112000D01*
X75315998Y-134096494D01*
X75357353Y-134081276D01*
X75412257Y-134033766D01*
X75409669Y-134005658D01*
X75419846Y-133978937D01*
X75448061Y-133985048D01*
X75545079Y-133981548D01*
X75589068Y-133961742D01*
X75629558Y-133917626D01*
X75604718Y-133856069D01*
X75546455Y-133789097D01*
X75468825Y-133714537D01*
X75399856Y-133689881D01*
X75299440Y-133709242D01*
X75207849Y-133739387D01*
X74986726Y-133814731D01*
X74657778Y-133814731D01*
X74710735Y-133787418D01*
X74718371Y-133781761D01*
X74709774Y-133728718D01*
X74659141Y-133635307D01*
X74564263Y-133543123D01*
X74475031Y-133537897D01*
X74406611Y-133579658D01*
X74405020Y-133617624D01*
X74404643Y-133646488D01*
X74383740Y-133637150D01*
X74297370Y-133626631D01*
X74220610Y-133644188D01*
X74111438Y-133684573D01*
X73809063Y-133684573D01*
X73849900Y-133659108D01*
X73901736Y-133627094D01*
X73902495Y-133626646D01*
X73903023Y-133579475D01*
X73866245Y-133505053D01*
X73819492Y-133454517D01*
X73808943Y-133451600D01*
X73737815Y-133489543D01*
X73650419Y-133577772D01*
X73580054Y-133677878D01*
X73558400Y-133740578D01*
X73479832Y-133740578D01*
X73481286Y-133726669D01*
X73561073Y-133528480D01*
X73705652Y-133357595D01*
X73710355Y-133354321D01*
X73921924Y-133354321D01*
X73949225Y-133422517D01*
X73962471Y-133447249D01*
X74002318Y-133518921D01*
X74041120Y-133544915D01*
X74111306Y-133528580D01*
X74239158Y-133475832D01*
X74307979Y-133442320D01*
X74689929Y-133442320D01*
X74705813Y-133497200D01*
X74759907Y-133573529D01*
X74824842Y-133661730D01*
X74873072Y-133694706D01*
X74943393Y-133680050D01*
X75014205Y-133650519D01*
X75578566Y-133650519D01*
X75630132Y-133712569D01*
X75742305Y-133794025D01*
X75843217Y-133786196D01*
X75873505Y-133768322D01*
X75950021Y-133675609D01*
X75958535Y-133573300D01*
X75906708Y-133507830D01*
X75795116Y-133493345D01*
X75681851Y-133541875D01*
X75590522Y-133603080D01*
X75578566Y-133650519D01*
X75014205Y-133650519D01*
X75058631Y-133631992D01*
X75189680Y-133564084D01*
X75227237Y-133498558D01*
X75177327Y-133417326D01*
X75141588Y-133382991D01*
X75059816Y-133330255D01*
X74962962Y-133331409D01*
X74874888Y-133357259D01*
X74741673Y-133404354D01*
X74689929Y-133442320D01*
X74307979Y-133442320D01*
X74355654Y-133419105D01*
X74393306Y-133367875D01*
X74370575Y-133298032D01*
X74283299Y-133211601D01*
X74154809Y-133211955D01*
X74050360Y-133255281D01*
X73950022Y-133310837D01*
X73921924Y-133354321D01*
X73710355Y-133354321D01*
X73924513Y-133205245D01*
X74036866Y-133152311D01*
X74431535Y-133152311D01*
X74483406Y-133246506D01*
X74551789Y-133309516D01*
X74597706Y-133303621D01*
X74629796Y-133288165D01*
X75210474Y-133288165D01*
X75275502Y-133364630D01*
X75291517Y-133381699D01*
X75389867Y-133458871D01*
X75472675Y-133480066D01*
X75477816Y-133478497D01*
X75571778Y-133453594D01*
X75594554Y-133451600D01*
X75638910Y-133427105D01*
X75603521Y-133362600D01*
X75511622Y-133283388D01*
X75368375Y-133219965D01*
X75280274Y-133224690D01*
X75212772Y-133251394D01*
X75210474Y-133288165D01*
X74629796Y-133288165D01*
X74682630Y-133262718D01*
X74802938Y-133225864D01*
X74902062Y-133196209D01*
X74913535Y-133164844D01*
X74867228Y-133124937D01*
X74812179Y-133058096D01*
X74816489Y-133019383D01*
X74809491Y-132999963D01*
X74760180Y-133011922D01*
X74634206Y-133051787D01*
X74544280Y-133076323D01*
X74447451Y-133107169D01*
X74431535Y-133152311D01*
X74036866Y-133152311D01*
X74227147Y-133062663D01*
X74463820Y-132976666D01*
X74941532Y-132976666D01*
X74974205Y-133048389D01*
X74988375Y-133065325D01*
X75070692Y-133137067D01*
X75133235Y-133127886D01*
X75149810Y-133113256D01*
X75139669Y-133063569D01*
X75078791Y-133006474D01*
X74981997Y-132959046D01*
X74941532Y-132976666D01*
X74463820Y-132976666D01*
X74560073Y-132941692D01*
X74750933Y-132874165D01*
X74865908Y-132818377D01*
X74927168Y-132759465D01*
X74956884Y-132682569D01*
X74958722Y-132674472D01*
X74957754Y-132527962D01*
X74887533Y-132418742D01*
X74750651Y-132218363D01*
X74699027Y-132018535D01*
X74705850Y-131962373D01*
X74777600Y-131962373D01*
X74814139Y-132098591D01*
X74914952Y-132278679D01*
X75066829Y-132480789D01*
X75143978Y-132568409D01*
X75244468Y-132685042D01*
X75300538Y-132765690D01*
X75302229Y-132791200D01*
X75227749Y-132759152D01*
X75198586Y-132734666D01*
X75118218Y-132706172D01*
X75047517Y-132743933D01*
X75031599Y-132792305D01*
X75073482Y-132848525D01*
X75186698Y-132939828D01*
X75352598Y-133054118D01*
X75552531Y-133179299D01*
X75767848Y-133303277D01*
X75979900Y-133413955D01*
X76019757Y-133433184D01*
X76220032Y-133515491D01*
X76484490Y-133606289D01*
X76777684Y-133694167D01*
X77045464Y-133763364D01*
X77391423Y-133853863D01*
X77705928Y-133953788D01*
X77959658Y-134053488D01*
X78030854Y-134087660D01*
X78203477Y-134173791D01*
X78309314Y-134215693D01*
X78370535Y-134218226D01*
X78409309Y-134186249D01*
X78418596Y-134172655D01*
X78477109Y-134107709D01*
X78506442Y-134122859D01*
X78502257Y-134199687D01*
X78460218Y-134319774D01*
X78455570Y-134329693D01*
X78407465Y-134465738D01*
X78397092Y-134574437D01*
X78400998Y-134589982D01*
X78470867Y-134658522D01*
X78573863Y-134661658D01*
X78667609Y-134601970D01*
X78687412Y-134572539D01*
X78728205Y-134446266D01*
X78741615Y-134331239D01*
X78747736Y-134236667D01*
X78772825Y-134231904D01*
X78810715Y-134277100D01*
X78929266Y-134353743D01*
X79103269Y-134348868D01*
X79325669Y-134263650D01*
X79463352Y-134206588D01*
X79571192Y-134184607D01*
X79596067Y-134188026D01*
X79643288Y-134183552D01*
X79634080Y-134132320D01*
X79629827Y-134073538D01*
X79678278Y-134078986D01*
X79734968Y-134074490D01*
X79742354Y-133995742D01*
X79754532Y-133912683D01*
X79788216Y-133894138D01*
X79825847Y-133852543D01*
X79865401Y-133724908D01*
X79901397Y-133531289D01*
X79926324Y-133187425D01*
X79882745Y-132898176D01*
X79762744Y-132636602D01*
X79563429Y-132381210D01*
X79322764Y-132119476D01*
X79145682Y-132218042D01*
X79021994Y-132305882D01*
X78966218Y-132412531D01*
X78952833Y-132503104D01*
X78929527Y-132624113D01*
X78891871Y-132687064D01*
X78882726Y-132689600D01*
X78851397Y-132642838D01*
X78849314Y-132511057D01*
X78853824Y-132463914D01*
X78860863Y-132308938D01*
X78834116Y-132229078D01*
X78805476Y-132209914D01*
X78703201Y-132183849D01*
X78612517Y-132200204D01*
X78517960Y-132270458D01*
X78404068Y-132406091D01*
X78255728Y-132618064D01*
X78083927Y-132860996D01*
X77946393Y-133021539D01*
X77831386Y-133107891D01*
X77727167Y-133128250D01*
X77621996Y-133090815D01*
X77599080Y-133076634D01*
X77489656Y-132959046D01*
X77479151Y-132844214D01*
X77583194Y-132844214D01*
X77588181Y-132954184D01*
X77630655Y-133001291D01*
X77729447Y-133033851D01*
X77832037Y-132994276D01*
X77954245Y-132874177D01*
X78015647Y-132797155D01*
X78119889Y-132643842D01*
X78152398Y-132560603D01*
X78119756Y-132552784D01*
X78028540Y-132625734D01*
X77932052Y-132729230D01*
X77824936Y-132841207D01*
X77742413Y-132905919D01*
X77709509Y-132912176D01*
X77721113Y-132858902D01*
X77787759Y-132758757D01*
X77855862Y-132677528D01*
X77967422Y-132539846D01*
X78003561Y-132463205D01*
X77967650Y-132452801D01*
X77863061Y-132513833D01*
X77787269Y-132571791D01*
X77651925Y-132710255D01*
X77583194Y-132844214D01*
X77479151Y-132844214D01*
X77476651Y-132816894D01*
X77559494Y-132655869D01*
X77651417Y-132555898D01*
X77766787Y-132456108D01*
X77856487Y-132394451D01*
X77883440Y-132384800D01*
X77911333Y-132345311D01*
X77902732Y-132286136D01*
X77907264Y-132233557D01*
X77961377Y-132233557D01*
X78080143Y-132359978D01*
X78187016Y-132459360D01*
X78253935Y-132476975D01*
X78297895Y-132415194D01*
X78306073Y-132391499D01*
X78366270Y-132285297D01*
X78440177Y-132202495D01*
X78504591Y-132137905D01*
X78498770Y-132099524D01*
X78411461Y-132060393D01*
X78375380Y-132047260D01*
X78287871Y-132007602D01*
X78278331Y-131984325D01*
X78292192Y-131982264D01*
X78403931Y-131996950D01*
X78508092Y-132027942D01*
X78608224Y-132051196D01*
X78632877Y-132033658D01*
X78699696Y-132033658D01*
X78756639Y-132103866D01*
X78784952Y-132126230D01*
X78881659Y-132185126D01*
X78967836Y-132181984D01*
X79052186Y-132144900D01*
X79144307Y-132083092D01*
X79172172Y-132030605D01*
X79170551Y-132027180D01*
X79093052Y-131978158D01*
X78962317Y-131948424D01*
X78825647Y-131943521D01*
X78730341Y-131968994D01*
X78723505Y-131974777D01*
X78699696Y-132033658D01*
X78632877Y-132033658D01*
X78638400Y-132029729D01*
X78593353Y-131963164D01*
X78481033Y-131907539D01*
X78335670Y-131878219D01*
X78297691Y-131876800D01*
X78184859Y-131900041D01*
X78098331Y-131986190D01*
X78057440Y-132055178D01*
X77961377Y-132233557D01*
X77907264Y-132233557D01*
X77911307Y-132186672D01*
X77966313Y-132047552D01*
X78047613Y-131905881D01*
X78107428Y-131832621D01*
X78631912Y-131832621D01*
X78635960Y-131898258D01*
X78693113Y-131881313D01*
X78794464Y-131779398D01*
X78890295Y-131679877D01*
X78967013Y-131625964D01*
X78980762Y-131622800D01*
X79046345Y-131585338D01*
X79129729Y-131494479D01*
X79134808Y-131487605D01*
X79233291Y-131352410D01*
X79407190Y-131485049D01*
X79675598Y-131653214D01*
X79959132Y-131767922D01*
X80236907Y-131825426D01*
X80488033Y-131821982D01*
X80691626Y-131753843D01*
X80736329Y-131723403D01*
X80831434Y-131600340D01*
X80908905Y-131414844D01*
X80957743Y-131205864D01*
X80966954Y-131012350D01*
X80956225Y-130944514D01*
X80895565Y-130839163D01*
X80769244Y-130699538D01*
X80598810Y-130543490D01*
X80405810Y-130388872D01*
X80211793Y-130253535D01*
X80038306Y-130155331D01*
X79969244Y-130126826D01*
X79719530Y-130064936D01*
X79489613Y-130049899D01*
X79328261Y-130078870D01*
X79237062Y-130150742D01*
X79129828Y-130286685D01*
X79025900Y-130455527D01*
X78944621Y-130626098D01*
X78906317Y-130758898D01*
X78907006Y-130908483D01*
X78968516Y-131014367D01*
X78988976Y-131034054D01*
X79084478Y-131168893D01*
X79085934Y-131300511D01*
X78995967Y-131408886D01*
X78935655Y-131440956D01*
X78784601Y-131550445D01*
X78687393Y-131689776D01*
X78631912Y-131832621D01*
X78107428Y-131832621D01*
X78135074Y-131798761D01*
X78185337Y-131765354D01*
X78213579Y-131722335D01*
X78180452Y-131621026D01*
X78162875Y-131585683D01*
X78073835Y-131441323D01*
X77992885Y-131391758D01*
X77900289Y-131434066D01*
X77804140Y-131532587D01*
X77598387Y-131725127D01*
X77400526Y-131817029D01*
X77208566Y-131808775D01*
X77040354Y-131717018D01*
X76948008Y-131627037D01*
X76939974Y-131597268D01*
X77028799Y-131597268D01*
X77050742Y-131630262D01*
X77116319Y-131661495D01*
X77198488Y-131613150D01*
X77206099Y-131606359D01*
X77306367Y-131540486D01*
X77372400Y-131522329D01*
X77392317Y-131547163D01*
X77329809Y-131613054D01*
X77317600Y-131622800D01*
X77190600Y-131722140D01*
X77339931Y-131723270D01*
X77443201Y-131704196D01*
X77554276Y-131635374D01*
X77695559Y-131501826D01*
X77737176Y-131457700D01*
X77985090Y-131191000D01*
X78242016Y-131495800D01*
X78208974Y-131349465D01*
X78105992Y-131112450D01*
X77923560Y-130933642D01*
X77843322Y-130887880D01*
X77693998Y-130833069D01*
X77557370Y-130811849D01*
X77460890Y-130825179D01*
X77431900Y-130873500D01*
X77401219Y-130919979D01*
X77330300Y-130924898D01*
X77236159Y-130942299D01*
X77216000Y-130988398D01*
X77191037Y-131055655D01*
X77170169Y-131064000D01*
X77123565Y-131106721D01*
X77073417Y-131210193D01*
X77071095Y-131216733D01*
X77040327Y-131320536D01*
X77061834Y-131353747D01*
X77152296Y-131340939D01*
X77155026Y-131340360D01*
X77292200Y-131311253D01*
X77140843Y-131440129D01*
X77046469Y-131533721D01*
X77028799Y-131597268D01*
X76939974Y-131597268D01*
X76921830Y-131530049D01*
X76933841Y-131424918D01*
X76956841Y-131267280D01*
X76969083Y-131133843D01*
X76969311Y-131127500D01*
X76988556Y-131038182D01*
X77016579Y-131013200D01*
X77039908Y-130975748D01*
X77031170Y-130937000D01*
X77034233Y-130871802D01*
X77059952Y-130860800D01*
X77092442Y-130834126D01*
X77065387Y-130762539D01*
X77022572Y-130630843D01*
X77012800Y-130541520D01*
X76976548Y-130321111D01*
X76879668Y-130140955D01*
X76739973Y-130013212D01*
X76575275Y-129950043D01*
X76403388Y-129963607D01*
X76273729Y-130036990D01*
X76168736Y-130145437D01*
X76141391Y-130245519D01*
X76194065Y-130358909D01*
X76324702Y-130502945D01*
X76542792Y-130716984D01*
X76416273Y-130852392D01*
X76293855Y-130992712D01*
X76150055Y-131171074D01*
X76006096Y-131359591D01*
X75883201Y-131530378D01*
X75802595Y-131655548D01*
X75796439Y-131666806D01*
X75760534Y-131772863D01*
X75768519Y-131900842D01*
X75794676Y-132007644D01*
X75825559Y-132179299D01*
X75824914Y-132335168D01*
X75795682Y-132446913D01*
X75745025Y-132486400D01*
X75721079Y-132442772D01*
X75723173Y-132335712D01*
X75726154Y-132315294D01*
X75720614Y-132112476D01*
X75647956Y-131930128D01*
X75525932Y-131780014D01*
X75372297Y-131673894D01*
X75204805Y-131623530D01*
X75041210Y-131640684D01*
X74899265Y-131737117D01*
X74882887Y-131756650D01*
X74809921Y-131869589D01*
X74777682Y-131959420D01*
X74777600Y-131962373D01*
X74705850Y-131962373D01*
X74721415Y-131834267D01*
X74806567Y-131680565D01*
X74943237Y-131572437D01*
X75120178Y-131524889D01*
X75326145Y-131552929D01*
X75481829Y-131625727D01*
X75591578Y-131687911D01*
X75655875Y-131715330D01*
X75661742Y-131714437D01*
X75820837Y-131466293D01*
X76019502Y-131189325D01*
X76179834Y-130984067D01*
X76419934Y-130689290D01*
X76233767Y-130528361D01*
X76090642Y-130364502D01*
X76048624Y-130206528D01*
X76107524Y-130052424D01*
X76182017Y-129969374D01*
X76362580Y-129863730D01*
X76500914Y-129844799D01*
X76726068Y-129889163D01*
G37*
X76726068Y-129889163D02*
X76901616Y-130022036D01*
X77027256Y-130243089D01*
X77091331Y-130481555D01*
X77127625Y-130637601D01*
X77170330Y-130763781D01*
X77178021Y-130780023D01*
X77221584Y-130845994D01*
X77257761Y-130822647D01*
X77275458Y-130792723D01*
X77367364Y-130726791D01*
X77499555Y-130708399D01*
X77780452Y-130754186D01*
X78014735Y-130884878D01*
X78192058Y-131090471D01*
X78302072Y-131360962D01*
X78327718Y-131508920D01*
X78354723Y-131685559D01*
X78392924Y-131781322D01*
X78448858Y-131816595D01*
X78530357Y-131791380D01*
X78604557Y-131675459D01*
X78614132Y-131653323D01*
X78707142Y-131507225D01*
X78830706Y-131400014D01*
X78838552Y-131395775D01*
X78973887Y-131311436D01*
X79017601Y-131230915D01*
X78975427Y-131128968D01*
X78916398Y-131053070D01*
X78821931Y-130890968D01*
X78809431Y-130715928D01*
X78880611Y-130513967D01*
X79007325Y-130311892D01*
X79164077Y-130119973D01*
X79312421Y-130009051D01*
X79480047Y-129965151D01*
X79679800Y-129972491D01*
X79931619Y-130023740D01*
X80166498Y-130122807D01*
X80407864Y-130282453D01*
X80679143Y-130515443D01*
X80683100Y-130519132D01*
X80844070Y-130671521D01*
X80944637Y-130779240D01*
X80999006Y-130866584D01*
X81021381Y-130957846D01*
X81025967Y-131077322D01*
X81026000Y-131105596D01*
X80990180Y-131418230D01*
X80885261Y-131668646D01*
X80773535Y-131800600D01*
X80683248Y-131859438D01*
X80560472Y-131890329D01*
X80374445Y-131900045D01*
X80322023Y-131900014D01*
X80018882Y-131870660D01*
X79732251Y-131779332D01*
X79428561Y-131614861D01*
X79389433Y-131589715D01*
X79289908Y-131532102D01*
X79227716Y-131533082D01*
X79160833Y-131589020D01*
X79044450Y-131690959D01*
X78970247Y-131746835D01*
X78915120Y-131792374D01*
X78923998Y-131828019D01*
X79009622Y-131872877D01*
X79071847Y-131899190D01*
X79272251Y-132016944D01*
X79487181Y-132198288D01*
X79688587Y-132414562D01*
X79848420Y-132637107D01*
X79910137Y-132755698D01*
X79959779Y-132882999D01*
X79988761Y-133001176D01*
X79999816Y-133139210D01*
X79995674Y-133326083D01*
X79983205Y-133530952D01*
X79964896Y-133767932D01*
X79946397Y-133919151D01*
X79924049Y-134000390D01*
X79894195Y-134027426D01*
X79869026Y-134023408D01*
X79814739Y-134021036D01*
X79816167Y-134090711D01*
X79820327Y-134107444D01*
X79828842Y-134188758D01*
X79783057Y-134195571D01*
X79772037Y-134191636D01*
X79717371Y-134189663D01*
X79725698Y-134244546D01*
X79730671Y-134302752D01*
X79664066Y-134302781D01*
X79647371Y-134298642D01*
X79523174Y-134300444D01*
X79397949Y-134341867D01*
X79251742Y-134398715D01*
X79078421Y-134442475D01*
X79057992Y-134445982D01*
X78891959Y-134497954D01*
X78783770Y-134603714D01*
X78770387Y-134625235D01*
X78666479Y-134742666D01*
X78543703Y-134763545D01*
X78390687Y-134689806D01*
X78390638Y-134689772D01*
X78303905Y-134595567D01*
X78299389Y-134473552D01*
X78304560Y-134395513D01*
X78271003Y-134332226D01*
X78180450Y-134263257D01*
X78037753Y-134180888D01*
X77823106Y-134081053D01*
X77582840Y-133996179D01*
X77444600Y-133960791D01*
X77245818Y-133915752D01*
X76984161Y-133849234D01*
X76693614Y-133770428D01*
X76408162Y-133688526D01*
X76184298Y-133619953D01*
X76104324Y-133625974D01*
X76060899Y-133711030D01*
X76004664Y-133861727D01*
X75910289Y-134056692D01*
X75798210Y-134258435D01*
X75688863Y-134429468D01*
X75624893Y-134510840D01*
X75498658Y-134612837D01*
X75309191Y-134727735D01*
X75090384Y-134838613D01*
X74876130Y-134928549D01*
X74700321Y-134980624D01*
X74676000Y-134984587D01*
X74517955Y-134991551D01*
X74321209Y-134982000D01*
X74230949Y-134972048D01*
X74052250Y-134935945D01*
X73897970Y-134884880D01*
X73843129Y-134856763D01*
X73822658Y-134836082D01*
X74229723Y-134836082D01*
X74271799Y-134863768D01*
X74295000Y-134874000D01*
X74390938Y-134913333D01*
X74416467Y-134912111D01*
X74396600Y-134874000D01*
X74324384Y-134831325D01*
X74279301Y-134826770D01*
X74229723Y-134836082D01*
X73822658Y-134836082D01*
X73708687Y-134720945D01*
X73614493Y-134557316D01*
X73742953Y-134557316D01*
X73788939Y-134653209D01*
X73815826Y-134689018D01*
X73924459Y-134796424D01*
X74025295Y-134815731D01*
X74111008Y-134777301D01*
X74112329Y-134775672D01*
X74462145Y-134775672D01*
X74480158Y-134806666D01*
X74574764Y-134855889D01*
X74718045Y-134871501D01*
X74862241Y-134851866D01*
X74930000Y-134822048D01*
X74971244Y-134777289D01*
X74939767Y-134723554D01*
X74882429Y-134675764D01*
X74791115Y-134615673D01*
X74712280Y-134610492D01*
X74595998Y-134657446D01*
X74591467Y-134659604D01*
X74484591Y-134722270D01*
X74462145Y-134775672D01*
X74112329Y-134775672D01*
X74151124Y-134727853D01*
X74130193Y-134653031D01*
X74041564Y-134533100D01*
X74020223Y-134507900D01*
X73911719Y-134425560D01*
X73811507Y-134443908D01*
X73767560Y-134485818D01*
X73742953Y-134557316D01*
X73614493Y-134557316D01*
X73590607Y-134515823D01*
X73502805Y-134273667D01*
X73476414Y-134124234D01*
X73563706Y-134124234D01*
X73580098Y-134237136D01*
X73608906Y-134353289D01*
X73648075Y-134388229D01*
X73714779Y-134363870D01*
X73743006Y-134345981D01*
X74054279Y-134345981D01*
X74106943Y-134463224D01*
X74147405Y-134514846D01*
X74238020Y-134610738D01*
X74302568Y-134657906D01*
X74314008Y-134658600D01*
X74378190Y-134626056D01*
X74485500Y-134572115D01*
X74580921Y-134515626D01*
X74906314Y-134515626D01*
X74924557Y-134569650D01*
X75009831Y-134634315D01*
X75017030Y-134638172D01*
X75180475Y-134676762D01*
X75326300Y-134626539D01*
X75395199Y-134553501D01*
X75407938Y-134455620D01*
X75344953Y-134367226D01*
X75303854Y-134344887D01*
X75208749Y-134348530D01*
X75078882Y-134394221D01*
X74960161Y-134462243D01*
X74906314Y-134515626D01*
X74580921Y-134515626D01*
X74582940Y-134514431D01*
X74623716Y-134472669D01*
X74623710Y-134472145D01*
X74591582Y-134419661D01*
X74512377Y-134322527D01*
X74470714Y-134275631D01*
X74363653Y-134172445D01*
X74285443Y-134141170D01*
X74226726Y-134158558D01*
X74092718Y-134251114D01*
X74054279Y-134345981D01*
X73743006Y-134345981D01*
X73777862Y-134323892D01*
X73784547Y-134278785D01*
X73733544Y-134194926D01*
X73706841Y-134157240D01*
X73619776Y-134053036D01*
X73572360Y-134041848D01*
X73563706Y-134124234D01*
X73476414Y-134124234D01*
X73459195Y-134026742D01*
X73456799Y-133960929D01*
X73461213Y-133918696D01*
X73660128Y-133918696D01*
X73766895Y-134068637D01*
X73844749Y-134162550D01*
X73900348Y-134202581D01*
X73906531Y-134201759D01*
X73971558Y-134168920D01*
X74079100Y-134114915D01*
X74114089Y-134095065D01*
X74451272Y-134095065D01*
X74505904Y-134166961D01*
X74578944Y-134243688D01*
X74691057Y-134355890D01*
X74763241Y-134404032D01*
X74826785Y-134396510D01*
X74912982Y-134341723D01*
X74921643Y-134335655D01*
X74999549Y-134273038D01*
X74999107Y-134261256D01*
X75442375Y-134261256D01*
X75494435Y-134351278D01*
X75497681Y-134354561D01*
X75550971Y-134373414D01*
X75618183Y-134318199D01*
X75675481Y-134240416D01*
X75749200Y-134125927D01*
X75790438Y-134050229D01*
X75793600Y-134039317D01*
X75753454Y-134041248D01*
X75653383Y-134079525D01*
X75615800Y-134096830D01*
X75481175Y-134180049D01*
X75442375Y-134261256D01*
X74999107Y-134261256D01*
X74997844Y-134227652D01*
X74945647Y-134180452D01*
X74888536Y-134131505D01*
X74911356Y-134135177D01*
X74972450Y-134164113D01*
X75082454Y-134201865D01*
X75118327Y-134177755D01*
X75079447Y-134100061D01*
X74985103Y-133996071D01*
X74867732Y-133898432D01*
X74802422Y-133883144D01*
X74792974Y-133896100D01*
X74727893Y-133953616D01*
X74693827Y-133959600D01*
X74589757Y-133982649D01*
X74514839Y-134015088D01*
X74456617Y-134052882D01*
X74451272Y-134095065D01*
X74114089Y-134095065D01*
X74179768Y-134057804D01*
X74207041Y-134004516D01*
X74163615Y-133924207D01*
X74102493Y-133847468D01*
X73989841Y-133709936D01*
X73824984Y-133814316D01*
X73660128Y-133918696D01*
X73461213Y-133918696D01*
X73479832Y-133740578D01*
X73558400Y-133740578D01*
X73569676Y-133795478D01*
X73617449Y-133795447D01*
X73722635Y-133738355D01*
X73750687Y-133720975D01*
X73809063Y-133684573D01*
X74111438Y-133684573D01*
X74219097Y-133821440D01*
X74294143Y-133907317D01*
X74359854Y-133931358D01*
X74459685Y-133902433D01*
X74511469Y-133881129D01*
X74634640Y-133826665D01*
X74657778Y-133814731D01*
X74986726Y-133814731D01*
X75119160Y-133963365D01*
X75206106Y-134057653D01*
X75259075Y-134108903D01*
X75264442Y-134112000D01*
X75315998Y-134096494D01*
X75357353Y-134081276D01*
X75412257Y-134033766D01*
X75409669Y-134005658D01*
X75419846Y-133978937D01*
X75448061Y-133985048D01*
X75545079Y-133981548D01*
X75589068Y-133961742D01*
X75629558Y-133917626D01*
X75604718Y-133856069D01*
X75546455Y-133789097D01*
X75468825Y-133714537D01*
X75399856Y-133689881D01*
X75299440Y-133709242D01*
X75207849Y-133739387D01*
X74986726Y-133814731D01*
X74657778Y-133814731D01*
X74710735Y-133787418D01*
X74718371Y-133781761D01*
X74709774Y-133728718D01*
X74659141Y-133635307D01*
X74564263Y-133543123D01*
X74475031Y-133537897D01*
X74406611Y-133579658D01*
X74405020Y-133617624D01*
X74404643Y-133646488D01*
X74383740Y-133637150D01*
X74297370Y-133626631D01*
X74220610Y-133644188D01*
X74111438Y-133684573D01*
X73809063Y-133684573D01*
X73849900Y-133659108D01*
X73901736Y-133627094D01*
X73902495Y-133626646D01*
X73903023Y-133579475D01*
X73866245Y-133505053D01*
X73819492Y-133454517D01*
X73808943Y-133451600D01*
X73737815Y-133489543D01*
X73650419Y-133577772D01*
X73580054Y-133677878D01*
X73558400Y-133740578D01*
X73479832Y-133740578D01*
X73481286Y-133726669D01*
X73561073Y-133528480D01*
X73705652Y-133357595D01*
X73710355Y-133354321D01*
X73921924Y-133354321D01*
X73949225Y-133422517D01*
X73962471Y-133447249D01*
X74002318Y-133518921D01*
X74041120Y-133544915D01*
X74111306Y-133528580D01*
X74239158Y-133475832D01*
X74307979Y-133442320D01*
X74689929Y-133442320D01*
X74705813Y-133497200D01*
X74759907Y-133573529D01*
X74824842Y-133661730D01*
X74873072Y-133694706D01*
X74943393Y-133680050D01*
X75014205Y-133650519D01*
X75578566Y-133650519D01*
X75630132Y-133712569D01*
X75742305Y-133794025D01*
X75843217Y-133786196D01*
X75873505Y-133768322D01*
X75950021Y-133675609D01*
X75958535Y-133573300D01*
X75906708Y-133507830D01*
X75795116Y-133493345D01*
X75681851Y-133541875D01*
X75590522Y-133603080D01*
X75578566Y-133650519D01*
X75014205Y-133650519D01*
X75058631Y-133631992D01*
X75189680Y-133564084D01*
X75227237Y-133498558D01*
X75177327Y-133417326D01*
X75141588Y-133382991D01*
X75059816Y-133330255D01*
X74962962Y-133331409D01*
X74874888Y-133357259D01*
X74741673Y-133404354D01*
X74689929Y-133442320D01*
X74307979Y-133442320D01*
X74355654Y-133419105D01*
X74393306Y-133367875D01*
X74370575Y-133298032D01*
X74283299Y-133211601D01*
X74154809Y-133211955D01*
X74050360Y-133255281D01*
X73950022Y-133310837D01*
X73921924Y-133354321D01*
X73710355Y-133354321D01*
X73924513Y-133205245D01*
X74036866Y-133152311D01*
X74431535Y-133152311D01*
X74483406Y-133246506D01*
X74551789Y-133309516D01*
X74597706Y-133303621D01*
X74629796Y-133288165D01*
X75210474Y-133288165D01*
X75275502Y-133364630D01*
X75291517Y-133381699D01*
X75389867Y-133458871D01*
X75472675Y-133480066D01*
X75477816Y-133478497D01*
X75571778Y-133453594D01*
X75594554Y-133451600D01*
X75638910Y-133427105D01*
X75603521Y-133362600D01*
X75511622Y-133283388D01*
X75368375Y-133219965D01*
X75280274Y-133224690D01*
X75212772Y-133251394D01*
X75210474Y-133288165D01*
X74629796Y-133288165D01*
X74682630Y-133262718D01*
X74802938Y-133225864D01*
X74902062Y-133196209D01*
X74913535Y-133164844D01*
X74867228Y-133124937D01*
X74812179Y-133058096D01*
X74816489Y-133019383D01*
X74809491Y-132999963D01*
X74760180Y-133011922D01*
X74634206Y-133051787D01*
X74544280Y-133076323D01*
X74447451Y-133107169D01*
X74431535Y-133152311D01*
X74036866Y-133152311D01*
X74227147Y-133062663D01*
X74463820Y-132976666D01*
X74941532Y-132976666D01*
X74974205Y-133048389D01*
X74988375Y-133065325D01*
X75070692Y-133137067D01*
X75133235Y-133127886D01*
X75149810Y-133113256D01*
X75139669Y-133063569D01*
X75078791Y-133006474D01*
X74981997Y-132959046D01*
X74941532Y-132976666D01*
X74463820Y-132976666D01*
X74560073Y-132941692D01*
X74750933Y-132874165D01*
X74865908Y-132818377D01*
X74927168Y-132759465D01*
X74956884Y-132682569D01*
X74958722Y-132674472D01*
X74957754Y-132527962D01*
X74887533Y-132418742D01*
X74750651Y-132218363D01*
X74699027Y-132018535D01*
X74705850Y-131962373D01*
X74777600Y-131962373D01*
X74814139Y-132098591D01*
X74914952Y-132278679D01*
X75066829Y-132480789D01*
X75143978Y-132568409D01*
X75244468Y-132685042D01*
X75300538Y-132765690D01*
X75302229Y-132791200D01*
X75227749Y-132759152D01*
X75198586Y-132734666D01*
X75118218Y-132706172D01*
X75047517Y-132743933D01*
X75031599Y-132792305D01*
X75073482Y-132848525D01*
X75186698Y-132939828D01*
X75352598Y-133054118D01*
X75552531Y-133179299D01*
X75767848Y-133303277D01*
X75979900Y-133413955D01*
X76019757Y-133433184D01*
X76220032Y-133515491D01*
X76484490Y-133606289D01*
X76777684Y-133694167D01*
X77045464Y-133763364D01*
X77391423Y-133853863D01*
X77705928Y-133953788D01*
X77959658Y-134053488D01*
X78030854Y-134087660D01*
X78203477Y-134173791D01*
X78309314Y-134215693D01*
X78370535Y-134218226D01*
X78409309Y-134186249D01*
X78418596Y-134172655D01*
X78477109Y-134107709D01*
X78506442Y-134122859D01*
X78502257Y-134199687D01*
X78460218Y-134319774D01*
X78455570Y-134329693D01*
X78407465Y-134465738D01*
X78397092Y-134574437D01*
X78400998Y-134589982D01*
X78470867Y-134658522D01*
X78573863Y-134661658D01*
X78667609Y-134601970D01*
X78687412Y-134572539D01*
X78728205Y-134446266D01*
X78741615Y-134331239D01*
X78747736Y-134236667D01*
X78772825Y-134231904D01*
X78810715Y-134277100D01*
X78929266Y-134353743D01*
X79103269Y-134348868D01*
X79325669Y-134263650D01*
X79463352Y-134206588D01*
X79571192Y-134184607D01*
X79596067Y-134188026D01*
X79643288Y-134183552D01*
X79634080Y-134132320D01*
X79629827Y-134073538D01*
X79678278Y-134078986D01*
X79734968Y-134074490D01*
X79742354Y-133995742D01*
X79754532Y-133912683D01*
X79788216Y-133894138D01*
X79825847Y-133852543D01*
X79865401Y-133724908D01*
X79901397Y-133531289D01*
X79926324Y-133187425D01*
X79882745Y-132898176D01*
X79762744Y-132636602D01*
X79563429Y-132381210D01*
X79322764Y-132119476D01*
X79145682Y-132218042D01*
X79021994Y-132305882D01*
X78966218Y-132412531D01*
X78952833Y-132503104D01*
X78929527Y-132624113D01*
X78891871Y-132687064D01*
X78882726Y-132689600D01*
X78851397Y-132642838D01*
X78849314Y-132511057D01*
X78853824Y-132463914D01*
X78860863Y-132308938D01*
X78834116Y-132229078D01*
X78805476Y-132209914D01*
X78703201Y-132183849D01*
X78612517Y-132200204D01*
X78517960Y-132270458D01*
X78404068Y-132406091D01*
X78255728Y-132618064D01*
X78083927Y-132860996D01*
X77946393Y-133021539D01*
X77831386Y-133107891D01*
X77727167Y-133128250D01*
X77621996Y-133090815D01*
X77599080Y-133076634D01*
X77489656Y-132959046D01*
X77479151Y-132844214D01*
X77583194Y-132844214D01*
X77588181Y-132954184D01*
X77630655Y-133001291D01*
X77729447Y-133033851D01*
X77832037Y-132994276D01*
X77954245Y-132874177D01*
X78015647Y-132797155D01*
X78119889Y-132643842D01*
X78152398Y-132560603D01*
X78119756Y-132552784D01*
X78028540Y-132625734D01*
X77932052Y-132729230D01*
X77824936Y-132841207D01*
X77742413Y-132905919D01*
X77709509Y-132912176D01*
X77721113Y-132858902D01*
X77787759Y-132758757D01*
X77855862Y-132677528D01*
X77967422Y-132539846D01*
X78003561Y-132463205D01*
X77967650Y-132452801D01*
X77863061Y-132513833D01*
X77787269Y-132571791D01*
X77651925Y-132710255D01*
X77583194Y-132844214D01*
X77479151Y-132844214D01*
X77476651Y-132816894D01*
X77559494Y-132655869D01*
X77651417Y-132555898D01*
X77766787Y-132456108D01*
X77856487Y-132394451D01*
X77883440Y-132384800D01*
X77911333Y-132345311D01*
X77902732Y-132286136D01*
X77907264Y-132233557D01*
X77961377Y-132233557D01*
X78080143Y-132359978D01*
X78187016Y-132459360D01*
X78253935Y-132476975D01*
X78297895Y-132415194D01*
X78306073Y-132391499D01*
X78366270Y-132285297D01*
X78440177Y-132202495D01*
X78504591Y-132137905D01*
X78498770Y-132099524D01*
X78411461Y-132060393D01*
X78375380Y-132047260D01*
X78287871Y-132007602D01*
X78278331Y-131984325D01*
X78292192Y-131982264D01*
X78403931Y-131996950D01*
X78508092Y-132027942D01*
X78608224Y-132051196D01*
X78632877Y-132033658D01*
X78699696Y-132033658D01*
X78756639Y-132103866D01*
X78784952Y-132126230D01*
X78881659Y-132185126D01*
X78967836Y-132181984D01*
X79052186Y-132144900D01*
X79144307Y-132083092D01*
X79172172Y-132030605D01*
X79170551Y-132027180D01*
X79093052Y-131978158D01*
X78962317Y-131948424D01*
X78825647Y-131943521D01*
X78730341Y-131968994D01*
X78723505Y-131974777D01*
X78699696Y-132033658D01*
X78632877Y-132033658D01*
X78638400Y-132029729D01*
X78593353Y-131963164D01*
X78481033Y-131907539D01*
X78335670Y-131878219D01*
X78297691Y-131876800D01*
X78184859Y-131900041D01*
X78098331Y-131986190D01*
X78057440Y-132055178D01*
X77961377Y-132233557D01*
X77907264Y-132233557D01*
X77911307Y-132186672D01*
X77966313Y-132047552D01*
X78047613Y-131905881D01*
X78107428Y-131832621D01*
X78631912Y-131832621D01*
X78635960Y-131898258D01*
X78693113Y-131881313D01*
X78794464Y-131779398D01*
X78890295Y-131679877D01*
X78967013Y-131625964D01*
X78980762Y-131622800D01*
X79046345Y-131585338D01*
X79129729Y-131494479D01*
X79134808Y-131487605D01*
X79233291Y-131352410D01*
X79407190Y-131485049D01*
X79675598Y-131653214D01*
X79959132Y-131767922D01*
X80236907Y-131825426D01*
X80488033Y-131821982D01*
X80691626Y-131753843D01*
X80736329Y-131723403D01*
X80831434Y-131600340D01*
X80908905Y-131414844D01*
X80957743Y-131205864D01*
X80966954Y-131012350D01*
X80956225Y-130944514D01*
X80895565Y-130839163D01*
X80769244Y-130699538D01*
X80598810Y-130543490D01*
X80405810Y-130388872D01*
X80211793Y-130253535D01*
X80038306Y-130155331D01*
X79969244Y-130126826D01*
X79719530Y-130064936D01*
X79489613Y-130049899D01*
X79328261Y-130078870D01*
X79237062Y-130150742D01*
X79129828Y-130286685D01*
X79025900Y-130455527D01*
X78944621Y-130626098D01*
X78906317Y-130758898D01*
X78907006Y-130908483D01*
X78968516Y-131014367D01*
X78988976Y-131034054D01*
X79084478Y-131168893D01*
X79085934Y-131300511D01*
X78995967Y-131408886D01*
X78935655Y-131440956D01*
X78784601Y-131550445D01*
X78687393Y-131689776D01*
X78631912Y-131832621D01*
X78107428Y-131832621D01*
X78135074Y-131798761D01*
X78185337Y-131765354D01*
X78213579Y-131722335D01*
X78180452Y-131621026D01*
X78162875Y-131585683D01*
X78073835Y-131441323D01*
X77992885Y-131391758D01*
X77900289Y-131434066D01*
X77804140Y-131532587D01*
X77598387Y-131725127D01*
X77400526Y-131817029D01*
X77208566Y-131808775D01*
X77040354Y-131717018D01*
X76948008Y-131627037D01*
X76939974Y-131597268D01*
X77028799Y-131597268D01*
X77050742Y-131630262D01*
X77116319Y-131661495D01*
X77198488Y-131613150D01*
X77206099Y-131606359D01*
X77306367Y-131540486D01*
X77372400Y-131522329D01*
X77392317Y-131547163D01*
X77329809Y-131613054D01*
X77317600Y-131622800D01*
X77190600Y-131722140D01*
X77339931Y-131723270D01*
X77443201Y-131704196D01*
X77554276Y-131635374D01*
X77695559Y-131501826D01*
X77737176Y-131457700D01*
X77985090Y-131191000D01*
X78242016Y-131495800D01*
X78208974Y-131349465D01*
X78105992Y-131112450D01*
X77923560Y-130933642D01*
X77843322Y-130887880D01*
X77693998Y-130833069D01*
X77557370Y-130811849D01*
X77460890Y-130825179D01*
X77431900Y-130873500D01*
X77401219Y-130919979D01*
X77330300Y-130924898D01*
X77236159Y-130942299D01*
X77216000Y-130988398D01*
X77191037Y-131055655D01*
X77170169Y-131064000D01*
X77123565Y-131106721D01*
X77073417Y-131210193D01*
X77071095Y-131216733D01*
X77040327Y-131320536D01*
X77061834Y-131353747D01*
X77152296Y-131340939D01*
X77155026Y-131340360D01*
X77292200Y-131311253D01*
X77140843Y-131440129D01*
X77046469Y-131533721D01*
X77028799Y-131597268D01*
X76939974Y-131597268D01*
X76921830Y-131530049D01*
X76933841Y-131424918D01*
X76956841Y-131267280D01*
X76969083Y-131133843D01*
X76969311Y-131127500D01*
X76988556Y-131038182D01*
X77016579Y-131013200D01*
X77039908Y-130975748D01*
X77031170Y-130937000D01*
X77034233Y-130871802D01*
X77059952Y-130860800D01*
X77092442Y-130834126D01*
X77065387Y-130762539D01*
X77022572Y-130630843D01*
X77012800Y-130541520D01*
X76976548Y-130321111D01*
X76879668Y-130140955D01*
X76739973Y-130013212D01*
X76575275Y-129950043D01*
X76403388Y-129963607D01*
X76273729Y-130036990D01*
X76168736Y-130145437D01*
X76141391Y-130245519D01*
X76194065Y-130358909D01*
X76324702Y-130502945D01*
X76542792Y-130716984D01*
X76416273Y-130852392D01*
X76293855Y-130992712D01*
X76150055Y-131171074D01*
X76006096Y-131359591D01*
X75883201Y-131530378D01*
X75802595Y-131655548D01*
X75796439Y-131666806D01*
X75760534Y-131772863D01*
X75768519Y-131900842D01*
X75794676Y-132007644D01*
X75825559Y-132179299D01*
X75824914Y-132335168D01*
X75795682Y-132446913D01*
X75745025Y-132486400D01*
X75721079Y-132442772D01*
X75723173Y-132335712D01*
X75726154Y-132315294D01*
X75720614Y-132112476D01*
X75647956Y-131930128D01*
X75525932Y-131780014D01*
X75372297Y-131673894D01*
X75204805Y-131623530D01*
X75041210Y-131640684D01*
X74899265Y-131737117D01*
X74882887Y-131756650D01*
X74809921Y-131869589D01*
X74777682Y-131959420D01*
X74777600Y-131962373D01*
X74705850Y-131962373D01*
X74721415Y-131834267D01*
X74806567Y-131680565D01*
X74943237Y-131572437D01*
X75120178Y-131524889D01*
X75326145Y-131552929D01*
X75481829Y-131625727D01*
X75591578Y-131687911D01*
X75655875Y-131715330D01*
X75661742Y-131714437D01*
X75820837Y-131466293D01*
X76019502Y-131189325D01*
X76179834Y-130984067D01*
X76419934Y-130689290D01*
X76233767Y-130528361D01*
X76090642Y-130364502D01*
X76048624Y-130206528D01*
X76107524Y-130052424D01*
X76182017Y-129969374D01*
X76362580Y-129863730D01*
X76500914Y-129844799D01*
X76726068Y-129889163D01*
D12*
X96222000Y-117348000D02*
G75*
G02*
X96222000Y-119888000I0J-1270000D01*
G01*
X100882000Y-117348000D02*
G75*
G03*
X100882000Y-119888000I0J-1270000D01*
G01*
X78950000Y-117348000D02*
G75*
G02*
X78950000Y-119888000I0J-1270000D01*
G01*
X83610000Y-117348000D02*
G75*
G03*
X83610000Y-119888000I0J-1270000D01*
G01*
D13*
X84836000Y-95885000D02*
X84836000Y-93980000D01*
X84836000Y-90043000D02*
X84836000Y-91948000D01*
X94996000Y-90043000D02*
X94996000Y-95885000D01*
X84836000Y-95885000D02*
X94996000Y-95885000D01*
X94996000Y-90043000D02*
X84836000Y-90043000D01*
X84836000Y-93980000D02*
G75*
G03*
X84836000Y-91948000I0J1016000D01*
G01*
D10*
X70866000Y-95631000D02*
X70612000Y-95377000D01*
X70866000Y-95631000D02*
X71120000Y-95377000D01*
X70866000Y-95123000D02*
X70866000Y-95631000D01*
X70866000Y-90551000D02*
X71120000Y-90805000D01*
X70866000Y-90551000D02*
X70612000Y-90805000D01*
X70866000Y-91059000D02*
X70866000Y-90551000D01*
D13*
X69215000Y-86741000D02*
X69215000Y-86106000D01*
X68580000Y-86741000D02*
X69215000Y-86741000D01*
X68580000Y-99441000D02*
X68580000Y-86741000D01*
X69215000Y-99441000D02*
X68580000Y-99441000D01*
X69215000Y-100076000D02*
X69215000Y-99441000D01*
X72517000Y-100076000D02*
X69215000Y-100076000D01*
X72517000Y-99441000D02*
X72517000Y-100076000D01*
X73152000Y-99441000D02*
X72517000Y-99441000D01*
X73152000Y-86741000D02*
X73152000Y-99441000D01*
X72517000Y-86741000D02*
X73152000Y-86741000D01*
X72517000Y-86106000D02*
X72517000Y-86741000D01*
X69215000Y-86106000D02*
X72517000Y-86106000D01*
D10*
X108966000Y-90551000D02*
X109220000Y-90805000D01*
X108966000Y-90551000D02*
X108712000Y-90805000D01*
X108966000Y-91059000D02*
X108966000Y-90551000D01*
X108966000Y-95631000D02*
X108712000Y-95377000D01*
X108966000Y-95631000D02*
X109220000Y-95377000D01*
X108966000Y-95123000D02*
X108966000Y-95631000D01*
D13*
X110617000Y-99441000D02*
X110617000Y-100076000D01*
X111252000Y-99441000D02*
X110617000Y-99441000D01*
X111252000Y-86741000D02*
X111252000Y-99441000D01*
X110617000Y-86741000D02*
X111252000Y-86741000D01*
X110617000Y-86106000D02*
X110617000Y-86741000D01*
X107315000Y-86106000D02*
X110617000Y-86106000D01*
X107315000Y-86741000D02*
X107315000Y-86106000D01*
X106680000Y-86741000D02*
X107315000Y-86741000D01*
X106680000Y-99441000D02*
X106680000Y-86741000D01*
X107315000Y-99441000D02*
X106680000Y-99441000D01*
X107315000Y-100076000D02*
X107315000Y-99441000D01*
X110617000Y-100076000D02*
X107315000Y-100076000D01*
X82296000Y-140208000D02*
X82296000Y-124968000D01*
X97536000Y-140208000D02*
X82296000Y-140208000D01*
X97536000Y-124968000D02*
X97536000Y-140208000D01*
X82296000Y-124968000D02*
X97536000Y-124968000D01*
X102489000Y-141351000D02*
X108839000Y-141351000D01*
X105283000Y-138684000D02*
X105283000Y-139827000D01*
X106045000Y-139827000D02*
X106045000Y-138684000D01*
X105283000Y-136017000D02*
X105283000Y-137160000D01*
X106045000Y-137160000D02*
X106045000Y-136017000D01*
D14*
X103759000Y-136271000D02*
X103505000Y-136017000D01*
X107442000Y-136271000D02*
X107696000Y-136017000D01*
D13*
X106045000Y-138684000D02*
X106426000Y-138303000D01*
X105283000Y-139827000D02*
X106045000Y-139827000D01*
X105283000Y-138684000D02*
X104902000Y-138303000D01*
X103759000Y-138303000D02*
X104902000Y-138303000D01*
X103759000Y-137541000D02*
X103759000Y-138303000D01*
X104902000Y-137541000D02*
X103759000Y-137541000D01*
X105283000Y-137160000D02*
X104902000Y-137541000D01*
X106045000Y-136017000D02*
X105283000Y-136017000D01*
X106426000Y-137541000D02*
X106045000Y-137160000D01*
X107569000Y-137541000D02*
X106426000Y-137541000D01*
X107569000Y-138303000D02*
X107569000Y-137541000D01*
X106426000Y-138303000D02*
X107569000Y-138303000D01*
X102235000Y-134747000D02*
X102235000Y-141097000D01*
X102489000Y-134493000D02*
X102235000Y-134747000D01*
X102489000Y-141351000D02*
X102235000Y-141097000D01*
X109093000Y-141097000D02*
X109093000Y-134747000D01*
X108839000Y-141351000D02*
X109093000Y-141097000D01*
X108839000Y-134493000D02*
X109093000Y-134747000D01*
X108839000Y-134493000D02*
X102489000Y-134493000D01*
D10*
X107635500Y-137922000D02*
G75*
G03*
X107635500Y-137922000I-1971500J0D01*
G01*
X82550000Y-82042000D02*
X82550000Y-78994000D01*
X79502000Y-82042000D02*
X82550000Y-82042000D01*
X79502000Y-78994000D02*
X79502000Y-82042000D01*
X77470000Y-82042000D02*
X77470000Y-78994000D01*
X74422000Y-82042000D02*
X77470000Y-82042000D01*
X74422000Y-78994000D02*
X74422000Y-82042000D01*
X72390000Y-82042000D02*
X72390000Y-78994000D01*
X69342000Y-82042000D02*
X72390000Y-82042000D01*
X69342000Y-78994000D02*
X69342000Y-82042000D01*
X79502000Y-78994000D02*
X82550000Y-78994000D01*
X74422000Y-78994000D02*
X77470000Y-78994000D01*
X69342000Y-78994000D02*
X72390000Y-78994000D01*
X110490000Y-82042000D02*
X110490000Y-78994000D01*
X107442000Y-82042000D02*
X110490000Y-82042000D01*
X107442000Y-78994000D02*
X107442000Y-82042000D01*
X105410000Y-82042000D02*
X105410000Y-78994000D01*
X102362000Y-82042000D02*
X105410000Y-82042000D01*
X102362000Y-78994000D02*
X102362000Y-82042000D01*
X100330000Y-82042000D02*
X100330000Y-78994000D01*
X97282000Y-82042000D02*
X100330000Y-82042000D01*
X97282000Y-78994000D02*
X97282000Y-82042000D01*
X107442000Y-78994000D02*
X110490000Y-78994000D01*
X102362000Y-78994000D02*
X105410000Y-78994000D01*
X97282000Y-78994000D02*
X100330000Y-78994000D01*
X96520000Y-109220000D02*
X96520000Y-106172000D01*
X93472000Y-109220000D02*
X96520000Y-109220000D01*
X93472000Y-106172000D02*
X93472000Y-109220000D01*
X91440000Y-109220000D02*
X91440000Y-106172000D01*
X88392000Y-109220000D02*
X91440000Y-109220000D01*
X88392000Y-106172000D02*
X88392000Y-109220000D01*
X86360000Y-109220000D02*
X86360000Y-106172000D01*
X83312000Y-109220000D02*
X86360000Y-109220000D01*
X83312000Y-106172000D02*
X83312000Y-109220000D01*
X93472000Y-106172000D02*
X96520000Y-106172000D01*
X88392000Y-106172000D02*
X91440000Y-106172000D01*
X83312000Y-106172000D02*
X86360000Y-106172000D01*
D13*
X107966000Y-126746000D02*
X107966000Y-125222000D01*
X107712000Y-127000000D02*
X106696000Y-127000000D01*
X107712000Y-124968000D02*
X106696000Y-124968000D01*
X106569000Y-126873000D02*
X103743000Y-126873000D01*
X106569000Y-126873000D02*
X106696000Y-127000000D01*
X106569000Y-125095000D02*
X103743000Y-125095000D01*
X106569000Y-125095000D02*
X106696000Y-124968000D01*
X103743000Y-126873000D02*
X103616000Y-127000000D01*
X102600000Y-127000000D02*
X103616000Y-127000000D01*
X103743000Y-125095000D02*
X103616000Y-124968000D01*
X102600000Y-124968000D02*
X103616000Y-124968000D01*
X102346000Y-126746000D02*
X102346000Y-125222000D01*
X107966000Y-125222000D02*
G75*
G03*
X107712000Y-124968000I-254000J0D01*
G01*
X107966000Y-126746000D02*
G75*
G02*
X107712000Y-127000000I-254000J0D01*
G01*
X102600000Y-127000000D02*
G75*
G02*
X102346000Y-126746000I0J254000D01*
G01*
X102600000Y-124968000D02*
G75*
G03*
X102346000Y-125222000I0J-254000D01*
G01*
X67056000Y-91932000D02*
X65532000Y-91932000D01*
X67310000Y-92186000D02*
X67310000Y-93202000D01*
X65278000Y-92186000D02*
X65278000Y-93202000D01*
X67183000Y-93329000D02*
X67183000Y-96155000D01*
X67183000Y-93329000D02*
X67310000Y-93202000D01*
X65405000Y-93329000D02*
X65405000Y-96155000D01*
X65405000Y-93329000D02*
X65278000Y-93202000D01*
X67183000Y-96155000D02*
X67310000Y-96282000D01*
X67310000Y-97298000D02*
X67310000Y-96282000D01*
X65405000Y-96155000D02*
X65278000Y-96282000D01*
X65278000Y-97298000D02*
X65278000Y-96282000D01*
X67056000Y-97552000D02*
X65532000Y-97552000D01*
X65532000Y-91932000D02*
G75*
G03*
X65278000Y-92186000I0J-254000D01*
G01*
X67056000Y-91932000D02*
G75*
G02*
X67310000Y-92186000I0J-254000D01*
G01*
X67310000Y-97298000D02*
G75*
G02*
X67056000Y-97552000I-254000J0D01*
G01*
X65278000Y-97298000D02*
G75*
G03*
X65532000Y-97552000I254000J0D01*
G01*
X72406000Y-116078000D02*
X72406000Y-114554000D01*
X72152000Y-116332000D02*
X71136000Y-116332000D01*
X72152000Y-114300000D02*
X71136000Y-114300000D01*
X71009000Y-116205000D02*
X68183000Y-116205000D01*
X71009000Y-116205000D02*
X71136000Y-116332000D01*
X71009000Y-114427000D02*
X68183000Y-114427000D01*
X71009000Y-114427000D02*
X71136000Y-114300000D01*
X68183000Y-116205000D02*
X68056000Y-116332000D01*
X67040000Y-116332000D02*
X68056000Y-116332000D01*
X68183000Y-114427000D02*
X68056000Y-114300000D01*
X67040000Y-114300000D02*
X68056000Y-114300000D01*
X66786000Y-116078000D02*
X66786000Y-114554000D01*
X72406000Y-114554000D02*
G75*
G03*
X72152000Y-114300000I-254000J0D01*
G01*
X72406000Y-116078000D02*
G75*
G02*
X72152000Y-116332000I-254000J0D01*
G01*
X67040000Y-116332000D02*
G75*
G02*
X66786000Y-116078000I0J254000D01*
G01*
X67040000Y-114300000D02*
G75*
G03*
X66786000Y-114554000I0J-254000D01*
G01*
X100838000Y-114316000D02*
X102362000Y-114316000D01*
X100584000Y-114062000D02*
X100584000Y-113046000D01*
X102616000Y-114062000D02*
X102616000Y-113046000D01*
X100711000Y-112919000D02*
X100711000Y-110093000D01*
X100711000Y-112919000D02*
X100584000Y-113046000D01*
X102489000Y-112919000D02*
X102489000Y-110093000D01*
X102489000Y-112919000D02*
X102616000Y-113046000D01*
X100711000Y-110093000D02*
X100584000Y-109966000D01*
X100584000Y-108950000D02*
X100584000Y-109966000D01*
X102489000Y-110093000D02*
X102616000Y-109966000D01*
X102616000Y-108950000D02*
X102616000Y-109966000D01*
X100838000Y-108696000D02*
X102362000Y-108696000D01*
X102362000Y-114316000D02*
G75*
G03*
X102616000Y-114062000I0J254000D01*
G01*
X100838000Y-114316000D02*
G75*
G02*
X100584000Y-114062000I0J254000D01*
G01*
X100584000Y-108950000D02*
G75*
G02*
X100838000Y-108696000I254000J0D01*
G01*
X102616000Y-108950000D02*
G75*
G03*
X102362000Y-108696000I-254000J0D01*
G01*
X113046000Y-113284000D02*
X113046000Y-111760000D01*
X112792000Y-113538000D02*
X111776000Y-113538000D01*
X112792000Y-111506000D02*
X111776000Y-111506000D01*
X111649000Y-113411000D02*
X108823000Y-113411000D01*
X111649000Y-113411000D02*
X111776000Y-113538000D01*
X111649000Y-111633000D02*
X108823000Y-111633000D01*
X111649000Y-111633000D02*
X111776000Y-111506000D01*
X108823000Y-113411000D02*
X108696000Y-113538000D01*
X107680000Y-113538000D02*
X108696000Y-113538000D01*
X108823000Y-111633000D02*
X108696000Y-111506000D01*
X107680000Y-111506000D02*
X108696000Y-111506000D01*
X107426000Y-113284000D02*
X107426000Y-111760000D01*
X113046000Y-111760000D02*
G75*
G03*
X112792000Y-111506000I-254000J0D01*
G01*
X113046000Y-113284000D02*
G75*
G02*
X112792000Y-113538000I-254000J0D01*
G01*
X107680000Y-113538000D02*
G75*
G02*
X107426000Y-113284000I0J254000D01*
G01*
X107680000Y-111506000D02*
G75*
G03*
X107426000Y-111760000I0J-254000D01*
G01*
X75692000Y-86598000D02*
X74168000Y-86598000D01*
X75946000Y-86852000D02*
X75946000Y-87868000D01*
X73914000Y-86852000D02*
X73914000Y-87868000D01*
X75819000Y-87995000D02*
X75819000Y-90821000D01*
X75819000Y-87995000D02*
X75946000Y-87868000D01*
X74041000Y-87995000D02*
X74041000Y-90821000D01*
X74041000Y-87995000D02*
X73914000Y-87868000D01*
X75819000Y-90821000D02*
X75946000Y-90948000D01*
X75946000Y-91964000D02*
X75946000Y-90948000D01*
X74041000Y-90821000D02*
X73914000Y-90948000D01*
X73914000Y-91964000D02*
X73914000Y-90948000D01*
X75692000Y-92218000D02*
X74168000Y-92218000D01*
X74168000Y-86598000D02*
G75*
G03*
X73914000Y-86852000I0J-254000D01*
G01*
X75692000Y-86598000D02*
G75*
G02*
X75946000Y-86852000I0J-254000D01*
G01*
X75946000Y-91964000D02*
G75*
G02*
X75692000Y-92218000I-254000J0D01*
G01*
X73914000Y-91964000D02*
G75*
G03*
X74168000Y-92218000I254000J0D01*
G01*
X99568000Y-108696000D02*
X98044000Y-108696000D01*
X99822000Y-108950000D02*
X99822000Y-109966000D01*
X97790000Y-108950000D02*
X97790000Y-109966000D01*
X99695000Y-110093000D02*
X99695000Y-112919000D01*
X99695000Y-110093000D02*
X99822000Y-109966000D01*
X97917000Y-110093000D02*
X97917000Y-112919000D01*
X97917000Y-110093000D02*
X97790000Y-109966000D01*
X99695000Y-112919000D02*
X99822000Y-113046000D01*
X99822000Y-114062000D02*
X99822000Y-113046000D01*
X97917000Y-112919000D02*
X97790000Y-113046000D01*
X97790000Y-114062000D02*
X97790000Y-113046000D01*
X99568000Y-114316000D02*
X98044000Y-114316000D01*
X98044000Y-108696000D02*
G75*
G03*
X97790000Y-108950000I0J-254000D01*
G01*
X99568000Y-108696000D02*
G75*
G02*
X99822000Y-108950000I0J-254000D01*
G01*
X99822000Y-114062000D02*
G75*
G02*
X99568000Y-114316000I-254000J0D01*
G01*
X97790000Y-114062000D02*
G75*
G03*
X98044000Y-114316000I254000J0D01*
G01*
X92726000Y-87122000D02*
X92726000Y-85598000D01*
X92472000Y-87376000D02*
X91456000Y-87376000D01*
X92472000Y-85344000D02*
X91456000Y-85344000D01*
X91329000Y-87249000D02*
X88503000Y-87249000D01*
X91329000Y-87249000D02*
X91456000Y-87376000D01*
X91329000Y-85471000D02*
X88503000Y-85471000D01*
X91329000Y-85471000D02*
X91456000Y-85344000D01*
X88503000Y-87249000D02*
X88376000Y-87376000D01*
X87360000Y-87376000D02*
X88376000Y-87376000D01*
X88503000Y-85471000D02*
X88376000Y-85344000D01*
X87360000Y-85344000D02*
X88376000Y-85344000D01*
X87106000Y-87122000D02*
X87106000Y-85598000D01*
X92726000Y-85598000D02*
G75*
G03*
X92472000Y-85344000I-254000J0D01*
G01*
X92726000Y-87122000D02*
G75*
G02*
X92472000Y-87376000I-254000J0D01*
G01*
X87360000Y-87376000D02*
G75*
G02*
X87106000Y-87122000I0J254000D01*
G01*
X87360000Y-85344000D02*
G75*
G03*
X87106000Y-85598000I0J-254000D01*
G01*
X103648000Y-97536000D02*
X103648000Y-96012000D01*
X103394000Y-97790000D02*
X102378000Y-97790000D01*
X103394000Y-95758000D02*
X102378000Y-95758000D01*
X102251000Y-97663000D02*
X99425000Y-97663000D01*
X102251000Y-97663000D02*
X102378000Y-97790000D01*
X102251000Y-95885000D02*
X99425000Y-95885000D01*
X102251000Y-95885000D02*
X102378000Y-95758000D01*
X99425000Y-97663000D02*
X99298000Y-97790000D01*
X98282000Y-97790000D02*
X99298000Y-97790000D01*
X99425000Y-95885000D02*
X99298000Y-95758000D01*
X98282000Y-95758000D02*
X99298000Y-95758000D01*
X98028000Y-97536000D02*
X98028000Y-96012000D01*
X103648000Y-96012000D02*
G75*
G03*
X103394000Y-95758000I-254000J0D01*
G01*
X103648000Y-97536000D02*
G75*
G02*
X103394000Y-97790000I-254000J0D01*
G01*
X98282000Y-97790000D02*
G75*
G02*
X98028000Y-97536000I0J254000D01*
G01*
X98282000Y-95758000D02*
G75*
G03*
X98028000Y-96012000I0J-254000D01*
G01*
X66786000Y-108966000D02*
X66786000Y-110490000D01*
X67040000Y-108712000D02*
X68056000Y-108712000D01*
X67040000Y-110744000D02*
X68056000Y-110744000D01*
X68183000Y-108839000D02*
X71009000Y-108839000D01*
X68183000Y-108839000D02*
X68056000Y-108712000D01*
X68183000Y-110617000D02*
X71009000Y-110617000D01*
X68183000Y-110617000D02*
X68056000Y-110744000D01*
X71009000Y-108839000D02*
X71136000Y-108712000D01*
X72152000Y-108712000D02*
X71136000Y-108712000D01*
X71009000Y-110617000D02*
X71136000Y-110744000D01*
X72152000Y-110744000D02*
X71136000Y-110744000D01*
X72406000Y-108966000D02*
X72406000Y-110490000D01*
X66786000Y-110490000D02*
G75*
G03*
X67040000Y-110744000I254000J0D01*
G01*
X66786000Y-108966000D02*
G75*
G02*
X67040000Y-108712000I254000J0D01*
G01*
X72152000Y-108712000D02*
G75*
G02*
X72406000Y-108966000I0J-254000D01*
G01*
X72152000Y-110744000D02*
G75*
G03*
X72406000Y-110490000I0J254000D01*
G01*
X108220000Y-84328000D02*
X108220000Y-82804000D01*
X107966000Y-84582000D02*
X106950000Y-84582000D01*
X107966000Y-82550000D02*
X106950000Y-82550000D01*
X106823000Y-84455000D02*
X103997000Y-84455000D01*
X106823000Y-84455000D02*
X106950000Y-84582000D01*
X106823000Y-82677000D02*
X103997000Y-82677000D01*
X106823000Y-82677000D02*
X106950000Y-82550000D01*
X103997000Y-84455000D02*
X103870000Y-84582000D01*
X102854000Y-84582000D02*
X103870000Y-84582000D01*
X103997000Y-82677000D02*
X103870000Y-82550000D01*
X102854000Y-82550000D02*
X103870000Y-82550000D01*
X102600000Y-84328000D02*
X102600000Y-82804000D01*
X108220000Y-82804000D02*
G75*
G03*
X107966000Y-82550000I-254000J0D01*
G01*
X108220000Y-84328000D02*
G75*
G02*
X107966000Y-84582000I-254000J0D01*
G01*
X102854000Y-84582000D02*
G75*
G02*
X102600000Y-84328000I0J254000D01*
G01*
X102854000Y-82550000D02*
G75*
G03*
X102600000Y-82804000I0J-254000D01*
G01*
X92186000Y-82804000D02*
X92186000Y-84328000D01*
X92440000Y-82550000D02*
X93456000Y-82550000D01*
X92440000Y-84582000D02*
X93456000Y-84582000D01*
X93583000Y-82677000D02*
X96409000Y-82677000D01*
X93583000Y-82677000D02*
X93456000Y-82550000D01*
X93583000Y-84455000D02*
X96409000Y-84455000D01*
X93583000Y-84455000D02*
X93456000Y-84582000D01*
X96409000Y-82677000D02*
X96536000Y-82550000D01*
X97552000Y-82550000D02*
X96536000Y-82550000D01*
X96409000Y-84455000D02*
X96536000Y-84582000D01*
X97552000Y-84582000D02*
X96536000Y-84582000D01*
X97806000Y-82804000D02*
X97806000Y-84328000D01*
X92186000Y-84328000D02*
G75*
G03*
X92440000Y-84582000I254000J0D01*
G01*
X92186000Y-82804000D02*
G75*
G02*
X92440000Y-82550000I254000J0D01*
G01*
X97552000Y-82550000D02*
G75*
G02*
X97806000Y-82804000I0J-254000D01*
G01*
X97552000Y-84582000D02*
G75*
G03*
X97806000Y-84328000I0J254000D01*
G01*
X75930000Y-95250000D02*
X75930000Y-96774000D01*
X76184000Y-94996000D02*
X77200000Y-94996000D01*
X76184000Y-97028000D02*
X77200000Y-97028000D01*
X77327000Y-95123000D02*
X80153000Y-95123000D01*
X77327000Y-95123000D02*
X77200000Y-94996000D01*
X77327000Y-96901000D02*
X80153000Y-96901000D01*
X77327000Y-96901000D02*
X77200000Y-97028000D01*
X80153000Y-95123000D02*
X80280000Y-94996000D01*
X81296000Y-94996000D02*
X80280000Y-94996000D01*
X80153000Y-96901000D02*
X80280000Y-97028000D01*
X81296000Y-97028000D02*
X80280000Y-97028000D01*
X81550000Y-95250000D02*
X81550000Y-96774000D01*
X75930000Y-96774000D02*
G75*
G03*
X76184000Y-97028000I254000J0D01*
G01*
X75930000Y-95250000D02*
G75*
G02*
X76184000Y-94996000I254000J0D01*
G01*
X81296000Y-94996000D02*
G75*
G02*
X81550000Y-95250000I0J-254000D01*
G01*
X81296000Y-97028000D02*
G75*
G03*
X81550000Y-96774000I0J254000D01*
G01*
X75930000Y-98044000D02*
X75930000Y-99568000D01*
X76184000Y-97790000D02*
X77200000Y-97790000D01*
X76184000Y-99822000D02*
X77200000Y-99822000D01*
X77327000Y-97917000D02*
X80153000Y-97917000D01*
X77327000Y-97917000D02*
X77200000Y-97790000D01*
X77327000Y-99695000D02*
X80153000Y-99695000D01*
X77327000Y-99695000D02*
X77200000Y-99822000D01*
X80153000Y-97917000D02*
X80280000Y-97790000D01*
X81296000Y-97790000D02*
X80280000Y-97790000D01*
X80153000Y-99695000D02*
X80280000Y-99822000D01*
X81296000Y-99822000D02*
X80280000Y-99822000D01*
X81550000Y-98044000D02*
X81550000Y-99568000D01*
X75930000Y-99568000D02*
G75*
G03*
X76184000Y-99822000I254000J0D01*
G01*
X75930000Y-98044000D02*
G75*
G02*
X76184000Y-97790000I254000J0D01*
G01*
X81296000Y-97790000D02*
G75*
G02*
X81550000Y-98044000I0J-254000D01*
G01*
X81296000Y-99822000D02*
G75*
G03*
X81550000Y-99568000I0J254000D01*
G01*
D10*
X77343000Y-116078000D02*
X77343000Y-114554000D01*
X80137000Y-116078000D02*
X80137000Y-114554000D01*
X80010000Y-114427000D02*
X80137000Y-114554000D01*
X79375000Y-114427000D02*
X80010000Y-114427000D01*
X79248000Y-114554000D02*
X79375000Y-114427000D01*
X78232000Y-114554000D02*
X79248000Y-114554000D01*
X78105000Y-114427000D02*
X78232000Y-114554000D01*
X77470000Y-114427000D02*
X78105000Y-114427000D01*
X77343000Y-114554000D02*
X77470000Y-114427000D01*
X77470000Y-116205000D02*
X77343000Y-116078000D01*
X78105000Y-116205000D02*
X77470000Y-116205000D01*
X78232000Y-116078000D02*
X78105000Y-116205000D01*
X79248000Y-116078000D02*
X78232000Y-116078000D01*
X79375000Y-116205000D02*
X79248000Y-116078000D01*
X80010000Y-116205000D02*
X79375000Y-116205000D01*
X80137000Y-116078000D02*
X80010000Y-116205000D01*
D13*
X86852000Y-100838000D02*
X86852000Y-102362000D01*
X87106000Y-100584000D02*
X88122000Y-100584000D01*
X87106000Y-102616000D02*
X88122000Y-102616000D01*
X88249000Y-100711000D02*
X91075000Y-100711000D01*
X88249000Y-100711000D02*
X88122000Y-100584000D01*
X88249000Y-102489000D02*
X91075000Y-102489000D01*
X88249000Y-102489000D02*
X88122000Y-102616000D01*
X91075000Y-100711000D02*
X91202000Y-100584000D01*
X92218000Y-100584000D02*
X91202000Y-100584000D01*
X91075000Y-102489000D02*
X91202000Y-102616000D01*
X92218000Y-102616000D02*
X91202000Y-102616000D01*
X92472000Y-100838000D02*
X92472000Y-102362000D01*
X86852000Y-102362000D02*
G75*
G03*
X87106000Y-102616000I254000J0D01*
G01*
X86852000Y-100838000D02*
G75*
G02*
X87106000Y-100584000I254000J0D01*
G01*
X92218000Y-100584000D02*
G75*
G02*
X92472000Y-100838000I0J-254000D01*
G01*
X92218000Y-102616000D02*
G75*
G03*
X92472000Y-102362000I0J254000D01*
G01*
X72406000Y-113284000D02*
X72406000Y-111760000D01*
X72152000Y-113538000D02*
X71136000Y-113538000D01*
X72152000Y-111506000D02*
X71136000Y-111506000D01*
X71009000Y-113411000D02*
X68183000Y-113411000D01*
X71009000Y-113411000D02*
X71136000Y-113538000D01*
X71009000Y-111633000D02*
X68183000Y-111633000D01*
X71009000Y-111633000D02*
X71136000Y-111506000D01*
X68183000Y-113411000D02*
X68056000Y-113538000D01*
X67040000Y-113538000D02*
X68056000Y-113538000D01*
X68183000Y-111633000D02*
X68056000Y-111506000D01*
X67040000Y-111506000D02*
X68056000Y-111506000D01*
X66786000Y-113284000D02*
X66786000Y-111760000D01*
X72406000Y-111760000D02*
G75*
G03*
X72152000Y-111506000I-254000J0D01*
G01*
X72406000Y-113284000D02*
G75*
G02*
X72152000Y-113538000I-254000J0D01*
G01*
X67040000Y-113538000D02*
G75*
G02*
X66786000Y-113284000I0J254000D01*
G01*
X67040000Y-111506000D02*
G75*
G03*
X66786000Y-111760000I0J-254000D01*
G01*
X81550000Y-102362000D02*
X81550000Y-100838000D01*
X81296000Y-102616000D02*
X80280000Y-102616000D01*
X81296000Y-100584000D02*
X80280000Y-100584000D01*
X80153000Y-102489000D02*
X77327000Y-102489000D01*
X80153000Y-102489000D02*
X80280000Y-102616000D01*
X80153000Y-100711000D02*
X77327000Y-100711000D01*
X80153000Y-100711000D02*
X80280000Y-100584000D01*
X77327000Y-102489000D02*
X77200000Y-102616000D01*
X76184000Y-102616000D02*
X77200000Y-102616000D01*
X77327000Y-100711000D02*
X77200000Y-100584000D01*
X76184000Y-100584000D02*
X77200000Y-100584000D01*
X75930000Y-102362000D02*
X75930000Y-100838000D01*
X81550000Y-100838000D02*
G75*
G03*
X81296000Y-100584000I-254000J0D01*
G01*
X81550000Y-102362000D02*
G75*
G02*
X81296000Y-102616000I-254000J0D01*
G01*
X76184000Y-102616000D02*
G75*
G02*
X75930000Y-102362000I0J254000D01*
G01*
X76184000Y-100584000D02*
G75*
G03*
X75930000Y-100838000I0J-254000D01*
G01*
X72283000Y-107188000D02*
X75545000Y-107188000D01*
X75545001Y-107188001D02*
G75*
G03*
X74882900Y-103200200I-1631301J1778018D01*
G01*
X72945101Y-103200201D02*
G75*
G03*
X72283000Y-107188000I969199J-2209782D01*
G01*
X74883200Y-103200200D02*
G75*
G03*
X72944800Y-103200200I-969200J-2209800D01*
G01*
X99568000Y-124714000D02*
X99568000Y-123444000D01*
X97028000Y-124714000D02*
X99568000Y-124714000D01*
X97028000Y-123444000D02*
X97028000Y-124714000D01*
X97028000Y-123444000D02*
X97028000Y-120904000D01*
X99568000Y-123444000D02*
X97028000Y-123444000D01*
X99568000Y-120904000D02*
X99568000Y-123444000D01*
X97028000Y-120904000D02*
X99568000Y-120904000D01*
X96266000Y-124714000D02*
X96266000Y-123444000D01*
X93726000Y-124714000D02*
X96266000Y-124714000D01*
X93726000Y-123444000D02*
X93726000Y-124714000D01*
X93726000Y-123444000D02*
X93726000Y-120904000D01*
X96266000Y-123444000D02*
X93726000Y-123444000D01*
X96266000Y-120904000D02*
X96266000Y-123444000D01*
X93726000Y-120904000D02*
X96266000Y-120904000D01*
X111760000Y-77978000D02*
X111760000Y-79248000D01*
X114300000Y-77978000D02*
X111760000Y-77978000D01*
X114300000Y-79248000D02*
X114300000Y-77978000D01*
X114300000Y-79248000D02*
X114300000Y-81788000D01*
X111760000Y-79248000D02*
X114300000Y-79248000D01*
X111760000Y-81788000D02*
X111760000Y-79248000D01*
X114300000Y-81788000D02*
X111760000Y-81788000D01*
X92964000Y-124714000D02*
X92964000Y-123444000D01*
X90424000Y-124714000D02*
X92964000Y-124714000D01*
X90424000Y-123444000D02*
X90424000Y-124714000D01*
X90424000Y-123444000D02*
X90424000Y-120904000D01*
X92964000Y-123444000D02*
X90424000Y-123444000D01*
X92964000Y-120904000D02*
X92964000Y-123444000D01*
X90424000Y-120904000D02*
X92964000Y-120904000D01*
X89408000Y-124714000D02*
X89408000Y-123444000D01*
X86868000Y-124714000D02*
X89408000Y-124714000D01*
X86868000Y-123444000D02*
X86868000Y-124714000D01*
X86868000Y-123444000D02*
X86868000Y-120904000D01*
X89408000Y-123444000D02*
X86868000Y-123444000D01*
X89408000Y-120904000D02*
X89408000Y-123444000D01*
X86868000Y-120904000D02*
X89408000Y-120904000D01*
X90424000Y-77978000D02*
X90424000Y-79248000D01*
X92964000Y-77978000D02*
X90424000Y-77978000D01*
X92964000Y-79248000D02*
X92964000Y-77978000D01*
X92964000Y-79248000D02*
X92964000Y-81788000D01*
X90424000Y-79248000D02*
X92964000Y-79248000D01*
X90424000Y-81788000D02*
X90424000Y-79248000D01*
X92964000Y-81788000D02*
X90424000Y-81788000D01*
X86106000Y-124714000D02*
X86106000Y-123444000D01*
X83566000Y-124714000D02*
X86106000Y-124714000D01*
X83566000Y-123444000D02*
X83566000Y-124714000D01*
X83566000Y-123444000D02*
X83566000Y-120904000D01*
X86106000Y-123444000D02*
X83566000Y-123444000D01*
X86106000Y-120904000D02*
X86106000Y-123444000D01*
X83566000Y-120904000D02*
X86106000Y-120904000D01*
X82804000Y-124714000D02*
X82804000Y-123444000D01*
X80264000Y-124714000D02*
X82804000Y-124714000D01*
X80264000Y-123444000D02*
X80264000Y-124714000D01*
X80264000Y-123444000D02*
X80264000Y-120904000D01*
X82804000Y-123444000D02*
X80264000Y-123444000D01*
X82804000Y-120904000D02*
X82804000Y-123444000D01*
X80264000Y-120904000D02*
X82804000Y-120904000D01*
X86868000Y-112776000D02*
X86868000Y-114046000D01*
X89408000Y-112776000D02*
X86868000Y-112776000D01*
X89408000Y-114046000D02*
X89408000Y-112776000D01*
X89408000Y-114046000D02*
X89408000Y-116586000D01*
X86868000Y-114046000D02*
X89408000Y-114046000D01*
X86868000Y-116586000D02*
X86868000Y-114046000D01*
X89408000Y-116586000D02*
X86868000Y-116586000D01*
X86868000Y-77978000D02*
X86868000Y-79248000D01*
X89408000Y-77978000D02*
X86868000Y-77978000D01*
X89408000Y-79248000D02*
X89408000Y-77978000D01*
X89408000Y-79248000D02*
X89408000Y-81788000D01*
X86868000Y-79248000D02*
X89408000Y-79248000D01*
X86868000Y-81788000D02*
X86868000Y-79248000D01*
X89408000Y-81788000D02*
X86868000Y-81788000D01*
X93726000Y-112776000D02*
X93726000Y-114046000D01*
X96266000Y-112776000D02*
X93726000Y-112776000D01*
X96266000Y-114046000D02*
X96266000Y-112776000D01*
X96266000Y-114046000D02*
X96266000Y-116586000D01*
X93726000Y-114046000D02*
X96266000Y-114046000D01*
X93726000Y-116586000D02*
X93726000Y-114046000D01*
X96266000Y-116586000D02*
X93726000Y-116586000D01*
X65532000Y-77978000D02*
X65532000Y-79248000D01*
X68072000Y-77978000D02*
X65532000Y-77978000D01*
X68072000Y-79248000D02*
X68072000Y-77978000D01*
X68072000Y-79248000D02*
X68072000Y-81788000D01*
X65532000Y-79248000D02*
X68072000Y-79248000D01*
X65532000Y-81788000D02*
X65532000Y-79248000D01*
X68072000Y-81788000D02*
X65532000Y-81788000D01*
X90424000Y-112776000D02*
X90424000Y-114046000D01*
X92964000Y-112776000D02*
X90424000Y-112776000D01*
X92964000Y-114046000D02*
X92964000Y-112776000D01*
X92964000Y-114046000D02*
X92964000Y-116586000D01*
X90424000Y-114046000D02*
X92964000Y-114046000D01*
X90424000Y-116586000D02*
X90424000Y-114046000D01*
X92964000Y-116586000D02*
X90424000Y-116586000D01*
X83566000Y-112776000D02*
X83566000Y-114046000D01*
X86106000Y-112776000D02*
X83566000Y-112776000D01*
X86106000Y-114046000D02*
X86106000Y-112776000D01*
X86106000Y-114046000D02*
X86106000Y-116586000D01*
X83566000Y-114046000D02*
X86106000Y-114046000D01*
X83566000Y-116586000D02*
X83566000Y-114046000D01*
X86106000Y-116586000D02*
X83566000Y-116586000D01*
D12*
G36*
X108204000Y-114935000D02*
G01*
X107823000Y-114935000D01*
X107823000Y-115697000D01*
X108204000Y-115697000D01*
X108204000Y-114935000D01*
G37*
G36*
X112649000Y-114935000D02*
G01*
X112268000Y-114935000D01*
X112268000Y-115697000D01*
X112649000Y-115697000D01*
X112649000Y-114935000D01*
G37*
G36*
X111887000Y-114046000D02*
G01*
X111379000Y-114046000D01*
X111379000Y-116586000D01*
X111887000Y-116586000D01*
X111887000Y-114046000D01*
G37*
D13*
X112268000Y-116586000D02*
X112268000Y-114046000D01*
X112268000Y-116586000D02*
X108204000Y-116586000D01*
X108204000Y-114046000D02*
X108204000Y-116586000D01*
X108204000Y-114046000D02*
X112268000Y-114046000D01*
D10*
X100203000Y-88646000D02*
X100203000Y-87630000D01*
X101092000Y-86868000D02*
X104394000Y-86868000D01*
X101092000Y-89408000D02*
X104394000Y-89408000D01*
X104775000Y-86487000D02*
X105410000Y-86487000D01*
X105410000Y-86487000D02*
X105410000Y-89789000D01*
X105410000Y-89789000D02*
X104775000Y-89789000D01*
X104775000Y-89789000D02*
G75*
G03*
X104394000Y-89408000I-381000J0D01*
G01*
X104775000Y-86487000D02*
G75*
G02*
X104394000Y-86868000I-381000J0D01*
G01*
X101092001Y-86868001D02*
G75*
G03*
X100203000Y-87630000I-63501J-825500D01*
G01*
X100202999Y-88645999D02*
G75*
G03*
X101092000Y-89408000I825501J63500D01*
G01*
X105537000Y-91948000D02*
X105537000Y-92964000D01*
X104648000Y-93726000D02*
X101346000Y-93726000D01*
X104648000Y-91186000D02*
X101346000Y-91186000D01*
X100965000Y-94107000D02*
X100330000Y-94107000D01*
X100330000Y-94107000D02*
X100330000Y-90805000D01*
X100330000Y-90805000D02*
X100965000Y-90805000D01*
X100965000Y-90805000D02*
G75*
G03*
X101346000Y-91186000I381000J0D01*
G01*
X100965000Y-94107000D02*
G75*
G02*
X101346000Y-93726000I381000J0D01*
G01*
X104647999Y-93725999D02*
G75*
G03*
X105537000Y-92964000I63501J825500D01*
G01*
X105537001Y-91948001D02*
G75*
G03*
X104648000Y-91186000I-825501J-63500D01*
G01*
X98044000Y-92075000D02*
X97028000Y-92075000D01*
X96266000Y-91186000D02*
X96266000Y-87884000D01*
X98806000Y-91186000D02*
X98806000Y-87884000D01*
X95885000Y-87503000D02*
X95885000Y-86868000D01*
X95885000Y-86868000D02*
X99187000Y-86868000D01*
X99187000Y-86868000D02*
X99187000Y-87503000D01*
X99187000Y-87503000D02*
G75*
G03*
X98806000Y-87884000I0J-381000D01*
G01*
X95885000Y-87503000D02*
G75*
G02*
X96266000Y-87884000I0J-381000D01*
G01*
X96266001Y-91185999D02*
G75*
G03*
X97028000Y-92075000I825500J-63501D01*
G01*
X98043999Y-92075001D02*
G75*
G03*
X98806000Y-91186000I-63500J825501D01*
G01*
D13*
X65684400Y-106476800D02*
X65684400Y-107137200D01*
X65379600Y-106807000D02*
X66014600Y-106807000D01*
X69556000Y-105664000D02*
G75*
G03*
X69556000Y-105664000I-2500000J0D01*
G01*
X102565200Y-100228400D02*
X101904800Y-100228400D01*
X102235000Y-99923600D02*
X102235000Y-100558600D01*
X105878000Y-101600000D02*
G75*
G03*
X105878000Y-101600000I-2500000J0D01*
G01*
X109423200Y-104038400D02*
X108762800Y-104038400D01*
X109093000Y-103733600D02*
X109093000Y-104368600D01*
X112736000Y-105410000D02*
G75*
G03*
X112736000Y-105410000I-2500000J0D01*
G01*
X111506000Y-108458000D02*
X108966000Y-108458000D01*
X110871000Y-110998000D02*
X111506000Y-110998000D01*
X108966000Y-110998000D02*
X110871000Y-110998000D01*
X111506000Y-108458000D02*
G75*
G02*
X112776000Y-109728000I0J-1270000D01*
G01*
X112776000Y-109728000D02*
G75*
G02*
X111506000Y-110998000I-1270000J0D01*
G01*
X108966000Y-110998000D02*
G75*
G02*
X107696000Y-109728000I0J1270000D01*
G01*
X107696000Y-109728000D02*
G75*
G02*
X108966000Y-108458000I1270000J0D01*
G01*
X81534000Y-88646000D02*
X81534000Y-91186000D01*
X84074000Y-89281000D02*
X84074000Y-88646000D01*
X84074000Y-91186000D02*
X84074000Y-89281000D01*
X81534000Y-88646000D02*
G75*
G02*
X82804000Y-87376000I1270000J0D01*
G01*
X82804000Y-87376000D02*
G75*
G02*
X84074000Y-88646000I0J-1270000D01*
G01*
X84074000Y-91186000D02*
G75*
G02*
X82804000Y-92456000I-1270000J0D01*
G01*
X82804000Y-92456000D02*
G75*
G02*
X81534000Y-91186000I0J1270000D01*
G01*
X70866000Y-82804000D02*
X68326000Y-82804000D01*
X70231000Y-85344000D02*
X70866000Y-85344000D01*
X68326000Y-85344000D02*
X70231000Y-85344000D01*
X70866000Y-82804000D02*
G75*
G02*
X72136000Y-84074000I0J-1270000D01*
G01*
X72136000Y-84074000D02*
G75*
G02*
X70866000Y-85344000I-1270000J0D01*
G01*
X68326000Y-85344000D02*
G75*
G02*
X67056000Y-84074000I0J1270000D01*
G01*
X67056000Y-84074000D02*
G75*
G02*
X68326000Y-82804000I1270000J0D01*
G01*
X100036000Y-101600000D02*
G75*
G03*
X100036000Y-101600000I-2500000J0D01*
G01*
X99212400Y-101092000D02*
X98577400Y-101092000D01*
X98907600Y-101422200D02*
X98907600Y-100761800D01*
X114554000Y-87376000D02*
X114554000Y-84836000D01*
X112014000Y-86741000D02*
X112014000Y-87376000D01*
X112014000Y-84836000D02*
X112014000Y-86741000D01*
X114554000Y-87376000D02*
G75*
G02*
X113284000Y-88646000I-1270000J0D01*
G01*
X113284000Y-88646000D02*
G75*
G02*
X112014000Y-87376000I0J1270000D01*
G01*
X112014000Y-84836000D02*
G75*
G02*
X113284000Y-83566000I1270000J0D01*
G01*
X113284000Y-83566000D02*
G75*
G02*
X114554000Y-84836000I0J-1270000D01*
G01*
X84582000Y-84836000D02*
X87122000Y-84836000D01*
X85217000Y-82296000D02*
X84582000Y-82296000D01*
X87122000Y-82296000D02*
X85217000Y-82296000D01*
X84582000Y-84836000D02*
G75*
G02*
X83312000Y-83566000I0J1270000D01*
G01*
X83312000Y-83566000D02*
G75*
G02*
X84582000Y-82296000I1270000J0D01*
G01*
X87122000Y-82296000D02*
G75*
G02*
X88392000Y-83566000I0J-1270000D01*
G01*
X88392000Y-83566000D02*
G75*
G02*
X87122000Y-84836000I-1270000J0D01*
G01*
X77927200Y-90322400D02*
X77266800Y-90322400D01*
X77597000Y-90017600D02*
X77597000Y-90652600D01*
X81240000Y-91694000D02*
G75*
G03*
X81240000Y-91694000I-2500000J0D01*
G01*
X70612000Y-100330000D02*
X68072000Y-100330000D01*
X69977000Y-102870000D02*
X70612000Y-102870000D01*
X68072000Y-102870000D02*
X69977000Y-102870000D01*
X70612000Y-100330000D02*
G75*
G02*
X71882000Y-101600000I0J-1270000D01*
G01*
X71882000Y-101600000D02*
G75*
G02*
X70612000Y-102870000I-1270000J0D01*
G01*
X68072000Y-102870000D02*
G75*
G02*
X66802000Y-101600000I0J1270000D01*
G01*
X66802000Y-101600000D02*
G75*
G02*
X68072000Y-100330000I1270000J0D01*
G01*
X80010000Y-111252000D02*
X77470000Y-111252000D01*
X79375000Y-113792000D02*
X80010000Y-113792000D01*
X77470000Y-113792000D02*
X79375000Y-113792000D01*
X80010000Y-111252000D02*
G75*
G02*
X81280000Y-112522000I0J-1270000D01*
G01*
X81280000Y-112522000D02*
G75*
G02*
X80010000Y-113792000I-1270000J0D01*
G01*
X77470000Y-113792000D02*
G75*
G02*
X76200000Y-112522000I0J1270000D01*
G01*
X76200000Y-112522000D02*
G75*
G02*
X77470000Y-111252000I1270000J0D01*
G01*
X82240000Y-108712000D02*
G75*
G03*
X82240000Y-108712000I-2500000J0D01*
G01*
X79232000Y-107035600D02*
X79232000Y-107670600D01*
X79562200Y-107340400D02*
X78901800Y-107340400D01*
X81788000Y-105664000D02*
X84328000Y-105664000D01*
X82423000Y-103124000D02*
X81788000Y-103124000D01*
X84328000Y-103124000D02*
X82423000Y-103124000D01*
X81788000Y-105664000D02*
G75*
G02*
X80518000Y-104394000I0J1270000D01*
G01*
X80518000Y-104394000D02*
G75*
G02*
X81788000Y-103124000I1270000J0D01*
G01*
X84328000Y-103124000D02*
G75*
G02*
X85598000Y-104394000I0J-1270000D01*
G01*
X85598000Y-104394000D02*
G75*
G02*
X84328000Y-105664000I-1270000J0D01*
G01*
X88996761Y-92303297D02*
X88996761Y-93279988D01*
X89054214Y-93394892D01*
X89111666Y-93452345D01*
X89226571Y-93509797D01*
X89456380Y-93509797D01*
X89571285Y-93452345D01*
X89628738Y-93394892D01*
X89686190Y-93279988D01*
X89686190Y-92303297D01*
X90892690Y-93509797D02*
X90203261Y-93509797D01*
X90547976Y-93509797D02*
X90547976Y-92303297D01*
X90433071Y-92475654D01*
X90318166Y-92590559D01*
X90203261Y-92648011D01*
D15*
X64675619Y-89243428D02*
X64675619Y-88614857D01*
X65775619Y-88929142D02*
X64675619Y-88929142D01*
X65775619Y-88248190D02*
X64675619Y-88248190D01*
X64728000Y-87148190D02*
X64675619Y-87252952D01*
X64675619Y-87410095D01*
X64728000Y-87567238D01*
X64832761Y-87672000D01*
X64937523Y-87724380D01*
X65147047Y-87776761D01*
X65304190Y-87776761D01*
X65513714Y-87724380D01*
X65618476Y-87672000D01*
X65723238Y-87567238D01*
X65775619Y-87410095D01*
X65775619Y-87305333D01*
X65723238Y-87148190D01*
X65670857Y-87095809D01*
X65304190Y-87095809D01*
X65304190Y-87305333D01*
X65775619Y-86624380D02*
X64675619Y-86624380D01*
X65199428Y-86624380D02*
X65199428Y-85995809D01*
X65775619Y-85995809D02*
X64675619Y-85995809D01*
X64675619Y-85629142D02*
X64675619Y-85000571D01*
X65775619Y-85314857D02*
X64675619Y-85314857D01*
X113527619Y-94954476D02*
X112427619Y-94954476D01*
X113213333Y-94587809D01*
X112427619Y-94221142D01*
X113527619Y-94221142D01*
X112427619Y-93487809D02*
X112427619Y-93278285D01*
X112480000Y-93173523D01*
X112584761Y-93068761D01*
X112794285Y-93016380D01*
X113160952Y-93016380D01*
X113370476Y-93068761D01*
X113475238Y-93173523D01*
X113527619Y-93278285D01*
X113527619Y-93487809D01*
X113475238Y-93592571D01*
X113370476Y-93697333D01*
X113160952Y-93749714D01*
X112794285Y-93749714D01*
X112584761Y-93697333D01*
X112480000Y-93592571D01*
X112427619Y-93487809D01*
X113527619Y-92544952D02*
X112427619Y-92544952D01*
X112427619Y-92283047D01*
X112480000Y-92125904D01*
X112584761Y-92021142D01*
X112689523Y-91968761D01*
X112899047Y-91916380D01*
X113056190Y-91916380D01*
X113265714Y-91968761D01*
X113370476Y-92021142D01*
X113475238Y-92125904D01*
X113527619Y-92283047D01*
X113527619Y-92544952D01*
X112951428Y-91444952D02*
X112951428Y-91078285D01*
X113527619Y-90921142D02*
X113527619Y-91444952D01*
X112427619Y-91444952D01*
X112427619Y-90921142D01*
D12*
X100261057Y-141020800D02*
X100307019Y-140882914D01*
X100352980Y-140836952D01*
X100444904Y-140790990D01*
X100582790Y-140790990D01*
X100674714Y-140836952D01*
X100720676Y-140882914D01*
X100766638Y-140974838D01*
X100766638Y-141342533D01*
X99801438Y-141342533D01*
X99801438Y-141020800D01*
X99847400Y-140928876D01*
X99893361Y-140882914D01*
X99985285Y-140836952D01*
X100077209Y-140836952D01*
X100169133Y-140882914D01*
X100215095Y-140928876D01*
X100261057Y-141020800D01*
X100261057Y-141342533D01*
X100766638Y-139825790D02*
X100307019Y-140147523D01*
X100766638Y-140377333D02*
X99801438Y-140377333D01*
X99801438Y-140009638D01*
X99847400Y-139917714D01*
X99893361Y-139871752D01*
X99985285Y-139825790D01*
X100123171Y-139825790D01*
X100215095Y-139871752D01*
X100261057Y-139917714D01*
X100307019Y-140009638D01*
X100307019Y-140377333D01*
X100766638Y-139412133D02*
X99801438Y-139412133D01*
X99847400Y-138446933D02*
X99801438Y-138538857D01*
X99801438Y-138676742D01*
X99847400Y-138814628D01*
X99939323Y-138906552D01*
X100031247Y-138952514D01*
X100215095Y-138998476D01*
X100352980Y-138998476D01*
X100536828Y-138952514D01*
X100628752Y-138906552D01*
X100720676Y-138814628D01*
X100766638Y-138676742D01*
X100766638Y-138584819D01*
X100720676Y-138446933D01*
X100674714Y-138400971D01*
X100352980Y-138400971D01*
X100352980Y-138584819D01*
X100766638Y-137987314D02*
X99801438Y-137987314D01*
X100261057Y-137987314D02*
X100261057Y-137435771D01*
X100766638Y-137435771D02*
X99801438Y-137435771D01*
X99801438Y-137114038D02*
X99801438Y-136562495D01*
X100766638Y-136838266D02*
X99801438Y-136838266D01*
X100766638Y-136240761D02*
X99801438Y-136240761D01*
X100766638Y-135689219D01*
X99801438Y-135689219D01*
X100261057Y-135229600D02*
X100261057Y-134907866D01*
X100766638Y-134769980D02*
X100766638Y-135229600D01*
X99801438Y-135229600D01*
X99801438Y-134769980D01*
X100720676Y-134402285D02*
X100766638Y-134264400D01*
X100766638Y-134034590D01*
X100720676Y-133942666D01*
X100674714Y-133896704D01*
X100582790Y-133850742D01*
X100490866Y-133850742D01*
X100398942Y-133896704D01*
X100352980Y-133942666D01*
X100307019Y-134034590D01*
X100261057Y-134218438D01*
X100215095Y-134310361D01*
X100169133Y-134356323D01*
X100077209Y-134402285D01*
X99985285Y-134402285D01*
X99893361Y-134356323D01*
X99847400Y-134310361D01*
X99801438Y-134218438D01*
X99801438Y-133988628D01*
X99847400Y-133850742D01*
X100720676Y-133483047D02*
X100766638Y-133345161D01*
X100766638Y-133115352D01*
X100720676Y-133023428D01*
X100674714Y-132977466D01*
X100582790Y-132931504D01*
X100490866Y-132931504D01*
X100398942Y-132977466D01*
X100352980Y-133023428D01*
X100307019Y-133115352D01*
X100261057Y-133299200D01*
X100215095Y-133391123D01*
X100169133Y-133437085D01*
X100077209Y-133483047D01*
X99985285Y-133483047D01*
X99893361Y-133437085D01*
X99847400Y-133391123D01*
X99801438Y-133299200D01*
X99801438Y-133069390D01*
X99847400Y-132931504D01*
D15*
X71017428Y-77176380D02*
X71588857Y-77176380D01*
X71303142Y-78176380D02*
X71303142Y-77176380D01*
X72493619Y-78176380D02*
X72160285Y-77700190D01*
X71922190Y-78176380D02*
X71922190Y-77176380D01*
X72303142Y-77176380D01*
X72398380Y-77224000D01*
X72446000Y-77271619D01*
X72493619Y-77366857D01*
X72493619Y-77509714D01*
X72446000Y-77604952D01*
X72398380Y-77652571D01*
X72303142Y-77700190D01*
X71922190Y-77700190D01*
X72922190Y-77652571D02*
X73255523Y-77652571D01*
X73398380Y-78176380D02*
X72922190Y-78176380D01*
X72922190Y-77176380D01*
X73398380Y-77176380D01*
X74160285Y-77652571D02*
X74303142Y-77700190D01*
X74350761Y-77747809D01*
X74398380Y-77843047D01*
X74398380Y-77985904D01*
X74350761Y-78081142D01*
X74303142Y-78128761D01*
X74207904Y-78176380D01*
X73826952Y-78176380D01*
X73826952Y-77176380D01*
X74160285Y-77176380D01*
X74255523Y-77224000D01*
X74303142Y-77271619D01*
X74350761Y-77366857D01*
X74350761Y-77462095D01*
X74303142Y-77557333D01*
X74255523Y-77604952D01*
X74160285Y-77652571D01*
X73826952Y-77652571D01*
X75303142Y-78176380D02*
X74826952Y-78176380D01*
X74826952Y-77176380D01*
X75636476Y-77652571D02*
X75969809Y-77652571D01*
X76112666Y-78176380D02*
X75636476Y-78176380D01*
X75636476Y-77176380D01*
X76112666Y-77176380D01*
X77636476Y-77652571D02*
X77779333Y-77700190D01*
X77826952Y-77747809D01*
X77874571Y-77843047D01*
X77874571Y-77985904D01*
X77826952Y-78081142D01*
X77779333Y-78128761D01*
X77684095Y-78176380D01*
X77303142Y-78176380D01*
X77303142Y-77176380D01*
X77636476Y-77176380D01*
X77731714Y-77224000D01*
X77779333Y-77271619D01*
X77826952Y-77366857D01*
X77826952Y-77462095D01*
X77779333Y-77557333D01*
X77731714Y-77604952D01*
X77636476Y-77652571D01*
X77303142Y-77652571D01*
X78779333Y-77176380D02*
X78303142Y-77176380D01*
X78255523Y-77652571D01*
X78303142Y-77604952D01*
X78398380Y-77557333D01*
X78636476Y-77557333D01*
X78731714Y-77604952D01*
X78779333Y-77652571D01*
X78826952Y-77747809D01*
X78826952Y-77985904D01*
X78779333Y-78081142D01*
X78731714Y-78128761D01*
X78636476Y-78176380D01*
X78398380Y-78176380D01*
X78303142Y-78128761D01*
X78255523Y-78081142D01*
X79446000Y-77176380D02*
X79541238Y-77176380D01*
X79636476Y-77224000D01*
X79684095Y-77271619D01*
X79731714Y-77366857D01*
X79779333Y-77557333D01*
X79779333Y-77795428D01*
X79731714Y-77985904D01*
X79684095Y-78081142D01*
X79636476Y-78128761D01*
X79541238Y-78176380D01*
X79446000Y-78176380D01*
X79350761Y-78128761D01*
X79303142Y-78081142D01*
X79255523Y-77985904D01*
X79207904Y-77795428D01*
X79207904Y-77557333D01*
X79255523Y-77366857D01*
X79303142Y-77271619D01*
X79350761Y-77224000D01*
X79446000Y-77176380D01*
X80207904Y-78176380D02*
X80207904Y-77176380D01*
X80779333Y-78176380D02*
X80350761Y-77604952D01*
X80779333Y-77176380D02*
X80207904Y-77747809D01*
X100243142Y-77652571D02*
X100386000Y-77700190D01*
X100433619Y-77747809D01*
X100481238Y-77843047D01*
X100481238Y-77985904D01*
X100433619Y-78081142D01*
X100386000Y-78128761D01*
X100290761Y-78176380D01*
X99909809Y-78176380D01*
X99909809Y-77176380D01*
X100243142Y-77176380D01*
X100338380Y-77224000D01*
X100386000Y-77271619D01*
X100433619Y-77366857D01*
X100433619Y-77462095D01*
X100386000Y-77557333D01*
X100338380Y-77604952D01*
X100243142Y-77652571D01*
X99909809Y-77652571D01*
X100862190Y-77890666D02*
X101338380Y-77890666D01*
X100766952Y-78176380D02*
X101100285Y-77176380D01*
X101433619Y-78176380D01*
X101719333Y-78128761D02*
X101862190Y-78176380D01*
X102100285Y-78176380D01*
X102195523Y-78128761D01*
X102243142Y-78081142D01*
X102290761Y-77985904D01*
X102290761Y-77890666D01*
X102243142Y-77795428D01*
X102195523Y-77747809D01*
X102100285Y-77700190D01*
X101909809Y-77652571D01*
X101814571Y-77604952D01*
X101766952Y-77557333D01*
X101719333Y-77462095D01*
X101719333Y-77366857D01*
X101766952Y-77271619D01*
X101814571Y-77224000D01*
X101909809Y-77176380D01*
X102147904Y-77176380D01*
X102290761Y-77224000D01*
X102671714Y-78128761D02*
X102814571Y-78176380D01*
X103052666Y-78176380D01*
X103147904Y-78128761D01*
X103195523Y-78081142D01*
X103243142Y-77985904D01*
X103243142Y-77890666D01*
X103195523Y-77795428D01*
X103147904Y-77747809D01*
X103052666Y-77700190D01*
X102862190Y-77652571D01*
X102766952Y-77604952D01*
X102719333Y-77557333D01*
X102671714Y-77462095D01*
X102671714Y-77366857D01*
X102719333Y-77271619D01*
X102766952Y-77224000D01*
X102862190Y-77176380D01*
X103100285Y-77176380D01*
X103243142Y-77224000D01*
X104766952Y-77652571D02*
X104909809Y-77700190D01*
X104957428Y-77747809D01*
X105005047Y-77843047D01*
X105005047Y-77985904D01*
X104957428Y-78081142D01*
X104909809Y-78128761D01*
X104814571Y-78176380D01*
X104433619Y-78176380D01*
X104433619Y-77176380D01*
X104766952Y-77176380D01*
X104862190Y-77224000D01*
X104909809Y-77271619D01*
X104957428Y-77366857D01*
X104957428Y-77462095D01*
X104909809Y-77557333D01*
X104862190Y-77604952D01*
X104766952Y-77652571D01*
X104433619Y-77652571D01*
X105909809Y-77176380D02*
X105433619Y-77176380D01*
X105386000Y-77652571D01*
X105433619Y-77604952D01*
X105528857Y-77557333D01*
X105766952Y-77557333D01*
X105862190Y-77604952D01*
X105909809Y-77652571D01*
X105957428Y-77747809D01*
X105957428Y-77985904D01*
X105909809Y-78081142D01*
X105862190Y-78128761D01*
X105766952Y-78176380D01*
X105528857Y-78176380D01*
X105433619Y-78128761D01*
X105386000Y-78081142D01*
X106576476Y-77176380D02*
X106671714Y-77176380D01*
X106766952Y-77224000D01*
X106814571Y-77271619D01*
X106862190Y-77366857D01*
X106909809Y-77557333D01*
X106909809Y-77795428D01*
X106862190Y-77985904D01*
X106814571Y-78081142D01*
X106766952Y-78128761D01*
X106671714Y-78176380D01*
X106576476Y-78176380D01*
X106481238Y-78128761D01*
X106433619Y-78081142D01*
X106386000Y-77985904D01*
X106338380Y-77795428D01*
X106338380Y-77557333D01*
X106386000Y-77366857D01*
X106433619Y-77271619D01*
X106481238Y-77224000D01*
X106576476Y-77176380D01*
X107338380Y-78176380D02*
X107338380Y-77176380D01*
X107909809Y-78176380D02*
X107481238Y-77604952D01*
X107909809Y-77176380D02*
X107338380Y-77747809D01*
X88408285Y-105100380D02*
X87932095Y-105100380D01*
X87932095Y-104100380D01*
X88741619Y-104576571D02*
X89074952Y-104576571D01*
X89217809Y-105100380D02*
X88741619Y-105100380D01*
X88741619Y-104100380D01*
X89217809Y-104100380D01*
X89503523Y-104100380D02*
X89836857Y-105100380D01*
X90170190Y-104100380D01*
X90503523Y-104576571D02*
X90836857Y-104576571D01*
X90979714Y-105100380D02*
X90503523Y-105100380D01*
X90503523Y-104100380D01*
X90979714Y-104100380D01*
X91884476Y-105100380D02*
X91408285Y-105100380D01*
X91408285Y-104100380D01*
X92932095Y-104814666D02*
X93408285Y-104814666D01*
X92836857Y-105100380D02*
X93170190Y-104100380D01*
X93503523Y-105100380D01*
X94360666Y-105100380D02*
X93789238Y-105100380D01*
X94074952Y-105100380D02*
X94074952Y-104100380D01*
X93979714Y-104243238D01*
X93884476Y-104338476D01*
X93789238Y-104386095D01*
X94789238Y-105100380D02*
X94789238Y-104100380D01*
X95122571Y-104814666D01*
X95455904Y-104100380D01*
X95455904Y-105100380D01*
D16*
X104380392Y-126529797D02*
X103978226Y-125955273D01*
X103690964Y-126529797D02*
X103690964Y-125323297D01*
X104150583Y-125323297D01*
X104265488Y-125380750D01*
X104322940Y-125438202D01*
X104380392Y-125553107D01*
X104380392Y-125725464D01*
X104322940Y-125840369D01*
X104265488Y-125897821D01*
X104150583Y-125955273D01*
X103690964Y-125955273D01*
X105529440Y-126529797D02*
X104840011Y-126529797D01*
X105184726Y-126529797D02*
X105184726Y-125323297D01*
X105069821Y-125495654D01*
X104954916Y-125610559D01*
X104840011Y-125668011D01*
X106218869Y-125840369D02*
X106103964Y-125782916D01*
X106046511Y-125725464D01*
X105989059Y-125610559D01*
X105989059Y-125553107D01*
X106046511Y-125438202D01*
X106103964Y-125380750D01*
X106218869Y-125323297D01*
X106448678Y-125323297D01*
X106563583Y-125380750D01*
X106621035Y-125438202D01*
X106678488Y-125553107D01*
X106678488Y-125610559D01*
X106621035Y-125725464D01*
X106563583Y-125782916D01*
X106448678Y-125840369D01*
X106218869Y-125840369D01*
X106103964Y-125897821D01*
X106046511Y-125955273D01*
X105989059Y-126070178D01*
X105989059Y-126299988D01*
X106046511Y-126414892D01*
X106103964Y-126472345D01*
X106218869Y-126529797D01*
X106448678Y-126529797D01*
X106563583Y-126472345D01*
X106621035Y-126414892D01*
X106678488Y-126299988D01*
X106678488Y-126070178D01*
X106621035Y-125955273D01*
X106563583Y-125897821D01*
X106448678Y-125840369D01*
X66839797Y-95517607D02*
X66265273Y-95919773D01*
X66839797Y-96207035D02*
X65633297Y-96207035D01*
X65633297Y-95747416D01*
X65690750Y-95632511D01*
X65748202Y-95575059D01*
X65863107Y-95517607D01*
X66035464Y-95517607D01*
X66150369Y-95575059D01*
X66207821Y-95632511D01*
X66265273Y-95747416D01*
X66265273Y-96207035D01*
X66839797Y-94368559D02*
X66839797Y-95057988D01*
X66839797Y-94713273D02*
X65633297Y-94713273D01*
X65805654Y-94828178D01*
X65920559Y-94943083D01*
X65978011Y-95057988D01*
X65633297Y-93966392D02*
X65633297Y-93162059D01*
X66839797Y-93679130D01*
X68820392Y-115861797D02*
X68418226Y-115287273D01*
X68130964Y-115861797D02*
X68130964Y-114655297D01*
X68590583Y-114655297D01*
X68705488Y-114712750D01*
X68762940Y-114770202D01*
X68820392Y-114885107D01*
X68820392Y-115057464D01*
X68762940Y-115172369D01*
X68705488Y-115229821D01*
X68590583Y-115287273D01*
X68130964Y-115287273D01*
X69969440Y-115861797D02*
X69280011Y-115861797D01*
X69624726Y-115861797D02*
X69624726Y-114655297D01*
X69509821Y-114827654D01*
X69394916Y-114942559D01*
X69280011Y-115000011D01*
X71003583Y-114655297D02*
X70773773Y-114655297D01*
X70658869Y-114712750D01*
X70601416Y-114770202D01*
X70486511Y-114942559D01*
X70429059Y-115172369D01*
X70429059Y-115631988D01*
X70486511Y-115746892D01*
X70543964Y-115804345D01*
X70658869Y-115861797D01*
X70888678Y-115861797D01*
X71003583Y-115804345D01*
X71061035Y-115746892D01*
X71118488Y-115631988D01*
X71118488Y-115344726D01*
X71061035Y-115229821D01*
X71003583Y-115172369D01*
X70888678Y-115114916D01*
X70658869Y-115114916D01*
X70543964Y-115172369D01*
X70486511Y-115229821D01*
X70429059Y-115344726D01*
X102145797Y-112281607D02*
X101571273Y-112683773D01*
X102145797Y-112971035D02*
X100939297Y-112971035D01*
X100939297Y-112511416D01*
X100996750Y-112396511D01*
X101054202Y-112339059D01*
X101169107Y-112281607D01*
X101341464Y-112281607D01*
X101456369Y-112339059D01*
X101513821Y-112396511D01*
X101571273Y-112511416D01*
X101571273Y-112971035D01*
X102145797Y-111132559D02*
X102145797Y-111821988D01*
X102145797Y-111477273D02*
X100939297Y-111477273D01*
X101111654Y-111592178D01*
X101226559Y-111707083D01*
X101284011Y-111821988D01*
X100939297Y-110040964D02*
X100939297Y-110615488D01*
X101513821Y-110672940D01*
X101456369Y-110615488D01*
X101398916Y-110500583D01*
X101398916Y-110213321D01*
X101456369Y-110098416D01*
X101513821Y-110040964D01*
X101628726Y-109983511D01*
X101915988Y-109983511D01*
X102030892Y-110040964D01*
X102088345Y-110098416D01*
X102145797Y-110213321D01*
X102145797Y-110500583D01*
X102088345Y-110615488D01*
X102030892Y-110672940D01*
X109460392Y-113067797D02*
X109058226Y-112493273D01*
X108770964Y-113067797D02*
X108770964Y-111861297D01*
X109230583Y-111861297D01*
X109345488Y-111918750D01*
X109402940Y-111976202D01*
X109460392Y-112091107D01*
X109460392Y-112263464D01*
X109402940Y-112378369D01*
X109345488Y-112435821D01*
X109230583Y-112493273D01*
X108770964Y-112493273D01*
X110609440Y-113067797D02*
X109920011Y-113067797D01*
X110264726Y-113067797D02*
X110264726Y-111861297D01*
X110149821Y-112033654D01*
X110034916Y-112148559D01*
X109920011Y-112206011D01*
X111643583Y-112263464D02*
X111643583Y-113067797D01*
X111356321Y-111803845D02*
X111069059Y-112665630D01*
X111815940Y-112665630D01*
X75475797Y-90183607D02*
X74901273Y-90585773D01*
X75475797Y-90873035D02*
X74269297Y-90873035D01*
X74269297Y-90413416D01*
X74326750Y-90298511D01*
X74384202Y-90241059D01*
X74499107Y-90183607D01*
X74671464Y-90183607D01*
X74786369Y-90241059D01*
X74843821Y-90298511D01*
X74901273Y-90413416D01*
X74901273Y-90873035D01*
X75475797Y-89034559D02*
X75475797Y-89723988D01*
X75475797Y-89379273D02*
X74269297Y-89379273D01*
X74441654Y-89494178D01*
X74556559Y-89609083D01*
X74614011Y-89723988D01*
X74269297Y-88632392D02*
X74269297Y-87885511D01*
X74728916Y-88287678D01*
X74728916Y-88115321D01*
X74786369Y-88000416D01*
X74843821Y-87942964D01*
X74958726Y-87885511D01*
X75245988Y-87885511D01*
X75360892Y-87942964D01*
X75418345Y-88000416D01*
X75475797Y-88115321D01*
X75475797Y-88460035D01*
X75418345Y-88574940D01*
X75360892Y-88632392D01*
X99351797Y-112281607D02*
X98777273Y-112683773D01*
X99351797Y-112971035D02*
X98145297Y-112971035D01*
X98145297Y-112511416D01*
X98202750Y-112396511D01*
X98260202Y-112339059D01*
X98375107Y-112281607D01*
X98547464Y-112281607D01*
X98662369Y-112339059D01*
X98719821Y-112396511D01*
X98777273Y-112511416D01*
X98777273Y-112971035D01*
X99351797Y-111132559D02*
X99351797Y-111821988D01*
X99351797Y-111477273D02*
X98145297Y-111477273D01*
X98317654Y-111592178D01*
X98432559Y-111707083D01*
X98490011Y-111821988D01*
X98260202Y-110672940D02*
X98202750Y-110615488D01*
X98145297Y-110500583D01*
X98145297Y-110213321D01*
X98202750Y-110098416D01*
X98260202Y-110040964D01*
X98375107Y-109983511D01*
X98490011Y-109983511D01*
X98662369Y-110040964D01*
X99351797Y-110730392D01*
X99351797Y-109983511D01*
X89140392Y-86905797D02*
X88738226Y-86331273D01*
X88450964Y-86905797D02*
X88450964Y-85699297D01*
X88910583Y-85699297D01*
X89025488Y-85756750D01*
X89082940Y-85814202D01*
X89140392Y-85929107D01*
X89140392Y-86101464D01*
X89082940Y-86216369D01*
X89025488Y-86273821D01*
X88910583Y-86331273D01*
X88450964Y-86331273D01*
X90289440Y-86905797D02*
X89600011Y-86905797D01*
X89944726Y-86905797D02*
X89944726Y-85699297D01*
X89829821Y-85871654D01*
X89714916Y-85986559D01*
X89600011Y-86044011D01*
X91438488Y-86905797D02*
X90749059Y-86905797D01*
X91093773Y-86905797D02*
X91093773Y-85699297D01*
X90978869Y-85871654D01*
X90863964Y-85986559D01*
X90749059Y-86044011D01*
X100062392Y-97319797D02*
X99660226Y-96745273D01*
X99372964Y-97319797D02*
X99372964Y-96113297D01*
X99832583Y-96113297D01*
X99947488Y-96170750D01*
X100004940Y-96228202D01*
X100062392Y-96343107D01*
X100062392Y-96515464D01*
X100004940Y-96630369D01*
X99947488Y-96687821D01*
X99832583Y-96745273D01*
X99372964Y-96745273D01*
X101211440Y-97319797D02*
X100522011Y-97319797D01*
X100866726Y-97319797D02*
X100866726Y-96113297D01*
X100751821Y-96285654D01*
X100636916Y-96400559D01*
X100522011Y-96458011D01*
X101958321Y-96113297D02*
X102073226Y-96113297D01*
X102188130Y-96170750D01*
X102245583Y-96228202D01*
X102303035Y-96343107D01*
X102360488Y-96572916D01*
X102360488Y-96860178D01*
X102303035Y-97089988D01*
X102245583Y-97204892D01*
X102188130Y-97262345D01*
X102073226Y-97319797D01*
X101958321Y-97319797D01*
X101843416Y-97262345D01*
X101785964Y-97204892D01*
X101728511Y-97089988D01*
X101671059Y-96860178D01*
X101671059Y-96572916D01*
X101728511Y-96343107D01*
X101785964Y-96228202D01*
X101843416Y-96170750D01*
X101958321Y-96113297D01*
X69394916Y-110273797D02*
X68992750Y-109699273D01*
X68705488Y-110273797D02*
X68705488Y-109067297D01*
X69165107Y-109067297D01*
X69280011Y-109124750D01*
X69337464Y-109182202D01*
X69394916Y-109297107D01*
X69394916Y-109469464D01*
X69337464Y-109584369D01*
X69280011Y-109641821D01*
X69165107Y-109699273D01*
X68705488Y-109699273D01*
X69969440Y-110273797D02*
X70199250Y-110273797D01*
X70314154Y-110216345D01*
X70371607Y-110158892D01*
X70486511Y-109986535D01*
X70543964Y-109756726D01*
X70543964Y-109297107D01*
X70486511Y-109182202D01*
X70429059Y-109124750D01*
X70314154Y-109067297D01*
X70084345Y-109067297D01*
X69969440Y-109124750D01*
X69911988Y-109182202D01*
X69854535Y-109297107D01*
X69854535Y-109584369D01*
X69911988Y-109699273D01*
X69969440Y-109756726D01*
X70084345Y-109814178D01*
X70314154Y-109814178D01*
X70429059Y-109756726D01*
X70486511Y-109699273D01*
X70543964Y-109584369D01*
X105208916Y-84111797D02*
X104806750Y-83537273D01*
X104519488Y-84111797D02*
X104519488Y-82905297D01*
X104979107Y-82905297D01*
X105094011Y-82962750D01*
X105151464Y-83020202D01*
X105208916Y-83135107D01*
X105208916Y-83307464D01*
X105151464Y-83422369D01*
X105094011Y-83479821D01*
X104979107Y-83537273D01*
X104519488Y-83537273D01*
X105898345Y-83422369D02*
X105783440Y-83364916D01*
X105725988Y-83307464D01*
X105668535Y-83192559D01*
X105668535Y-83135107D01*
X105725988Y-83020202D01*
X105783440Y-82962750D01*
X105898345Y-82905297D01*
X106128154Y-82905297D01*
X106243059Y-82962750D01*
X106300511Y-83020202D01*
X106357964Y-83135107D01*
X106357964Y-83192559D01*
X106300511Y-83307464D01*
X106243059Y-83364916D01*
X106128154Y-83422369D01*
X105898345Y-83422369D01*
X105783440Y-83479821D01*
X105725988Y-83537273D01*
X105668535Y-83652178D01*
X105668535Y-83881988D01*
X105725988Y-83996892D01*
X105783440Y-84054345D01*
X105898345Y-84111797D01*
X106128154Y-84111797D01*
X106243059Y-84054345D01*
X106300511Y-83996892D01*
X106357964Y-83881988D01*
X106357964Y-83652178D01*
X106300511Y-83537273D01*
X106243059Y-83479821D01*
X106128154Y-83422369D01*
X94794916Y-84111797D02*
X94392750Y-83537273D01*
X94105488Y-84111797D02*
X94105488Y-82905297D01*
X94565107Y-82905297D01*
X94680011Y-82962750D01*
X94737464Y-83020202D01*
X94794916Y-83135107D01*
X94794916Y-83307464D01*
X94737464Y-83422369D01*
X94680011Y-83479821D01*
X94565107Y-83537273D01*
X94105488Y-83537273D01*
X95197083Y-82905297D02*
X96001416Y-82905297D01*
X95484345Y-84111797D01*
X78538916Y-96557797D02*
X78136750Y-95983273D01*
X77849488Y-96557797D02*
X77849488Y-95351297D01*
X78309107Y-95351297D01*
X78424011Y-95408750D01*
X78481464Y-95466202D01*
X78538916Y-95581107D01*
X78538916Y-95753464D01*
X78481464Y-95868369D01*
X78424011Y-95925821D01*
X78309107Y-95983273D01*
X77849488Y-95983273D01*
X79573059Y-95351297D02*
X79343250Y-95351297D01*
X79228345Y-95408750D01*
X79170892Y-95466202D01*
X79055988Y-95638559D01*
X78998535Y-95868369D01*
X78998535Y-96327988D01*
X79055988Y-96442892D01*
X79113440Y-96500345D01*
X79228345Y-96557797D01*
X79458154Y-96557797D01*
X79573059Y-96500345D01*
X79630511Y-96442892D01*
X79687964Y-96327988D01*
X79687964Y-96040726D01*
X79630511Y-95925821D01*
X79573059Y-95868369D01*
X79458154Y-95810916D01*
X79228345Y-95810916D01*
X79113440Y-95868369D01*
X79055988Y-95925821D01*
X78998535Y-96040726D01*
X78538916Y-99351797D02*
X78136750Y-98777273D01*
X77849488Y-99351797D02*
X77849488Y-98145297D01*
X78309107Y-98145297D01*
X78424011Y-98202750D01*
X78481464Y-98260202D01*
X78538916Y-98375107D01*
X78538916Y-98547464D01*
X78481464Y-98662369D01*
X78424011Y-98719821D01*
X78309107Y-98777273D01*
X77849488Y-98777273D01*
X79630511Y-98145297D02*
X79055988Y-98145297D01*
X78998535Y-98719821D01*
X79055988Y-98662369D01*
X79170892Y-98604916D01*
X79458154Y-98604916D01*
X79573059Y-98662369D01*
X79630511Y-98719821D01*
X79687964Y-98834726D01*
X79687964Y-99121988D01*
X79630511Y-99236892D01*
X79573059Y-99294345D01*
X79458154Y-99351797D01*
X79170892Y-99351797D01*
X79055988Y-99294345D01*
X78998535Y-99236892D01*
D17*
X78595220Y-115708974D02*
X78305660Y-115295317D01*
X78098831Y-115708974D02*
X78098831Y-114840294D01*
X78429757Y-114840294D01*
X78512488Y-114881660D01*
X78553854Y-114923025D01*
X78595220Y-115005757D01*
X78595220Y-115129854D01*
X78553854Y-115212585D01*
X78512488Y-115253951D01*
X78429757Y-115295317D01*
X78098831Y-115295317D01*
X79339802Y-115129854D02*
X79339802Y-115708974D01*
X79132974Y-114798928D02*
X78926145Y-115419414D01*
X79463900Y-115419414D01*
D16*
X89460916Y-102145797D02*
X89058750Y-101571273D01*
X88771488Y-102145797D02*
X88771488Y-100939297D01*
X89231107Y-100939297D01*
X89346011Y-100996750D01*
X89403464Y-101054202D01*
X89460916Y-101169107D01*
X89460916Y-101341464D01*
X89403464Y-101456369D01*
X89346011Y-101513821D01*
X89231107Y-101571273D01*
X88771488Y-101571273D01*
X89863083Y-100939297D02*
X90609964Y-100939297D01*
X90207797Y-101398916D01*
X90380154Y-101398916D01*
X90495059Y-101456369D01*
X90552511Y-101513821D01*
X90609964Y-101628726D01*
X90609964Y-101915988D01*
X90552511Y-102030892D01*
X90495059Y-102088345D01*
X90380154Y-102145797D01*
X90035440Y-102145797D01*
X89920535Y-102088345D01*
X89863083Y-102030892D01*
X69394916Y-113067797D02*
X68992750Y-112493273D01*
X68705488Y-113067797D02*
X68705488Y-111861297D01*
X69165107Y-111861297D01*
X69280011Y-111918750D01*
X69337464Y-111976202D01*
X69394916Y-112091107D01*
X69394916Y-112263464D01*
X69337464Y-112378369D01*
X69280011Y-112435821D01*
X69165107Y-112493273D01*
X68705488Y-112493273D01*
X69854535Y-111976202D02*
X69911988Y-111918750D01*
X70026892Y-111861297D01*
X70314154Y-111861297D01*
X70429059Y-111918750D01*
X70486511Y-111976202D01*
X70543964Y-112091107D01*
X70543964Y-112206011D01*
X70486511Y-112378369D01*
X69797083Y-113067797D01*
X70543964Y-113067797D01*
X78538916Y-102145797D02*
X78136750Y-101571273D01*
X77849488Y-102145797D02*
X77849488Y-100939297D01*
X78309107Y-100939297D01*
X78424011Y-100996750D01*
X78481464Y-101054202D01*
X78538916Y-101169107D01*
X78538916Y-101341464D01*
X78481464Y-101456369D01*
X78424011Y-101513821D01*
X78309107Y-101571273D01*
X77849488Y-101571273D01*
X79687964Y-102145797D02*
X78998535Y-102145797D01*
X79343250Y-102145797D02*
X79343250Y-100939297D01*
X79228345Y-101111654D01*
X79113440Y-101226559D01*
X78998535Y-101284011D01*
D12*
X73842571Y-104233214D02*
X73771142Y-104197500D01*
X73699714Y-104126071D01*
X73592571Y-104018928D01*
X73521142Y-103983214D01*
X73449714Y-103983214D01*
X73485428Y-104161785D02*
X73414000Y-104126071D01*
X73342571Y-104054642D01*
X73306857Y-103911785D01*
X73306857Y-103661785D01*
X73342571Y-103518928D01*
X73414000Y-103447500D01*
X73485428Y-103411785D01*
X73628285Y-103411785D01*
X73699714Y-103447500D01*
X73771142Y-103518928D01*
X73806857Y-103661785D01*
X73806857Y-103911785D01*
X73771142Y-104054642D01*
X73699714Y-104126071D01*
X73628285Y-104161785D01*
X73485428Y-104161785D01*
X74521142Y-104161785D02*
X74092571Y-104161785D01*
X74306857Y-104161785D02*
X74306857Y-103411785D01*
X74235428Y-103518928D01*
X74164000Y-103590357D01*
X74092571Y-103626071D01*
X98012285Y-123668285D02*
X98012285Y-124204000D01*
X97976571Y-124311142D01*
X97905142Y-124382571D01*
X97798000Y-124418285D01*
X97726571Y-124418285D01*
X98512285Y-123668285D02*
X98655142Y-123668285D01*
X98726571Y-123704000D01*
X98798000Y-123775428D01*
X98833714Y-123918285D01*
X98833714Y-124168285D01*
X98798000Y-124311142D01*
X98726571Y-124382571D01*
X98655142Y-124418285D01*
X98512285Y-124418285D01*
X98440857Y-124382571D01*
X98369428Y-124311142D01*
X98333714Y-124168285D01*
X98333714Y-123918285D01*
X98369428Y-123775428D01*
X98440857Y-123704000D01*
X98512285Y-123668285D01*
X94353142Y-124025428D02*
X94103142Y-124025428D01*
X94103142Y-124418285D02*
X94103142Y-123668285D01*
X94460285Y-123668285D01*
X94674571Y-123668285D02*
X95174571Y-124418285D01*
X95174571Y-123668285D02*
X94674571Y-124418285D01*
X95603142Y-123668285D02*
X95746000Y-123668285D01*
X95817428Y-123704000D01*
X95888857Y-123775428D01*
X95924571Y-123918285D01*
X95924571Y-124168285D01*
X95888857Y-124311142D01*
X95817428Y-124382571D01*
X95746000Y-124418285D01*
X95603142Y-124418285D01*
X95531714Y-124382571D01*
X95460285Y-124311142D01*
X95424571Y-124168285D01*
X95424571Y-123918285D01*
X95460285Y-123775428D01*
X95531714Y-123704000D01*
X95603142Y-123668285D01*
X112458571Y-78238000D02*
X112387142Y-78202285D01*
X112280000Y-78202285D01*
X112172857Y-78238000D01*
X112101428Y-78309428D01*
X112065714Y-78380857D01*
X112030000Y-78523714D01*
X112030000Y-78630857D01*
X112065714Y-78773714D01*
X112101428Y-78845142D01*
X112172857Y-78916571D01*
X112280000Y-78952285D01*
X112351428Y-78952285D01*
X112458571Y-78916571D01*
X112494285Y-78880857D01*
X112494285Y-78630857D01*
X112351428Y-78630857D01*
X112815714Y-78952285D02*
X112815714Y-78202285D01*
X113244285Y-78952285D01*
X113244285Y-78202285D01*
X113601428Y-78952285D02*
X113601428Y-78202285D01*
X113780000Y-78202285D01*
X113887142Y-78238000D01*
X113958571Y-78309428D01*
X113994285Y-78380857D01*
X114030000Y-78523714D01*
X114030000Y-78630857D01*
X113994285Y-78773714D01*
X113958571Y-78845142D01*
X113887142Y-78916571D01*
X113780000Y-78952285D01*
X113601428Y-78952285D01*
X91122571Y-123704000D02*
X91051142Y-123668285D01*
X90944000Y-123668285D01*
X90836857Y-123704000D01*
X90765428Y-123775428D01*
X90729714Y-123846857D01*
X90694000Y-123989714D01*
X90694000Y-124096857D01*
X90729714Y-124239714D01*
X90765428Y-124311142D01*
X90836857Y-124382571D01*
X90944000Y-124418285D01*
X91015428Y-124418285D01*
X91122571Y-124382571D01*
X91158285Y-124346857D01*
X91158285Y-124096857D01*
X91015428Y-124096857D01*
X91479714Y-124418285D02*
X91479714Y-123668285D01*
X91908285Y-124418285D01*
X91908285Y-123668285D01*
X92265428Y-124418285D02*
X92265428Y-123668285D01*
X92444000Y-123668285D01*
X92551142Y-123704000D01*
X92622571Y-123775428D01*
X92658285Y-123846857D01*
X92694000Y-123989714D01*
X92694000Y-124096857D01*
X92658285Y-124239714D01*
X92622571Y-124311142D01*
X92551142Y-124382571D01*
X92444000Y-124418285D01*
X92265428Y-124418285D01*
X87495142Y-124382571D02*
X87602285Y-124418285D01*
X87780857Y-124418285D01*
X87852285Y-124382571D01*
X87888000Y-124346857D01*
X87923714Y-124275428D01*
X87923714Y-124204000D01*
X87888000Y-124132571D01*
X87852285Y-124096857D01*
X87780857Y-124061142D01*
X87638000Y-124025428D01*
X87566571Y-123989714D01*
X87530857Y-123954000D01*
X87495142Y-123882571D01*
X87495142Y-123811142D01*
X87530857Y-123739714D01*
X87566571Y-123704000D01*
X87638000Y-123668285D01*
X87816571Y-123668285D01*
X87923714Y-123704000D01*
X88173714Y-123668285D02*
X88352285Y-124418285D01*
X88495142Y-123882571D01*
X88638000Y-124418285D01*
X88816571Y-123668285D01*
X91229714Y-78952285D02*
X91372571Y-78952285D01*
X91444000Y-78916571D01*
X91479714Y-78880857D01*
X91551142Y-78773714D01*
X91586857Y-78630857D01*
X91586857Y-78345142D01*
X91551142Y-78273714D01*
X91515428Y-78238000D01*
X91444000Y-78202285D01*
X91301142Y-78202285D01*
X91229714Y-78238000D01*
X91194000Y-78273714D01*
X91158285Y-78345142D01*
X91158285Y-78523714D01*
X91194000Y-78595142D01*
X91229714Y-78630857D01*
X91301142Y-78666571D01*
X91444000Y-78666571D01*
X91515428Y-78630857D01*
X91551142Y-78595142D01*
X91586857Y-78523714D01*
X91801142Y-78202285D02*
X92051142Y-78952285D01*
X92301142Y-78202285D01*
X84407428Y-124025428D02*
X84157428Y-124025428D01*
X84157428Y-124418285D02*
X84157428Y-123668285D01*
X84514571Y-123668285D01*
X84728857Y-123668285D02*
X85228857Y-124418285D01*
X85228857Y-123668285D02*
X84728857Y-124418285D01*
X85514571Y-124418285D02*
X85514571Y-123668285D01*
X81462571Y-123668285D02*
X81462571Y-124204000D01*
X81426857Y-124311142D01*
X81355428Y-124382571D01*
X81248285Y-124418285D01*
X81176857Y-124418285D01*
X81819714Y-124418285D02*
X81819714Y-123668285D01*
X87495142Y-113714571D02*
X87602285Y-113750285D01*
X87780857Y-113750285D01*
X87852285Y-113714571D01*
X87888000Y-113678857D01*
X87923714Y-113607428D01*
X87923714Y-113536000D01*
X87888000Y-113464571D01*
X87852285Y-113428857D01*
X87780857Y-113393142D01*
X87638000Y-113357428D01*
X87566571Y-113321714D01*
X87530857Y-113286000D01*
X87495142Y-113214571D01*
X87495142Y-113143142D01*
X87530857Y-113071714D01*
X87566571Y-113036000D01*
X87638000Y-113000285D01*
X87816571Y-113000285D01*
X87923714Y-113036000D01*
X88173714Y-113000285D02*
X88352285Y-113750285D01*
X88495142Y-113214571D01*
X88638000Y-113750285D01*
X88816571Y-113000285D01*
X87566571Y-78238000D02*
X87495142Y-78202285D01*
X87388000Y-78202285D01*
X87280857Y-78238000D01*
X87209428Y-78309428D01*
X87173714Y-78380857D01*
X87138000Y-78523714D01*
X87138000Y-78630857D01*
X87173714Y-78773714D01*
X87209428Y-78845142D01*
X87280857Y-78916571D01*
X87388000Y-78952285D01*
X87459428Y-78952285D01*
X87566571Y-78916571D01*
X87602285Y-78880857D01*
X87602285Y-78630857D01*
X87459428Y-78630857D01*
X87923714Y-78952285D02*
X87923714Y-78202285D01*
X88352285Y-78952285D01*
X88352285Y-78202285D01*
X88709428Y-78952285D02*
X88709428Y-78202285D01*
X88888000Y-78202285D01*
X88995142Y-78238000D01*
X89066571Y-78309428D01*
X89102285Y-78380857D01*
X89138000Y-78523714D01*
X89138000Y-78630857D01*
X89102285Y-78773714D01*
X89066571Y-78845142D01*
X88995142Y-78916571D01*
X88888000Y-78952285D01*
X88709428Y-78952285D01*
X94246000Y-113000285D02*
X94388857Y-113000285D01*
X94460285Y-113036000D01*
X94531714Y-113107428D01*
X94567428Y-113250285D01*
X94567428Y-113500285D01*
X94531714Y-113643142D01*
X94460285Y-113714571D01*
X94388857Y-113750285D01*
X94246000Y-113750285D01*
X94174571Y-113714571D01*
X94103142Y-113643142D01*
X94067428Y-113500285D01*
X94067428Y-113250285D01*
X94103142Y-113107428D01*
X94174571Y-113036000D01*
X94246000Y-113000285D01*
X94888857Y-113000285D02*
X94888857Y-113607428D01*
X94924571Y-113678857D01*
X94960285Y-113714571D01*
X95031714Y-113750285D01*
X95174571Y-113750285D01*
X95246000Y-113714571D01*
X95281714Y-113678857D01*
X95317428Y-113607428D01*
X95317428Y-113000285D01*
X95567428Y-113000285D02*
X95996000Y-113000285D01*
X95781714Y-113750285D02*
X95781714Y-113000285D01*
X66230571Y-78238000D02*
X66159142Y-78202285D01*
X66052000Y-78202285D01*
X65944857Y-78238000D01*
X65873428Y-78309428D01*
X65837714Y-78380857D01*
X65802000Y-78523714D01*
X65802000Y-78630857D01*
X65837714Y-78773714D01*
X65873428Y-78845142D01*
X65944857Y-78916571D01*
X66052000Y-78952285D01*
X66123428Y-78952285D01*
X66230571Y-78916571D01*
X66266285Y-78880857D01*
X66266285Y-78630857D01*
X66123428Y-78630857D01*
X66587714Y-78952285D02*
X66587714Y-78202285D01*
X67016285Y-78952285D01*
X67016285Y-78202285D01*
X67373428Y-78952285D02*
X67373428Y-78202285D01*
X67552000Y-78202285D01*
X67659142Y-78238000D01*
X67730571Y-78309428D01*
X67766285Y-78380857D01*
X67802000Y-78523714D01*
X67802000Y-78630857D01*
X67766285Y-78773714D01*
X67730571Y-78845142D01*
X67659142Y-78916571D01*
X67552000Y-78952285D01*
X67373428Y-78952285D01*
X91122571Y-113036000D02*
X91051142Y-113000285D01*
X90944000Y-113000285D01*
X90836857Y-113036000D01*
X90765428Y-113107428D01*
X90729714Y-113178857D01*
X90694000Y-113321714D01*
X90694000Y-113428857D01*
X90729714Y-113571714D01*
X90765428Y-113643142D01*
X90836857Y-113714571D01*
X90944000Y-113750285D01*
X91015428Y-113750285D01*
X91122571Y-113714571D01*
X91158285Y-113678857D01*
X91158285Y-113428857D01*
X91015428Y-113428857D01*
X91479714Y-113750285D02*
X91479714Y-113000285D01*
X91908285Y-113750285D01*
X91908285Y-113000285D01*
X92265428Y-113750285D02*
X92265428Y-113000285D01*
X92444000Y-113000285D01*
X92551142Y-113036000D01*
X92622571Y-113107428D01*
X92658285Y-113178857D01*
X92694000Y-113321714D01*
X92694000Y-113428857D01*
X92658285Y-113571714D01*
X92622571Y-113643142D01*
X92551142Y-113714571D01*
X92444000Y-113750285D01*
X92265428Y-113750285D01*
X84443142Y-113750285D02*
X84443142Y-113000285D01*
X84800285Y-113750285D02*
X84800285Y-113000285D01*
X85228857Y-113750285D01*
X85228857Y-113000285D01*
D15*
X109180404Y-115768380D02*
X109180404Y-114768380D01*
X109418500Y-114768380D01*
X109561357Y-114816000D01*
X109656595Y-114911238D01*
X109704214Y-115006476D01*
X109751833Y-115196952D01*
X109751833Y-115339809D01*
X109704214Y-115530285D01*
X109656595Y-115625523D01*
X109561357Y-115720761D01*
X109418500Y-115768380D01*
X109180404Y-115768380D01*
X110608976Y-115101714D02*
X110608976Y-115768380D01*
X110370880Y-114720761D02*
X110132785Y-115435047D01*
X110751833Y-115435047D01*
D18*
X102157590Y-86542638D02*
X102157590Y-85577438D01*
X102387400Y-85577438D01*
X102525285Y-85623400D01*
X102617209Y-85715323D01*
X102663171Y-85807247D01*
X102709133Y-85991095D01*
X102709133Y-86128980D01*
X102663171Y-86312828D01*
X102617209Y-86404752D01*
X102525285Y-86496676D01*
X102387400Y-86542638D01*
X102157590Y-86542638D01*
X103030866Y-85577438D02*
X103628371Y-85577438D01*
X103306638Y-85945133D01*
X103444523Y-85945133D01*
X103536447Y-85991095D01*
X103582409Y-86037057D01*
X103628371Y-86128980D01*
X103628371Y-86358790D01*
X103582409Y-86450714D01*
X103536447Y-86496676D01*
X103444523Y-86542638D01*
X103168752Y-86542638D01*
X103076828Y-86496676D01*
X103030866Y-86450714D01*
X105550304Y-88206942D02*
X106285695Y-88206942D01*
X105918000Y-88574638D02*
X105918000Y-87839247D01*
X102157590Y-94924638D02*
X102157590Y-93959438D01*
X102387400Y-93959438D01*
X102525285Y-94005400D01*
X102617209Y-94097323D01*
X102663171Y-94189247D01*
X102709133Y-94373095D01*
X102709133Y-94510980D01*
X102663171Y-94694828D01*
X102617209Y-94786752D01*
X102525285Y-94878676D01*
X102387400Y-94924638D01*
X102157590Y-94924638D01*
X103076828Y-94051361D02*
X103122790Y-94005400D01*
X103214714Y-93959438D01*
X103444523Y-93959438D01*
X103536447Y-94005400D01*
X103582409Y-94051361D01*
X103628371Y-94143285D01*
X103628371Y-94235209D01*
X103582409Y-94373095D01*
X103030866Y-94924638D01*
X103628371Y-94924638D01*
X99200304Y-92524942D02*
X99935695Y-92524942D01*
X99568000Y-92892638D02*
X99568000Y-92157247D01*
X96823590Y-86542638D02*
X96823590Y-85577438D01*
X97053400Y-85577438D01*
X97191285Y-85623400D01*
X97283209Y-85715323D01*
X97329171Y-85807247D01*
X97375133Y-85991095D01*
X97375133Y-86128980D01*
X97329171Y-86312828D01*
X97283209Y-86404752D01*
X97191285Y-86496676D01*
X97053400Y-86542638D01*
X96823590Y-86542638D01*
X98294371Y-86542638D02*
X97742828Y-86542638D01*
X98018600Y-86542638D02*
X98018600Y-85577438D01*
X97926676Y-85715323D01*
X97834752Y-85807247D01*
X97742828Y-85853209D01*
X98874942Y-86473695D02*
X98874942Y-85738304D01*
X99242638Y-86106000D02*
X98507247Y-86106000D01*
D19*
X69109771Y-106160388D02*
X69146540Y-106197158D01*
X69183310Y-106307466D01*
X69183310Y-106381005D01*
X69146540Y-106491314D01*
X69073001Y-106564853D01*
X68999462Y-106601622D01*
X68852384Y-106638392D01*
X68742076Y-106638392D01*
X68594998Y-106601622D01*
X68521459Y-106564853D01*
X68447920Y-106491314D01*
X68411150Y-106381005D01*
X68411150Y-106307466D01*
X68447920Y-106197158D01*
X68484689Y-106160388D01*
X69183310Y-105424998D02*
X69183310Y-105866232D01*
X69183310Y-105645615D02*
X68411150Y-105645615D01*
X68521459Y-105719154D01*
X68594998Y-105792693D01*
X68631767Y-105866232D01*
X68668537Y-104763146D02*
X69183310Y-104763146D01*
X68374380Y-104946994D02*
X68925923Y-105130841D01*
X68925923Y-104652838D01*
X102881611Y-103653771D02*
X102844841Y-103690540D01*
X102734533Y-103727310D01*
X102660994Y-103727310D01*
X102550685Y-103690540D01*
X102477146Y-103617001D01*
X102440377Y-103543462D01*
X102403607Y-103396384D01*
X102403607Y-103286076D01*
X102440377Y-103138998D01*
X102477146Y-103065459D01*
X102550685Y-102991920D01*
X102660994Y-102955150D01*
X102734533Y-102955150D01*
X102844841Y-102991920D01*
X102881611Y-103028689D01*
X103617001Y-103727310D02*
X103175767Y-103727310D01*
X103396384Y-103727310D02*
X103396384Y-102955150D01*
X103322845Y-103065459D01*
X103249306Y-103138998D01*
X103175767Y-103175767D01*
X103874388Y-102955150D02*
X104352392Y-102955150D01*
X104095005Y-103249306D01*
X104205314Y-103249306D01*
X104278853Y-103286076D01*
X104315622Y-103322845D01*
X104352392Y-103396384D01*
X104352392Y-103580232D01*
X104315622Y-103653771D01*
X104278853Y-103690540D01*
X104205314Y-103727310D01*
X103984697Y-103727310D01*
X103911158Y-103690540D01*
X103874388Y-103653771D01*
X109739611Y-107463771D02*
X109702841Y-107500540D01*
X109592533Y-107537310D01*
X109518994Y-107537310D01*
X109408685Y-107500540D01*
X109335146Y-107427001D01*
X109298377Y-107353462D01*
X109261607Y-107206384D01*
X109261607Y-107096076D01*
X109298377Y-106948998D01*
X109335146Y-106875459D01*
X109408685Y-106801920D01*
X109518994Y-106765150D01*
X109592533Y-106765150D01*
X109702841Y-106801920D01*
X109739611Y-106838689D01*
X110475001Y-107537310D02*
X110033767Y-107537310D01*
X110254384Y-107537310D02*
X110254384Y-106765150D01*
X110180845Y-106875459D01*
X110107306Y-106948998D01*
X110033767Y-106985767D01*
X110769158Y-106838689D02*
X110805927Y-106801920D01*
X110879466Y-106765150D01*
X111063314Y-106765150D01*
X111136853Y-106801920D01*
X111173622Y-106838689D01*
X111210392Y-106912228D01*
X111210392Y-106985767D01*
X111173622Y-107096076D01*
X110732388Y-107537310D01*
X111210392Y-107537310D01*
D18*
X109615514Y-110072714D02*
X109569552Y-110118676D01*
X109431666Y-110164638D01*
X109339742Y-110164638D01*
X109201857Y-110118676D01*
X109109933Y-110026752D01*
X109063971Y-109934828D01*
X109018009Y-109750980D01*
X109018009Y-109613095D01*
X109063971Y-109429247D01*
X109109933Y-109337323D01*
X109201857Y-109245400D01*
X109339742Y-109199438D01*
X109431666Y-109199438D01*
X109569552Y-109245400D01*
X109615514Y-109291361D01*
X110534752Y-110164638D02*
X109983209Y-110164638D01*
X110258980Y-110164638D02*
X110258980Y-109199438D01*
X110167057Y-109337323D01*
X110075133Y-109429247D01*
X109983209Y-109475209D01*
X111453990Y-110164638D02*
X110902447Y-110164638D01*
X111178219Y-110164638D02*
X111178219Y-109199438D01*
X111086295Y-109337323D01*
X110994371Y-109429247D01*
X110902447Y-109475209D01*
X83148714Y-90536485D02*
X83194676Y-90582447D01*
X83240638Y-90720333D01*
X83240638Y-90812257D01*
X83194676Y-90950142D01*
X83102752Y-91042066D01*
X83010828Y-91088028D01*
X82826980Y-91133990D01*
X82689095Y-91133990D01*
X82505247Y-91088028D01*
X82413323Y-91042066D01*
X82321400Y-90950142D01*
X82275438Y-90812257D01*
X82275438Y-90720333D01*
X82321400Y-90582447D01*
X82367361Y-90536485D01*
X83240638Y-89617247D02*
X83240638Y-90168790D01*
X83240638Y-89893019D02*
X82275438Y-89893019D01*
X82413323Y-89984942D01*
X82505247Y-90076866D01*
X82551209Y-90168790D01*
X82275438Y-89019742D02*
X82275438Y-88927819D01*
X82321400Y-88835895D01*
X82367361Y-88789933D01*
X82459285Y-88743971D01*
X82643133Y-88698009D01*
X82872942Y-88698009D01*
X83056790Y-88743971D01*
X83148714Y-88789933D01*
X83194676Y-88835895D01*
X83240638Y-88927819D01*
X83240638Y-89019742D01*
X83194676Y-89111666D01*
X83148714Y-89157628D01*
X83056790Y-89203590D01*
X82872942Y-89249552D01*
X82643133Y-89249552D01*
X82459285Y-89203590D01*
X82367361Y-89157628D01*
X82321400Y-89111666D01*
X82275438Y-89019742D01*
X69435133Y-84418714D02*
X69389171Y-84464676D01*
X69251285Y-84510638D01*
X69159361Y-84510638D01*
X69021476Y-84464676D01*
X68929552Y-84372752D01*
X68883590Y-84280828D01*
X68837628Y-84096980D01*
X68837628Y-83959095D01*
X68883590Y-83775247D01*
X68929552Y-83683323D01*
X69021476Y-83591400D01*
X69159361Y-83545438D01*
X69251285Y-83545438D01*
X69389171Y-83591400D01*
X69435133Y-83637361D01*
X69894752Y-84510638D02*
X70078600Y-84510638D01*
X70170523Y-84464676D01*
X70216485Y-84418714D01*
X70308409Y-84280828D01*
X70354371Y-84096980D01*
X70354371Y-83729285D01*
X70308409Y-83637361D01*
X70262447Y-83591400D01*
X70170523Y-83545438D01*
X69986676Y-83545438D01*
X69894752Y-83591400D01*
X69848790Y-83637361D01*
X69802828Y-83729285D01*
X69802828Y-83959095D01*
X69848790Y-84051019D01*
X69894752Y-84096980D01*
X69986676Y-84142942D01*
X70170523Y-84142942D01*
X70262447Y-84096980D01*
X70308409Y-84051019D01*
X70354371Y-83959095D01*
D20*
X96610714Y-101760866D02*
X96656676Y-101806828D01*
X96702638Y-101944714D01*
X96702638Y-102036638D01*
X96656676Y-102174523D01*
X96564752Y-102266447D01*
X96472828Y-102312409D01*
X96288980Y-102358371D01*
X96151095Y-102358371D01*
X95967247Y-102312409D01*
X95875323Y-102266447D01*
X95783400Y-102174523D01*
X95737438Y-102036638D01*
X95737438Y-101944714D01*
X95783400Y-101806828D01*
X95829361Y-101760866D01*
X96151095Y-101209323D02*
X96105133Y-101301247D01*
X96059171Y-101347209D01*
X95967247Y-101393171D01*
X95921285Y-101393171D01*
X95829361Y-101347209D01*
X95783400Y-101301247D01*
X95737438Y-101209323D01*
X95737438Y-101025476D01*
X95783400Y-100933552D01*
X95829361Y-100887590D01*
X95921285Y-100841628D01*
X95967247Y-100841628D01*
X96059171Y-100887590D01*
X96105133Y-100933552D01*
X96151095Y-101025476D01*
X96151095Y-101209323D01*
X96197057Y-101301247D01*
X96243019Y-101347209D01*
X96334942Y-101393171D01*
X96518790Y-101393171D01*
X96610714Y-101347209D01*
X96656676Y-101301247D01*
X96702638Y-101209323D01*
X96702638Y-101025476D01*
X96656676Y-100933552D01*
X96610714Y-100887590D01*
X96518790Y-100841628D01*
X96334942Y-100841628D01*
X96243019Y-100887590D01*
X96197057Y-100933552D01*
X96151095Y-101025476D01*
D18*
X113628714Y-86266866D02*
X113674676Y-86312828D01*
X113720638Y-86450714D01*
X113720638Y-86542638D01*
X113674676Y-86680523D01*
X113582752Y-86772447D01*
X113490828Y-86818409D01*
X113306980Y-86864371D01*
X113169095Y-86864371D01*
X112985247Y-86818409D01*
X112893323Y-86772447D01*
X112801400Y-86680523D01*
X112755438Y-86542638D01*
X112755438Y-86450714D01*
X112801400Y-86312828D01*
X112847361Y-86266866D01*
X112755438Y-85945133D02*
X112755438Y-85301666D01*
X113720638Y-85715323D01*
X85691133Y-83910714D02*
X85645171Y-83956676D01*
X85507285Y-84002638D01*
X85415361Y-84002638D01*
X85277476Y-83956676D01*
X85185552Y-83864752D01*
X85139590Y-83772828D01*
X85093628Y-83588980D01*
X85093628Y-83451095D01*
X85139590Y-83267247D01*
X85185552Y-83175323D01*
X85277476Y-83083400D01*
X85415361Y-83037438D01*
X85507285Y-83037438D01*
X85645171Y-83083400D01*
X85691133Y-83129361D01*
X86518447Y-83037438D02*
X86334600Y-83037438D01*
X86242676Y-83083400D01*
X86196714Y-83129361D01*
X86104790Y-83267247D01*
X86058828Y-83451095D01*
X86058828Y-83818790D01*
X86104790Y-83910714D01*
X86150752Y-83956676D01*
X86242676Y-84002638D01*
X86426523Y-84002638D01*
X86518447Y-83956676D01*
X86564409Y-83910714D01*
X86610371Y-83818790D01*
X86610371Y-83588980D01*
X86564409Y-83497057D01*
X86518447Y-83451095D01*
X86426523Y-83405133D01*
X86242676Y-83405133D01*
X86150752Y-83451095D01*
X86104790Y-83497057D01*
X86058828Y-83588980D01*
D19*
X78611306Y-93747771D02*
X78574537Y-93784540D01*
X78464228Y-93821310D01*
X78390689Y-93821310D01*
X78280380Y-93784540D01*
X78206841Y-93711001D01*
X78170072Y-93637462D01*
X78133302Y-93490384D01*
X78133302Y-93380076D01*
X78170072Y-93232998D01*
X78206841Y-93159459D01*
X78280380Y-93085920D01*
X78390689Y-93049150D01*
X78464228Y-93049150D01*
X78574537Y-93085920D01*
X78611306Y-93122689D01*
X79309927Y-93049150D02*
X78942232Y-93049150D01*
X78905462Y-93416845D01*
X78942232Y-93380076D01*
X79015771Y-93343306D01*
X79199619Y-93343306D01*
X79273158Y-93380076D01*
X79309927Y-93416845D01*
X79346697Y-93490384D01*
X79346697Y-93674232D01*
X79309927Y-93747771D01*
X79273158Y-93784540D01*
X79199619Y-93821310D01*
X79015771Y-93821310D01*
X78942232Y-93784540D01*
X78905462Y-93747771D01*
D18*
X69181133Y-101944714D02*
X69135171Y-101990676D01*
X68997285Y-102036638D01*
X68905361Y-102036638D01*
X68767476Y-101990676D01*
X68675552Y-101898752D01*
X68629590Y-101806828D01*
X68583628Y-101622980D01*
X68583628Y-101485095D01*
X68629590Y-101301247D01*
X68675552Y-101209323D01*
X68767476Y-101117400D01*
X68905361Y-101071438D01*
X68997285Y-101071438D01*
X69135171Y-101117400D01*
X69181133Y-101163361D01*
X70008447Y-101393171D02*
X70008447Y-102036638D01*
X69778638Y-101025476D02*
X69548828Y-101714904D01*
X70146333Y-101714904D01*
X78579133Y-112866714D02*
X78533171Y-112912676D01*
X78395285Y-112958638D01*
X78303361Y-112958638D01*
X78165476Y-112912676D01*
X78073552Y-112820752D01*
X78027590Y-112728828D01*
X77981628Y-112544980D01*
X77981628Y-112407095D01*
X78027590Y-112223247D01*
X78073552Y-112131323D01*
X78165476Y-112039400D01*
X78303361Y-111993438D01*
X78395285Y-111993438D01*
X78533171Y-112039400D01*
X78579133Y-112085361D01*
X78900866Y-111993438D02*
X79498371Y-111993438D01*
X79176638Y-112361133D01*
X79314523Y-112361133D01*
X79406447Y-112407095D01*
X79452409Y-112453057D01*
X79498371Y-112544980D01*
X79498371Y-112774790D01*
X79452409Y-112866714D01*
X79406447Y-112912676D01*
X79314523Y-112958638D01*
X79038752Y-112958638D01*
X78946828Y-112912676D01*
X78900866Y-112866714D01*
D20*
X79579133Y-110326714D02*
X79533171Y-110372676D01*
X79395285Y-110418638D01*
X79303361Y-110418638D01*
X79165476Y-110372676D01*
X79073552Y-110280752D01*
X79027590Y-110188828D01*
X78981628Y-110004980D01*
X78981628Y-109867095D01*
X79027590Y-109683247D01*
X79073552Y-109591323D01*
X79165476Y-109499400D01*
X79303361Y-109453438D01*
X79395285Y-109453438D01*
X79533171Y-109499400D01*
X79579133Y-109545361D01*
X79946828Y-109545361D02*
X79992790Y-109499400D01*
X80084714Y-109453438D01*
X80314523Y-109453438D01*
X80406447Y-109499400D01*
X80452409Y-109545361D01*
X80498371Y-109637285D01*
X80498371Y-109729209D01*
X80452409Y-109867095D01*
X79900866Y-110418638D01*
X80498371Y-110418638D01*
D18*
X82897133Y-104738714D02*
X82851171Y-104784676D01*
X82713285Y-104830638D01*
X82621361Y-104830638D01*
X82483476Y-104784676D01*
X82391552Y-104692752D01*
X82345590Y-104600828D01*
X82299628Y-104416980D01*
X82299628Y-104279095D01*
X82345590Y-104095247D01*
X82391552Y-104003323D01*
X82483476Y-103911400D01*
X82621361Y-103865438D01*
X82713285Y-103865438D01*
X82851171Y-103911400D01*
X82897133Y-103957361D01*
X83816371Y-104830638D02*
X83264828Y-104830638D01*
X83540600Y-104830638D02*
X83540600Y-103865438D01*
X83448676Y-104003323D01*
X83356752Y-104095247D01*
X83264828Y-104141209D01*
D15*
M02*
